{"glyphs":{"0":{"ha":833,"x_min":90,"x_max":743,"o":"m 421 1000 q 590 942 517 1000 q 703 774 663 883 q 743 508 743 664 l 743 444 q 700 190 743 296 q 582 28 657 83 q 413 -28 507 -28 q 283 3 342 -28 q 181 94 224 35 q 114 240 138 154 q 90 435 90 325 l 90 499 q 133 770 90 658 q 252 941 176 882 q 421 1000 328 1000 m 438 874 q 316 822 365 874 q 242 682 267 771 q 217 481 217 593 l 217 419 q 225 300 217 361 q 258 188 233 239 q 328 104 282 136 q 359 100 342 101 q 396 99 376 99 q 517 147 468 99 q 592 276 567 194 q 617 463 617 358 l 617 524 q 607 656 617 590 q 572 778 597 722 q 500 868 547 833 q 472 873 488 872 q 438 874 456 874 m 622 792 l 632 642 l 571 642 l 608 683 q 583 612 597 643 q 549 553 568 581 q 500 492 529 525 q 415 400 461 447 q 314 308 368 353 q 199 219 260 263 l 189 328 l 261 328 l 218 289 q 242 338 229 317 q 274 380 254 358 q 326 432 294 401 q 453 568 378 481 q 622 792 529 656 z "},"1":{"ha":833,"x_min":108,"x_max":774,"o":"m 378 978 q 388 980 382 979 q 399 982 393 981 q 413 985 406 983 q 426 986 419 986 q 442 986 433 986 q 490 981 471 986 q 519 966 510 976 q 529 938 529 956 q 529 859 529 911 q 529 738 529 807 q 529 591 529 668 q 529 436 529 514 q 529 290 529 358 q 529 169 529 221 q 529 90 529 117 l 435 90 l 435 135 q 417 160 424 144 q 406 195 410 175 q 401 239 401 215 q 401 291 401 254 q 401 378 401 328 q 401 485 401 428 q 401 602 401 543 q 401 714 401 661 q 401 808 401 767 q 401 872 401 850 l 435 828 l 364 828 l 410 871 q 379 802 397 835 q 338 741 361 769 q 286 685 315 713 q 241 647 261 661 q 203 627 221 633 q 171 621 186 621 q 145 631 156 621 q 128 663 135 640 q 122 721 122 685 l 122 739 q 206 788 167 760 q 282 853 244 815 q 320 896 303 874 q 352 939 338 918 q 378 978 367 960 m 110 126 q 131 126 114 126 q 176 126 149 126 q 236 126 203 126 q 307 126 269 126 q 381 126 344 126 q 449 126 417 126 q 507 126 482 126 q 703 99 632 126 q 774 32 774 72 q 774 22 774 26 q 773 15 774 18 q 772 8 772 11 q 771 0 772 4 q 738 0 767 0 q 661 0 708 0 q 558 0 614 0 q 444 0 503 0 q 335 0 386 0 q 247 0 283 0 q 196 0 210 0 q 156 3 171 0 q 131 17 140 7 q 113 49 118 29 q 108 92 108 68 q 108 100 108 96 q 108 108 108 104 q 108 115 108 111 q 109 121 108 118 q 110 126 110 124 z "},"2":{"ha":833,"x_min":90,"x_max":744,"o":"m 422 1000 q 544 981 489 1000 q 640 926 600 963 q 701 840 679 890 q 722 728 722 790 l 722 719 q 705 610 722 663 q 653 513 688 558 q 569 425 619 467 q 451 346 518 383 q 329 269 376 303 q 253 206 282 236 q 213 145 225 176 q 197 74 200 114 l 186 131 l 231 94 l 167 92 q 228 113 197 106 q 294 124 258 121 q 378 126 331 126 l 675 126 q 730 109 715 126 q 744 50 744 92 q 744 40 744 44 q 744 29 744 35 q 742 19 743 24 q 741 9 742 14 q 739 0 740 4 q 703 0 735 0 q 620 0 671 0 q 509 0 569 0 q 388 0 449 0 q 276 0 328 0 q 191 0 225 0 q 150 0 157 0 q 121 16 135 0 q 99 55 107 32 q 90 96 90 78 l 90 103 q 126 224 90 167 q 229 335 163 281 q 389 442 296 389 q 486 510 447 476 q 549 578 525 543 q 583 650 572 613 q 594 728 594 688 l 594 733 q 586 788 594 761 q 564 836 578 815 q 506 864 538 854 q 425 874 474 874 q 278 820 329 874 q 221 665 226 767 l 213 665 q 178 674 193 668 q 151 687 163 679 q 133 705 140 694 q 121 728 125 715 q 117 754 117 740 q 135 839 117 799 q 188 914 153 879 q 285 976 226 951 q 422 1000 343 1000 z "},"3":{"ha":833,"x_min":93,"x_max":743,"o":"m 417 999 q 583 967 513 999 q 692 881 654 936 q 729 756 731 826 l 728 736 q 697 624 728 679 q 601 524 667 568 q 431 451 536 479 l 472 494 l 472 422 l 429 464 q 610 411 542 444 q 711 332 679 378 q 743 229 743 286 l 743 215 q 703 90 743 146 q 590 3 664 35 q 417 -28 517 -28 q 296 -17 351 -28 q 198 14 240 -6 q 129 58 156 33 q 100 104 107 81 q 93 163 93 128 q 93 177 93 169 q 94 192 93 185 q 95 205 94 199 q 97 218 96 211 q 100 231 99 225 l 108 231 q 188 156 146 185 q 284 113 231 126 q 404 99 338 99 q 514 113 468 99 q 590 154 560 128 q 633 215 619 181 l 633 221 q 598 294 626 263 q 522 347 569 325 q 415 379 475 368 q 285 392 354 390 q 249 408 260 393 q 238 460 238 424 q 238 475 238 468 q 238 488 238 482 q 240 498 239 493 q 242 510 240 503 q 382 523 318 510 q 495 565 446 536 q 576 634 544 593 q 617 728 607 675 l 617 735 q 580 807 606 776 q 510 855 554 838 q 404 872 467 872 q 246 840 310 872 q 131 742 182 808 l 122 742 q 118 754 119 747 q 115 767 117 761 q 113 781 114 774 q 113 794 113 788 q 113 810 113 801 q 122 868 113 846 q 154 915 131 890 q 257 974 188 949 q 417 999 326 999 z "},"4":{"ha":833,"x_min":65,"x_max":788,"o":"m 557 992 q 588 990 574 992 q 615 985 603 988 q 639 977 628 982 q 659 967 650 972 q 675 954 668 963 l 675 946 q 557 853 617 908 q 440 731 497 797 q 331 589 382 664 q 236 437 279 514 q 164 283 193 360 l 179 351 l 179 293 l 158 306 q 239 324 201 318 q 316 333 276 331 q 403 335 356 335 l 731 335 q 765 324 753 335 q 783 296 778 314 q 788 254 788 278 q 788 243 788 249 q 787 233 788 238 q 786 225 786 229 q 785 217 786 221 q 783 208 783 213 l 133 208 q 97 222 111 208 q 74 258 82 235 q 65 311 65 281 l 65 324 q 75 383 65 349 q 103 457 85 417 q 147 542 121 497 q 202 634 172 588 q 267 728 232 681 q 340 820 301 775 q 415 906 378 865 q 476 962 453 944 q 517 985 499 979 q 557 992 536 992 m 572 546 q 574 546 574 546 q 577 546 575 546 q 580 546 579 546 q 582 546 581 546 q 629 538 610 546 q 659 517 649 531 q 669 488 669 504 l 669 136 q 670 93 669 113 q 672 56 671 74 q 676 24 674 39 q 682 -6 679 10 q 674 -8 678 -7 q 665 -10 669 -8 q 655 -12 660 -11 q 645 -12 650 -12 q 635 -12 640 -12 q 560 10 582 -12 q 538 76 538 32 q 538 112 538 90 q 538 156 538 133 q 538 202 538 179 q 538 245 538 225 q 538 276 538 265 q 540 335 538 297 q 548 415 543 372 q 559 493 553 457 q 572 546 565 529 z "},"5":{"ha":833,"x_min":92,"x_max":743,"o":"m 150 972 q 178 972 153 972 q 244 972 204 972 q 331 972 283 972 q 426 972 378 972 q 518 972 475 972 q 592 972 561 972 q 636 972 624 972 q 697 953 679 972 q 714 901 714 933 q 713 889 714 894 q 712 877 713 883 q 711 865 711 871 q 710 854 711 860 q 707 846 708 849 q 669 846 704 846 q 580 846 633 846 q 467 846 526 846 q 351 846 407 846 q 257 846 296 846 q 208 846 218 846 q 170 851 185 846 q 149 872 156 857 q 143 915 143 888 q 145 949 143 933 q 150 972 147 964 m 224 896 l 303 896 l 299 838 q 312 801 310 821 q 310 754 314 782 q 290 652 300 706 q 270 549 279 599 q 254 460 261 499 l 224 497 l 306 497 l 232 483 q 329 511 286 504 q 421 518 372 518 q 549 501 490 518 q 652 451 608 483 q 719 370 696 418 q 743 261 743 322 l 743 247 q 722 135 743 185 q 658 48 700 85 q 556 -8 617 11 q 417 -28 494 -28 q 285 -15 342 -28 q 192 16 229 -3 q 136 53 154 35 q 101 107 111 79 q 92 168 92 135 q 92 181 92 175 q 92 192 92 186 q 94 202 93 197 q 95 212 94 207 q 97 221 96 217 l 106 221 q 233 130 163 161 q 404 99 303 99 q 581 148 518 99 q 644 268 644 197 l 644 276 q 592 351 629 321 q 499 398 556 382 q 365 414 443 414 q 306 414 332 414 q 257 414 279 414 l 207 414 q 146 422 163 414 q 133 453 129 431 q 153 568 144 515 q 172 667 163 621 q 189 751 181 713 q 206 826 197 790 q 224 896 215 863 z "},"6":{"ha":833,"x_min":90,"x_max":746,"o":"m 486 1000 q 611 984 567 1000 q 672 953 656 968 q 699 920 690 939 q 707 868 707 901 q 706 853 707 860 q 705 842 706 847 q 703 831 704 836 q 701 821 701 825 q 697 813 700 817 l 689 813 q 600 858 649 843 q 486 874 551 874 q 390 861 436 874 q 310 828 344 849 q 245 681 271 775 q 219 444 219 588 l 219 433 q 228 302 219 360 q 251 202 236 244 q 288 133 267 160 q 350 105 318 113 q 422 97 382 97 q 567 147 515 97 q 619 275 619 196 l 619 283 q 615 331 619 310 q 603 372 611 351 q 534 415 576 400 q 438 429 492 429 q 302 410 368 429 q 179 351 236 390 l 175 451 l 263 451 l 203 421 q 317 513 250 483 q 461 542 385 542 q 609 508 544 542 q 710 415 674 475 q 746 274 746 356 l 746 261 q 706 110 746 176 q 595 8 667 44 q 431 -28 524 -28 q 245 22 321 -28 q 130 176 169 72 q 90 438 90 279 l 90 449 q 108 652 90 563 q 160 807 126 742 q 243 915 194 872 q 353 979 292 958 q 486 1000 414 1000 z "},"7":{"ha":833,"x_min":96,"x_max":740,"o":"m 132 1000 q 169 998 151 1000 q 201 992 186 996 q 227 981 215 988 q 244 967 239 975 q 250 950 250 960 q 247 919 250 943 q 240 863 244 896 q 232 792 236 831 q 225 718 228 754 q 222 651 222 682 q 215 649 219 650 q 206 648 210 649 q 196 647 201 647 q 185 646 190 646 q 174 646 179 646 q 117 657 139 646 q 96 706 96 668 q 98 762 96 732 q 103 823 100 792 q 110 885 106 854 q 120 946 115 917 q 132 1000 125 975 m 454 -7 q 447 -9 451 -8 q 438 -10 443 -10 q 427 -12 433 -11 q 415 -14 421 -14 q 403 -14 408 -14 q 342 3 364 -14 q 319 57 319 19 q 330 163 319 108 q 363 281 340 218 q 420 419 385 344 q 507 582 456 493 q 558 678 538 635 q 592 759 578 721 q 615 833 606 797 q 628 908 624 869 l 633 828 l 601 892 l 660 876 q 587 860 622 865 q 510 852 551 854 q 417 850 469 850 l 201 850 q 180 860 190 850 q 162 885 169 869 q 149 918 154 901 q 141 950 143 935 q 139 972 139 965 l 675 972 q 712 959 697 972 q 733 923 726 946 q 740 871 740 900 l 740 860 q 735 810 740 838 q 717 749 729 782 q 690 677 706 715 q 654 597 675 639 q 610 508 633 554 q 532 347 563 418 q 484 217 501 276 q 460 105 467 158 q 454 -7 454 51 z "},"8":{"ha":833,"x_min":89,"x_max":751,"o":"m 428 1001 q 588 966 517 1001 q 699 868 658 931 q 740 726 740 806 l 740 719 q 713 605 740 658 q 631 515 686 551 q 492 461 575 478 l 529 499 l 529 433 l 392 475 q 564 578 510 518 q 618 721 618 638 l 618 726 q 610 788 618 760 q 588 836 603 815 q 519 868 560 857 q 426 879 478 879 q 326 859 374 879 q 248 800 278 839 q 218 704 218 761 q 235 627 218 663 q 294 561 253 592 q 403 507 335 531 l 526 461 q 633 410 590 439 q 702 351 676 382 q 740 290 728 321 q 751 229 751 260 l 751 222 q 710 93 751 150 q 591 4 668 36 q 410 -28 514 -28 q 240 2 313 -28 q 128 85 168 32 q 89 208 89 139 l 89 217 q 117 318 89 271 q 202 397 144 365 q 351 436 260 429 l 311 403 l 311 460 l 443 421 q 306 358 358 392 q 231 288 254 325 q 207 208 207 251 q 240 145 211 171 q 315 106 269 119 q 414 93 360 93 q 560 124 501 93 q 642 214 618 156 q 622 276 638 249 q 574 328 606 304 q 489 371 542 351 l 365 417 q 203 503 261 456 q 123 603 146 550 q 100 708 100 656 l 100 714 q 141 860 100 796 q 256 963 182 925 q 428 1001 329 1001 z "},"9":{"ha":833,"x_min":88,"x_max":744,"o":"m 404 1000 q 548 972 485 1000 q 655 887 611 944 q 722 740 699 829 q 744 526 744 650 l 744 515 q 717 263 744 367 q 637 95 689 160 q 513 1 585 31 q 349 -28 440 -28 q 259 -21 297 -28 q 197 -3 221 -14 q 161 19 172 8 q 137 56 146 35 q 128 111 128 76 q 128 124 128 118 q 128 134 128 129 q 130 144 129 139 q 131 153 131 149 q 133 163 132 158 l 142 163 q 233 114 185 129 q 349 99 282 99 q 447 110 401 99 q 531 143 493 121 q 593 303 571 208 q 615 528 615 397 l 615 539 q 597 729 615 651 q 544 847 579 807 q 485 873 515 865 q 418 881 456 881 q 268 817 321 881 q 215 650 215 754 l 215 642 q 221 569 215 600 q 242 510 226 538 q 309 471 269 485 q 394 457 349 457 q 531 477 465 457 q 656 536 597 497 l 656 431 l 571 431 l 631 465 q 515 369 588 399 q 368 340 443 340 q 222 374 285 340 q 123 473 158 407 q 88 636 88 539 l 88 642 q 128 833 88 753 q 239 956 168 913 q 404 1000 310 1000 z "}," ":{"ha":417,"x_min":0,"x_max":0,"o":""}," ":{"ha":417,"x_min":0,"x_max":0,"o":"z "}," ":{"ha":833,"x_min":0,"x_max":0,"o":""}," ":{"ha":417,"x_min":0,"x_max":0,"o":""}," ":{"ha":69,"x_min":0,"x_max":0,"o":""}," ":{"ha":69,"x_min":0,"x_max":0,"o":""},"A":{"ha":903,"x_min":56,"x_max":831,"o":"m 56 386 l 535 386 q 596 381 572 386 q 639 363 619 375 l 692 374 l 692 321 l 692 265 l 110 265 q 76 277 89 265 q 60 311 64 289 q 56 364 56 333 l 56 386 m 236 -6 q 208 -11 222 -8 q 179 -14 194 -14 q 140 -8 158 -14 q 112 10 122 -3 q 101 43 101 22 q 114 199 104 122 q 138 347 124 275 q 172 489 153 419 q 215 624 192 558 q 268 751 239 689 q 330 869 297 813 q 397 979 363 926 q 425 985 410 983 q 461 986 440 986 q 524 975 497 986 q 574 933 550 964 q 626 840 599 901 q 683 707 654 782 q 739 544 713 632 q 787 359 765 457 q 819 158 808 261 q 827 75 824 118 q 831 -6 831 32 q 807 -12 819 -10 q 781 -14 794 -14 q 736 -7 754 -14 q 708 13 718 0 q 694 46 697 26 q 672 231 686 140 q 637 409 657 322 q 590 579 617 496 q 528 741 563 663 q 453 893 494 819 l 514 856 l 422 856 l 485 893 q 407 740 443 817 q 342 581 371 663 q 290 408 313 499 q 254 215 268 317 q 236 -6 240 113 z "},"À":{"ha":903,"x_min":56,"x_max":831,"o":"m 56 386 l 535 386 q 596 381 572 386 q 639 363 619 375 l 692 374 l 692 321 l 692 265 l 110 265 q 76 277 89 265 q 60 311 64 289 q 56 364 56 333 l 56 386 m 236 -6 q 208 -11 222 -8 q 179 -14 194 -14 q 140 -8 158 -14 q 112 10 122 -3 q 101 43 101 22 q 114 199 104 122 q 138 347 124 275 q 172 489 153 419 q 215 624 192 558 q 268 751 239 689 q 330 869 297 813 q 397 979 363 926 q 425 985 410 983 q 461 986 440 986 q 524 975 497 986 q 574 933 550 964 q 626 840 599 901 q 683 707 654 782 q 739 544 713 632 q 787 359 765 457 q 819 158 808 261 q 827 75 824 118 q 831 -6 831 32 q 807 -12 819 -10 q 781 -14 794 -14 q 736 -7 754 -14 q 708 13 718 0 q 694 46 697 26 q 672 231 686 140 q 637 409 657 322 q 590 579 617 496 q 528 741 563 663 q 453 893 494 819 l 514 856 l 422 856 l 485 893 q 407 740 443 817 q 342 581 371 663 q 290 408 313 499 q 254 215 268 317 q 236 -6 240 113 m 369 1297 q 405 1224 382 1258 q 462 1158 428 1189 q 539 1096 496 1128 q 514 1086 526 1090 q 490 1080 501 1082 q 464 1078 478 1078 q 426 1081 443 1078 q 390 1096 408 1085 q 346 1124 367 1108 q 308 1157 325 1139 q 277 1195 290 1175 q 256 1235 264 1215 q 251 1264 249 1251 q 269 1283 254 1276 q 299 1292 283 1289 q 331 1297 314 1296 q 369 1297 349 1299 z "},"Á":{"ha":903,"x_min":56,"x_max":831,"o":"m 56 386 l 535 386 q 596 381 572 386 q 639 363 619 375 l 692 374 l 692 321 l 692 265 l 110 265 q 76 277 89 265 q 60 311 64 289 q 56 364 56 333 l 56 386 m 236 -6 q 208 -11 222 -8 q 179 -14 194 -14 q 140 -8 158 -14 q 112 10 122 -3 q 101 43 101 22 q 114 199 104 122 q 138 347 124 275 q 172 489 153 419 q 215 624 192 558 q 268 751 239 689 q 330 869 297 813 q 397 979 363 926 q 425 985 410 983 q 461 986 440 986 q 524 975 497 986 q 574 933 550 964 q 626 840 599 901 q 683 707 654 782 q 739 544 713 632 q 787 359 765 457 q 819 158 808 261 q 827 75 824 118 q 831 -6 831 32 q 807 -12 819 -10 q 781 -14 794 -14 q 736 -7 754 -14 q 708 13 718 0 q 694 46 697 26 q 672 231 686 140 q 637 409 657 322 q 590 579 617 496 q 528 741 563 663 q 453 893 494 819 l 514 856 l 422 856 l 485 893 q 407 740 443 817 q 342 581 371 663 q 290 408 313 499 q 254 215 268 317 q 236 -6 240 113 m 564 1289 q 602 1288 585 1289 q 633 1283 619 1286 q 661 1276 647 1281 q 681 1257 678 1269 q 679 1229 685 1244 q 658 1188 671 1207 q 628 1150 646 1168 q 591 1117 611 1132 q 547 1089 571 1101 q 510 1074 529 1078 q 469 1069 492 1069 q 444 1072 457 1069 q 419 1078 432 1074 q 394 1089 407 1082 q 472 1151 438 1119 q 529 1216 506 1182 q 564 1289 553 1250 z "},"Â":{"ha":903,"x_min":56,"x_max":831,"o":"m 56 386 l 535 386 q 596 381 572 386 q 639 363 619 375 l 692 374 l 692 321 l 692 265 l 110 265 q 76 277 89 265 q 60 311 64 289 q 56 364 56 333 l 56 386 m 236 -6 q 208 -11 222 -8 q 179 -14 194 -14 q 140 -8 158 -14 q 112 10 122 -3 q 101 43 101 22 q 114 199 104 122 q 138 347 124 275 q 172 489 153 419 q 215 624 192 558 q 268 751 239 689 q 330 869 297 813 q 397 979 363 926 q 425 985 410 983 q 461 986 440 986 q 524 975 497 986 q 574 933 550 964 q 626 840 599 901 q 683 707 654 782 q 739 544 713 632 q 787 359 765 457 q 819 158 808 261 q 827 75 824 118 q 831 -6 831 32 q 807 -12 819 -10 q 781 -14 794 -14 q 736 -7 754 -14 q 708 13 718 0 q 694 46 697 26 q 672 231 686 140 q 637 409 657 322 q 590 579 617 496 q 528 741 563 663 q 453 893 494 819 l 514 856 l 422 856 l 485 893 q 407 740 443 817 q 342 581 371 663 q 290 408 313 499 q 254 215 268 317 q 236 -6 240 113 m 425 1301 q 440 1301 432 1301 q 455 1301 447 1301 q 469 1301 463 1301 q 517 1296 494 1301 q 579 1265 540 1290 q 626 1233 601 1251 q 675 1192 651 1214 q 720 1143 699 1169 q 761 1086 742 1117 q 726 1075 743 1079 q 686 1071 710 1071 q 649 1078 663 1071 q 619 1104 636 1086 q 546 1169 586 1140 q 433 1231 506 1199 l 513 1214 q 467 1214 490 1214 q 421 1214 444 1214 l 499 1232 q 367 1150 418 1192 q 288 1069 315 1108 l 279 1069 q 228 1073 247 1069 q 200 1084 208 1076 q 192 1100 192 1092 q 200 1125 192 1108 q 229 1165 208 1142 q 270 1206 249 1186 q 317 1243 292 1225 q 369 1276 342 1261 q 425 1301 396 1290 z "},"Ã":{"ha":903,"x_min":56,"x_max":831,"o":"m 56 386 l 535 386 q 596 381 572 386 q 639 363 619 375 l 692 374 l 692 321 l 692 265 l 110 265 q 76 277 89 265 q 60 311 64 289 q 56 364 56 333 l 56 386 m 236 -6 q 208 -11 222 -8 q 179 -14 194 -14 q 140 -8 158 -14 q 112 10 122 -3 q 101 43 101 22 q 114 199 104 122 q 138 347 124 275 q 172 489 153 419 q 215 624 192 558 q 268 751 239 689 q 330 869 297 813 q 397 979 363 926 q 425 985 410 983 q 461 986 440 986 q 524 975 497 986 q 574 933 550 964 q 626 840 599 901 q 683 707 654 782 q 739 544 713 632 q 787 359 765 457 q 819 158 808 261 q 827 75 824 118 q 831 -6 831 32 q 807 -12 819 -10 q 781 -14 794 -14 q 736 -7 754 -14 q 708 13 718 0 q 694 46 697 26 q 672 231 686 140 q 637 409 657 322 q 590 579 617 496 q 528 741 563 663 q 453 893 494 819 l 514 856 l 422 856 l 485 893 q 407 740 443 817 q 342 581 371 663 q 290 408 313 499 q 254 215 268 317 q 236 -6 240 113 m 604 1194 q 669 1210 640 1194 q 725 1258 697 1226 l 733 1258 q 740 1235 738 1250 q 742 1208 742 1221 q 738 1172 742 1186 q 729 1147 735 1158 q 687 1104 715 1119 q 615 1089 658 1089 q 542 1104 578 1089 q 471 1140 506 1119 q 400 1175 436 1160 q 326 1190 364 1190 q 263 1175 290 1190 q 206 1126 235 1160 l 197 1126 q 191 1151 193 1138 q 189 1176 189 1164 q 192 1212 189 1199 q 201 1236 196 1225 q 244 1280 215 1264 q 315 1296 272 1296 q 389 1281 353 1296 q 460 1245 425 1265 q 531 1210 496 1225 q 604 1194 567 1194 z "},"Ä":{"ha":903,"x_min":56,"x_max":831,"o":"m 56 386 l 535 386 q 596 381 572 386 q 639 363 619 375 l 692 374 l 692 321 l 692 265 l 110 265 q 76 277 89 265 q 60 311 64 289 q 56 364 56 333 l 56 386 m 236 -6 q 208 -11 222 -8 q 179 -14 194 -14 q 140 -8 158 -14 q 112 10 122 -3 q 101 43 101 22 q 114 199 104 122 q 138 347 124 275 q 172 489 153 419 q 215 624 192 558 q 268 751 239 689 q 330 869 297 813 q 397 979 363 926 q 425 985 410 983 q 461 986 440 986 q 524 975 497 986 q 574 933 550 964 q 626 840 599 901 q 683 707 654 782 q 739 544 713 632 q 787 359 765 457 q 819 158 808 261 q 827 75 824 118 q 831 -6 831 32 q 807 -12 819 -10 q 781 -14 794 -14 q 736 -7 754 -14 q 708 13 718 0 q 694 46 697 26 q 672 231 686 140 q 637 409 657 322 q 590 579 617 496 q 528 741 563 663 q 453 893 494 819 l 514 856 l 422 856 l 485 893 q 407 740 443 817 q 342 581 371 663 q 290 408 313 499 q 254 215 268 317 q 236 -6 240 113 m 244 1260 q 275 1263 258 1263 q 306 1264 292 1264 q 353 1259 332 1264 q 387 1242 374 1254 q 400 1207 400 1229 l 400 1108 q 369 1106 386 1107 q 338 1104 353 1104 q 292 1110 314 1104 q 258 1128 271 1115 q 244 1163 244 1140 l 244 1260 m 533 1260 q 564 1263 547 1263 q 594 1264 581 1264 q 642 1259 621 1264 q 676 1242 663 1254 q 689 1207 689 1229 l 689 1108 q 658 1106 675 1107 q 626 1104 642 1104 q 581 1110 603 1104 q 547 1128 560 1115 q 533 1163 533 1140 l 533 1260 z "},"Å":{"ha":903,"x_min":56,"x_max":831,"o":"m 56 386 l 535 386 q 596 381 572 386 q 639 363 619 375 l 692 374 l 692 321 l 692 265 l 110 265 q 76 277 89 265 q 60 311 64 289 q 56 364 56 333 l 56 386 m 236 -6 q 208 -11 222 -8 q 179 -14 194 -14 q 140 -8 158 -14 q 112 10 122 -3 q 101 43 101 22 q 114 199 104 122 q 138 347 124 275 q 172 489 153 419 q 215 624 192 558 q 268 751 239 689 q 330 869 297 813 q 397 979 363 926 q 425 985 410 983 q 461 986 440 986 q 524 975 497 986 q 574 933 550 964 q 626 840 599 901 q 683 707 654 782 q 739 544 713 632 q 787 359 765 457 q 819 158 808 261 q 827 75 824 118 q 831 -6 831 32 q 807 -12 819 -10 q 781 -14 794 -14 q 736 -7 754 -14 q 708 13 718 0 q 694 46 697 26 q 672 231 686 140 q 637 409 657 322 q 590 579 617 496 q 528 741 563 663 q 453 893 494 819 l 514 856 l 422 856 l 485 893 q 407 740 443 817 q 342 581 371 663 q 290 408 313 499 q 254 215 268 317 q 236 -6 240 113 m 468 1244 q 576 1224 529 1244 q 649 1165 622 1203 q 676 1076 676 1128 l 676 1068 q 649 982 676 1019 q 572 923 621 944 q 460 901 524 901 q 352 922 399 901 q 278 978 306 942 q 251 1063 251 1014 l 251 1071 q 279 1161 251 1122 q 356 1222 307 1200 q 468 1244 404 1244 m 471 1157 q 385 1135 415 1157 q 354 1072 354 1113 l 354 1064 q 365 1026 354 1043 q 393 996 375 1008 q 424 990 408 992 q 457 989 439 989 q 544 1010 514 989 q 574 1068 574 1031 l 574 1076 q 563 1119 574 1100 q 532 1150 553 1138 q 503 1156 518 1154 q 471 1157 489 1157 z "},"Ā":{"ha":903,"x_min":56,"x_max":831,"o":"m 56 386 l 535 386 q 596 381 572 386 q 639 363 619 375 l 692 374 l 692 321 l 692 265 l 110 265 q 76 277 89 265 q 60 311 64 289 q 56 364 56 333 l 56 386 m 236 -6 q 208 -11 222 -8 q 179 -14 194 -14 q 140 -8 158 -14 q 112 10 122 -3 q 101 43 101 22 q 114 199 104 122 q 138 347 124 275 q 172 489 153 419 q 215 624 192 558 q 268 751 239 689 q 330 869 297 813 q 397 979 363 926 q 425 985 410 983 q 461 986 440 986 q 524 975 497 986 q 574 933 550 964 q 626 840 599 901 q 683 707 654 782 q 739 544 713 632 q 787 359 765 457 q 819 158 808 261 q 827 75 824 118 q 831 -6 831 32 q 807 -12 819 -10 q 781 -14 794 -14 q 736 -7 754 -14 q 708 13 718 0 q 694 46 697 26 q 672 231 686 140 q 637 409 657 322 q 590 579 617 496 q 528 741 563 663 q 453 893 494 819 l 514 856 l 422 856 l 485 893 q 407 740 443 817 q 342 581 371 663 q 290 408 313 499 q 254 215 268 317 q 236 -6 240 113 m 193 1225 l 678 1225 q 726 1208 714 1225 q 739 1154 739 1190 q 738 1134 739 1144 q 735 1115 736 1124 l 296 1115 q 232 1125 254 1115 q 201 1155 210 1135 q 193 1206 193 1175 q 193 1216 193 1211 q 193 1225 193 1221 z "},"Ă":{"ha":903,"x_min":56,"x_max":831,"o":"m 56 386 l 535 386 q 596 381 572 386 q 639 363 619 375 l 692 374 l 692 321 l 692 265 l 110 265 q 76 277 89 265 q 60 311 64 289 q 56 364 56 333 l 56 386 m 236 -6 q 208 -11 222 -8 q 179 -14 194 -14 q 140 -8 158 -14 q 112 10 122 -3 q 101 43 101 22 q 114 199 104 122 q 138 347 124 275 q 172 489 153 419 q 215 624 192 558 q 268 751 239 689 q 330 869 297 813 q 397 979 363 926 q 425 985 410 983 q 461 986 440 986 q 524 975 497 986 q 574 933 550 964 q 626 840 599 901 q 683 707 654 782 q 739 544 713 632 q 787 359 765 457 q 819 158 808 261 q 827 75 824 118 q 831 -6 831 32 q 807 -12 819 -10 q 781 -14 794 -14 q 736 -7 754 -14 q 708 13 718 0 q 694 46 697 26 q 672 231 686 140 q 637 409 657 322 q 590 579 617 496 q 528 741 563 663 q 453 893 494 819 l 514 856 l 422 856 l 485 893 q 407 740 443 817 q 342 581 371 663 q 290 408 313 499 q 254 215 268 317 q 236 -6 240 113 m 631 1304 q 672 1299 654 1304 q 703 1286 689 1294 q 713 1270 711 1279 q 710 1249 715 1261 q 663 1169 694 1203 q 583 1118 631 1136 q 472 1100 536 1100 l 461 1100 q 351 1118 399 1100 q 271 1169 303 1136 q 224 1249 239 1203 q 220 1270 218 1261 q 231 1286 222 1279 q 262 1299 244 1294 q 303 1304 279 1304 q 361 1228 324 1254 q 467 1197 399 1203 q 572 1228 535 1203 q 631 1304 610 1254 z "},"Ą":{"ha":903,"x_min":56,"x_max":831,"o":"m 56 386 l 535 386 q 596 381 572 386 q 639 363 619 375 l 692 374 l 692 321 l 692 265 l 110 265 q 76 277 89 265 q 60 311 64 289 q 56 364 56 333 l 56 386 m 236 -6 q 208 -11 222 -8 q 179 -14 194 -14 q 140 -8 158 -14 q 112 10 122 -3 q 101 43 101 22 q 114 199 104 122 q 138 347 124 275 q 172 489 153 419 q 215 624 192 558 q 268 751 239 689 q 330 869 297 813 q 397 979 363 926 q 425 985 410 983 q 461 986 440 986 q 524 975 497 986 q 574 933 550 964 q 626 840 599 901 q 683 707 654 782 q 739 544 713 632 q 787 359 765 457 q 819 158 808 261 q 827 75 824 118 q 831 -6 831 32 q 807 -12 819 -10 q 781 -14 794 -14 q 736 -7 754 -14 q 708 13 718 0 q 694 46 697 26 q 672 231 686 140 q 637 409 657 322 q 590 579 617 496 q 528 741 563 663 q 453 893 494 819 l 514 856 l 422 856 l 485 893 q 407 740 443 817 q 342 581 371 663 q 290 408 313 499 q 254 215 268 317 q 236 -6 240 113 m 756 35 q 786 25 771 38 q 817 -11 801 13 q 799 -21 810 -17 q 774 -29 788 -25 q 673 -83 708 -47 q 638 -164 638 -118 q 656 -213 638 -197 q 710 -229 675 -229 q 758 -222 736 -229 q 803 -197 781 -214 l 811 -197 q 819 -216 817 -207 q 823 -233 822 -225 q 824 -254 824 -242 q 787 -328 824 -303 q 689 -353 750 -353 q 565 -312 610 -353 q 521 -197 521 -272 q 549 -89 521 -136 q 631 -10 578 -42 q 756 35 683 21 z "},"Ǻ":{"ha":903,"x_min":56,"x_max":831,"o":"m 468 1243 q 576 1222 529 1243 q 651 1164 624 1201 q 678 1076 678 1126 l 678 1068 q 649 981 678 1019 q 572 922 621 943 q 460 901 524 901 q 353 922 400 901 q 278 978 306 942 q 251 1063 251 1014 l 251 1071 q 279 1160 251 1121 q 356 1222 307 1200 q 468 1243 406 1243 m 472 1157 q 385 1134 415 1157 q 356 1071 356 1111 l 356 1063 q 365 1025 356 1042 q 394 996 375 1008 q 424 990 410 992 q 457 988 439 988 q 544 1009 515 988 q 574 1067 574 1031 l 574 1075 q 563 1118 574 1100 q 532 1150 553 1136 q 504 1156 518 1154 q 472 1157 490 1157 m 569 1425 q 608 1424 592 1425 q 640 1420 625 1424 q 667 1413 654 1417 q 687 1393 683 1406 q 685 1365 690 1381 q 664 1324 676 1343 q 634 1286 651 1304 q 597 1253 617 1268 q 553 1225 576 1238 q 517 1210 535 1214 q 475 1206 499 1206 q 450 1208 463 1206 q 426 1214 438 1210 q 400 1225 414 1218 q 478 1287 444 1256 q 535 1352 511 1318 q 569 1425 558 1386 m 56 386 l 535 386 q 596 381 572 386 q 639 363 619 375 l 692 374 l 692 321 l 692 265 l 110 265 q 76 277 89 265 q 60 311 64 289 q 56 364 56 333 l 56 386 m 236 -6 q 208 -11 222 -8 q 179 -14 194 -14 q 140 -8 158 -14 q 112 10 122 -3 q 101 43 101 22 q 114 199 104 122 q 138 347 124 275 q 172 489 153 419 q 215 624 192 558 q 268 751 239 689 q 330 869 297 813 q 397 979 363 926 q 425 985 410 983 q 461 986 440 986 q 524 975 497 986 q 574 933 550 964 q 626 840 599 901 q 683 707 654 782 q 739 544 713 632 q 787 359 765 457 q 819 158 808 261 q 827 75 824 118 q 831 -6 831 32 q 807 -12 819 -10 q 781 -14 794 -14 q 736 -7 754 -14 q 708 13 718 0 q 694 46 697 26 q 672 231 686 140 q 637 409 657 322 q 590 579 617 496 q 528 741 563 663 q 453 893 494 819 l 514 856 l 422 856 l 485 893 q 407 740 443 817 q 342 581 371 663 q 290 408 313 499 q 254 215 268 317 q 236 -6 240 113 z "},"Ȁ":{"ha":903,"x_min":56,"x_max":831,"o":"m 254 1299 q 290 1225 267 1260 q 347 1159 313 1190 q 424 1097 381 1128 q 399 1087 411 1090 q 374 1081 386 1083 q 349 1079 363 1079 q 312 1083 329 1079 q 275 1096 294 1086 q 231 1124 251 1108 q 192 1158 210 1140 q 162 1196 175 1176 q 140 1236 149 1215 q 136 1265 133 1253 q 154 1283 139 1278 q 183 1294 168 1290 q 216 1298 199 1297 q 254 1299 233 1299 m 519 1299 q 555 1225 532 1260 q 611 1159 578 1190 q 689 1097 644 1128 q 664 1087 676 1090 q 640 1081 651 1083 q 614 1079 628 1079 q 576 1083 593 1079 q 540 1096 558 1086 q 496 1124 517 1108 q 458 1158 475 1140 q 427 1196 440 1176 q 406 1236 414 1215 q 401 1265 399 1253 q 419 1283 404 1278 q 448 1294 433 1290 q 481 1298 463 1297 q 519 1299 499 1299 m 56 386 l 535 386 q 596 381 572 386 q 639 363 619 375 l 692 374 l 692 321 l 692 265 l 110 265 q 76 277 89 265 q 60 311 64 289 q 56 364 56 333 l 56 386 m 236 -6 q 208 -11 222 -8 q 179 -14 194 -14 q 140 -8 158 -14 q 112 10 122 -3 q 101 43 101 22 q 114 199 104 122 q 138 347 124 275 q 172 489 153 419 q 215 624 192 558 q 268 751 239 689 q 330 869 297 813 q 397 979 363 926 q 425 985 410 983 q 461 986 440 986 q 524 975 497 986 q 574 933 550 964 q 626 840 599 901 q 683 707 654 782 q 739 544 713 632 q 787 359 765 457 q 819 158 808 261 q 827 75 824 118 q 831 -6 831 32 q 807 -12 819 -10 q 781 -14 794 -14 q 736 -7 754 -14 q 708 13 718 0 q 694 46 697 26 q 672 231 686 140 q 637 409 657 322 q 590 579 617 496 q 528 741 563 663 q 453 893 494 819 l 514 856 l 422 856 l 485 893 q 407 740 443 817 q 342 581 371 663 q 290 408 313 499 q 254 215 268 317 q 236 -6 240 113 z "},"Ȃ":{"ha":903,"x_min":56,"x_max":831,"o":"m 301 1093 q 261 1099 278 1094 q 231 1111 244 1103 q 220 1126 222 1117 q 222 1149 218 1136 q 270 1228 239 1194 q 350 1279 301 1261 q 461 1297 399 1297 l 472 1297 q 583 1279 536 1297 q 663 1228 631 1261 q 710 1149 694 1194 q 713 1126 714 1136 q 703 1111 711 1117 q 672 1099 689 1103 q 631 1093 654 1094 q 572 1169 610 1143 q 467 1200 535 1194 q 361 1169 399 1194 q 301 1093 324 1143 m 56 386 l 535 386 q 596 381 572 386 q 639 363 619 375 l 692 374 l 692 321 l 692 265 l 110 265 q 76 277 89 265 q 60 311 64 289 q 56 364 56 333 l 56 386 m 236 -6 q 208 -11 222 -8 q 179 -14 194 -14 q 140 -8 158 -14 q 112 10 122 -3 q 101 43 101 22 q 114 199 104 122 q 138 347 124 275 q 172 489 153 419 q 215 624 192 558 q 268 751 239 689 q 330 869 297 813 q 397 979 363 926 q 425 985 410 983 q 461 986 440 986 q 524 975 497 986 q 574 933 550 964 q 626 840 599 901 q 683 707 654 782 q 739 544 713 632 q 787 359 765 457 q 819 158 808 261 q 827 75 824 118 q 831 -6 831 32 q 807 -12 819 -10 q 781 -14 794 -14 q 736 -7 754 -14 q 708 13 718 0 q 694 46 697 26 q 672 231 686 140 q 637 409 657 322 q 590 579 617 496 q 528 741 563 663 q 453 893 494 819 l 514 856 l 422 856 l 485 893 q 407 740 443 817 q 342 581 371 663 q 290 408 313 499 q 254 215 268 317 q 236 -6 240 113 z "},"Ạ":{"ha":903,"x_min":56,"x_max":831,"o":"m 56 386 l 535 386 q 596 381 572 386 q 639 363 619 375 l 692 374 l 692 321 l 692 265 l 110 265 q 76 277 89 265 q 60 311 64 289 q 56 364 56 333 l 56 386 m 236 -6 q 208 -11 222 -8 q 179 -14 194 -14 q 140 -8 158 -14 q 112 10 122 -3 q 101 43 101 22 q 114 199 104 122 q 138 347 124 275 q 172 489 153 419 q 215 624 192 558 q 268 751 239 689 q 330 869 297 813 q 397 979 363 926 q 425 985 410 983 q 461 986 440 986 q 524 975 497 986 q 574 933 550 964 q 626 840 599 901 q 683 707 654 782 q 739 544 713 632 q 787 359 765 457 q 819 158 808 261 q 827 75 824 118 q 831 -6 831 32 q 807 -12 819 -10 q 781 -14 794 -14 q 736 -7 754 -14 q 708 13 718 0 q 694 46 697 26 q 672 231 686 140 q 637 409 657 322 q 590 579 617 496 q 528 741 563 663 q 453 893 494 819 l 514 856 l 422 856 l 485 893 q 407 740 443 817 q 342 581 371 663 q 290 408 313 499 q 254 215 268 317 q 236 -6 240 113 m 357 -125 q 373 -122 364 -124 q 390 -120 382 -121 q 408 -119 399 -119 q 426 -119 417 -119 q 501 -133 472 -119 q 529 -183 529 -146 l 529 -274 q 513 -276 522 -275 q 496 -278 504 -278 q 478 -279 488 -279 q 460 -279 469 -279 q 386 -265 415 -279 q 357 -215 357 -251 l 357 -125 z "},"Ả":{"ha":903,"x_min":56,"x_max":831,"o":"m 56 386 l 535 386 q 596 381 572 386 q 639 363 619 375 l 692 374 l 692 321 l 692 265 l 110 265 q 76 277 89 265 q 60 311 64 289 q 56 364 56 333 l 56 386 m 236 -6 q 208 -11 222 -8 q 179 -14 194 -14 q 140 -8 158 -14 q 112 10 122 -3 q 101 43 101 22 q 114 199 104 122 q 138 347 124 275 q 172 489 153 419 q 215 624 192 558 q 268 751 239 689 q 330 869 297 813 q 397 979 363 926 q 425 985 410 983 q 461 986 440 986 q 524 975 497 986 q 574 933 550 964 q 626 840 599 901 q 683 707 654 782 q 739 544 713 632 q 787 359 765 457 q 819 158 808 261 q 827 75 824 118 q 831 -6 831 32 q 807 -12 819 -10 q 781 -14 794 -14 q 736 -7 754 -14 q 708 13 718 0 q 694 46 697 26 q 672 231 686 140 q 637 409 657 322 q 590 579 617 496 q 528 741 563 663 q 453 893 494 819 l 514 856 l 422 856 l 485 893 q 407 740 443 817 q 342 581 371 663 q 290 408 313 499 q 254 215 268 317 q 236 -6 240 113 m 397 1078 q 413 1114 397 1097 q 471 1146 429 1131 q 524 1169 510 1160 q 539 1193 539 1179 q 539 1201 539 1197 q 538 1208 539 1204 q 510 1215 525 1214 q 478 1217 496 1217 q 397 1205 431 1217 q 335 1167 363 1193 l 326 1167 q 318 1188 321 1178 q 315 1214 315 1199 q 322 1249 315 1233 q 342 1276 328 1264 q 363 1291 351 1285 q 389 1302 374 1297 q 424 1309 404 1307 q 467 1311 443 1311 q 556 1297 521 1311 q 608 1257 590 1282 q 625 1200 625 1232 l 625 1197 q 610 1150 625 1168 q 560 1113 594 1132 q 512 1079 522 1092 q 499 1049 501 1067 q 485 1045 493 1047 q 468 1042 476 1043 q 451 1042 460 1042 q 410 1052 424 1042 q 397 1078 397 1063 z "},"Ấ":{"ha":903,"x_min":56,"x_max":874,"o":"m 56 386 l 535 386 q 596 381 572 386 q 639 363 619 375 l 692 374 l 692 321 l 692 265 l 110 265 q 76 277 89 265 q 60 311 64 289 q 56 364 56 333 l 56 386 m 236 -6 q 208 -11 222 -8 q 179 -14 194 -14 q 140 -8 158 -14 q 112 10 122 -3 q 101 43 101 22 q 114 199 104 122 q 138 347 124 275 q 172 489 153 419 q 215 624 192 558 q 268 751 239 689 q 330 869 297 813 q 397 979 363 926 q 425 985 410 983 q 461 986 440 986 q 524 975 497 986 q 574 933 550 964 q 626 840 599 901 q 683 707 654 782 q 739 544 713 632 q 787 359 765 457 q 819 158 808 261 q 827 75 824 118 q 831 -6 831 32 q 807 -12 819 -10 q 781 -14 794 -14 q 736 -7 754 -14 q 708 13 718 0 q 694 46 697 26 q 672 231 686 140 q 637 409 657 322 q 590 579 617 496 q 528 741 563 663 q 453 893 494 819 l 514 856 l 422 856 l 485 893 q 407 740 443 817 q 342 581 371 663 q 290 408 313 499 q 254 215 268 317 q 236 -6 240 113 m 425 1301 q 440 1301 432 1301 q 455 1301 447 1301 q 469 1301 463 1301 q 517 1296 494 1301 q 579 1265 540 1290 q 626 1233 601 1251 q 675 1192 651 1214 q 720 1143 699 1169 q 761 1086 742 1117 q 726 1075 743 1079 q 686 1071 710 1071 q 649 1078 663 1071 q 619 1104 636 1086 q 546 1169 586 1140 q 433 1231 506 1199 l 513 1214 q 467 1214 490 1214 q 421 1214 444 1214 l 499 1232 q 367 1150 418 1192 q 288 1069 315 1108 l 279 1069 q 228 1073 247 1069 q 200 1084 208 1076 q 192 1100 192 1092 q 200 1125 192 1108 q 229 1165 208 1142 q 270 1206 249 1186 q 317 1243 292 1225 q 369 1276 342 1261 q 425 1301 396 1290 m 771 1492 q 799 1490 786 1492 q 825 1487 813 1489 q 849 1482 838 1485 q 870 1461 867 1476 q 865 1422 874 1446 q 842 1376 856 1399 q 812 1335 829 1354 q 774 1299 794 1317 q 740 1279 756 1286 q 704 1272 724 1272 q 681 1274 692 1272 q 658 1281 669 1276 q 635 1290 647 1285 q 694 1348 668 1317 q 740 1415 721 1379 q 771 1492 760 1451 z "},"Ầ":{"ha":903,"x_min":56,"x_max":831,"o":"m 56 386 l 535 386 q 596 381 572 386 q 639 363 619 375 l 692 374 l 692 321 l 692 265 l 110 265 q 76 277 89 265 q 60 311 64 289 q 56 364 56 333 l 56 386 m 236 -6 q 208 -11 222 -8 q 179 -14 194 -14 q 140 -8 158 -14 q 112 10 122 -3 q 101 43 101 22 q 114 199 104 122 q 138 347 124 275 q 172 489 153 419 q 215 624 192 558 q 268 751 239 689 q 330 869 297 813 q 397 979 363 926 q 425 985 410 983 q 461 986 440 986 q 524 975 497 986 q 574 933 550 964 q 626 840 599 901 q 683 707 654 782 q 739 544 713 632 q 787 359 765 457 q 819 158 808 261 q 827 75 824 118 q 831 -6 831 32 q 807 -12 819 -10 q 781 -14 794 -14 q 736 -7 754 -14 q 708 13 718 0 q 694 46 697 26 q 672 231 686 140 q 637 409 657 322 q 590 579 617 496 q 528 741 563 663 q 453 893 494 819 l 514 856 l 422 856 l 485 893 q 407 740 443 817 q 342 581 371 663 q 290 408 313 499 q 254 215 268 317 q 236 -6 240 113 m 425 1301 q 440 1301 432 1301 q 455 1301 447 1301 q 469 1301 463 1301 q 517 1296 494 1301 q 579 1265 540 1290 q 626 1233 601 1251 q 675 1192 651 1214 q 720 1143 699 1169 q 761 1086 742 1117 q 726 1075 743 1079 q 686 1071 710 1071 q 649 1078 663 1071 q 619 1104 636 1086 q 546 1169 586 1140 q 433 1231 506 1199 l 513 1214 q 467 1214 490 1214 q 421 1214 444 1214 l 499 1232 q 367 1150 418 1192 q 288 1069 315 1108 l 279 1069 q 228 1073 247 1069 q 200 1084 208 1076 q 192 1100 192 1092 q 200 1125 192 1108 q 229 1165 208 1142 q 270 1206 249 1186 q 317 1243 292 1225 q 369 1276 342 1261 q 425 1301 396 1290 m 629 1490 q 660 1415 640 1451 q 706 1348 679 1379 q 765 1290 732 1317 q 742 1281 753 1285 q 720 1274 731 1276 q 697 1272 710 1272 q 660 1279 678 1272 q 625 1299 643 1286 q 588 1335 606 1317 q 556 1376 569 1354 q 535 1422 543 1399 q 531 1461 525 1446 q 556 1482 536 1476 q 576 1487 565 1485 q 601 1490 588 1489 q 629 1490 614 1490 z "},"Ẩ":{"ha":903,"x_min":56,"x_max":858,"o":"m 56 386 l 535 386 q 596 381 572 386 q 639 363 619 375 l 692 374 l 692 321 l 692 265 l 110 265 q 76 277 89 265 q 60 311 64 289 q 56 364 56 333 l 56 386 m 236 -6 q 208 -11 222 -8 q 179 -14 194 -14 q 140 -8 158 -14 q 112 10 122 -3 q 101 43 101 22 q 114 199 104 122 q 138 347 124 275 q 172 489 153 419 q 215 624 192 558 q 268 751 239 689 q 330 869 297 813 q 397 979 363 926 q 425 985 410 983 q 461 986 440 986 q 524 975 497 986 q 574 933 550 964 q 626 840 599 901 q 683 707 654 782 q 739 544 713 632 q 787 359 765 457 q 819 158 808 261 q 827 75 824 118 q 831 -6 831 32 q 807 -12 819 -10 q 781 -14 794 -14 q 736 -7 754 -14 q 708 13 718 0 q 694 46 697 26 q 672 231 686 140 q 637 409 657 322 q 590 579 617 496 q 528 741 563 663 q 453 893 494 819 l 514 856 l 422 856 l 485 893 q 407 740 443 817 q 342 581 371 663 q 290 408 313 499 q 254 215 268 317 q 236 -6 240 113 m 425 1301 q 440 1301 432 1301 q 455 1301 447 1301 q 469 1301 463 1301 q 517 1296 494 1301 q 579 1265 540 1290 q 626 1233 601 1251 q 675 1192 651 1214 q 720 1143 699 1169 q 761 1086 742 1117 q 726 1075 743 1079 q 686 1071 710 1071 q 649 1078 663 1071 q 619 1104 636 1086 q 546 1169 586 1140 q 433 1231 506 1199 l 513 1214 q 467 1214 490 1214 q 421 1214 444 1214 l 499 1232 q 367 1150 418 1192 q 288 1069 315 1108 l 279 1069 q 228 1073 247 1069 q 200 1084 208 1076 q 192 1100 192 1092 q 200 1125 192 1108 q 229 1165 208 1142 q 270 1206 249 1186 q 317 1243 292 1225 q 369 1276 342 1261 q 425 1301 396 1290 m 631 1299 q 647 1335 631 1318 q 704 1367 663 1351 q 758 1390 743 1381 q 772 1414 772 1400 q 772 1422 772 1418 q 771 1429 772 1425 q 744 1436 758 1435 q 711 1438 729 1438 q 630 1426 664 1438 q 568 1388 596 1414 l 560 1388 q 551 1409 554 1399 q 549 1435 549 1419 q 555 1469 549 1454 q 575 1497 561 1485 q 596 1512 585 1506 q 622 1523 607 1518 q 657 1530 638 1528 q 700 1532 676 1532 q 789 1517 754 1532 q 841 1478 824 1503 q 858 1421 858 1453 l 858 1418 q 843 1371 858 1389 q 793 1333 828 1353 q 745 1300 756 1313 q 732 1269 735 1288 q 718 1266 726 1268 q 701 1263 710 1264 q 685 1263 693 1263 q 644 1273 657 1263 q 631 1299 631 1283 z "},"Ẫ":{"ha":903,"x_min":56,"x_max":831,"o":"m 56 386 l 535 386 q 596 381 572 386 q 639 363 619 375 l 692 374 l 692 321 l 692 265 l 110 265 q 76 277 89 265 q 60 311 64 289 q 56 364 56 333 l 56 386 m 236 -6 q 208 -11 222 -8 q 179 -14 194 -14 q 140 -8 158 -14 q 112 10 122 -3 q 101 43 101 22 q 114 199 104 122 q 138 347 124 275 q 172 489 153 419 q 215 624 192 558 q 268 751 239 689 q 330 869 297 813 q 397 979 363 926 q 425 985 410 983 q 461 986 440 986 q 524 975 497 986 q 574 933 550 964 q 626 840 599 901 q 683 707 654 782 q 739 544 713 632 q 787 359 765 457 q 819 158 808 261 q 827 75 824 118 q 831 -6 831 32 q 807 -12 819 -10 q 781 -14 794 -14 q 736 -7 754 -14 q 708 13 718 0 q 694 46 697 26 q 672 231 686 140 q 637 409 657 322 q 590 579 617 496 q 528 741 563 663 q 453 893 494 819 l 514 856 l 422 856 l 485 893 q 407 740 443 817 q 342 581 371 663 q 290 408 313 499 q 254 215 268 317 q 236 -6 240 113 m 425 1301 q 440 1301 432 1301 q 455 1301 447 1301 q 469 1301 463 1301 q 517 1296 494 1301 q 579 1265 540 1290 q 626 1233 601 1251 q 675 1192 651 1214 q 720 1143 699 1169 q 761 1086 742 1117 q 726 1075 743 1079 q 686 1071 710 1071 q 649 1078 663 1071 q 619 1104 636 1086 q 546 1169 586 1140 q 433 1231 506 1199 l 513 1214 q 467 1214 490 1214 q 421 1214 444 1214 l 499 1232 q 367 1150 418 1192 q 288 1069 315 1108 l 279 1069 q 228 1073 247 1069 q 200 1084 208 1076 q 192 1100 192 1092 q 200 1125 192 1108 q 229 1165 208 1142 q 270 1206 249 1186 q 317 1243 292 1225 q 369 1276 342 1261 q 425 1301 396 1290 m 578 1438 q 623 1451 606 1438 q 656 1503 640 1464 l 664 1503 q 674 1477 671 1492 q 678 1446 678 1463 q 674 1410 678 1426 q 665 1381 671 1393 q 635 1345 656 1358 q 586 1332 615 1332 q 517 1347 547 1332 q 460 1380 486 1361 q 408 1413 435 1399 q 351 1428 382 1428 q 305 1412 321 1428 q 271 1364 289 1396 l 263 1364 q 253 1387 257 1374 q 250 1417 250 1400 q 253 1453 250 1438 q 264 1485 257 1469 q 296 1522 274 1508 q 351 1535 318 1535 q 413 1519 385 1535 q 466 1485 440 1504 q 519 1452 492 1467 q 578 1438 546 1438 z "},"Ậ":{"ha":903,"x_min":56,"x_max":831,"o":"m 357 -125 q 373 -122 364 -124 q 390 -120 382 -121 q 408 -119 399 -119 q 426 -119 418 -119 q 501 -133 472 -119 q 531 -183 531 -146 l 531 -274 q 513 -276 522 -275 q 496 -278 504 -278 q 478 -279 488 -279 q 461 -279 469 -279 q 386 -265 415 -279 q 357 -215 357 -251 l 357 -125 m 56 386 l 535 386 q 596 381 572 386 q 639 363 619 375 l 692 374 l 692 321 l 692 265 l 110 265 q 76 277 89 265 q 60 311 64 289 q 56 364 56 333 l 56 386 m 236 -6 q 208 -11 222 -8 q 179 -14 194 -14 q 140 -8 158 -14 q 112 10 122 -3 q 101 43 101 22 q 114 199 104 122 q 138 347 124 275 q 172 489 153 419 q 215 624 192 558 q 268 751 239 689 q 330 869 297 813 q 397 979 363 926 q 425 985 410 983 q 461 986 440 986 q 524 975 497 986 q 574 933 550 964 q 626 840 599 901 q 683 707 654 782 q 739 544 713 632 q 787 359 765 457 q 819 158 808 261 q 827 75 824 118 q 831 -6 831 32 q 807 -12 819 -10 q 781 -14 794 -14 q 736 -7 754 -14 q 708 13 718 0 q 694 46 697 26 q 672 231 686 140 q 637 409 657 322 q 590 579 617 496 q 528 741 563 663 q 453 893 494 819 l 514 856 l 422 856 l 485 893 q 407 740 443 817 q 342 581 371 663 q 290 408 313 499 q 254 215 268 317 q 236 -6 240 113 m 424 1303 q 440 1303 432 1303 q 454 1303 447 1303 q 468 1303 461 1303 q 517 1297 494 1303 q 578 1267 540 1290 q 626 1233 601 1251 q 674 1192 650 1214 q 720 1143 699 1169 q 760 1086 742 1117 q 726 1076 743 1079 q 685 1072 708 1072 q 649 1080 663 1072 q 618 1106 635 1088 q 546 1169 586 1140 q 433 1232 506 1199 l 513 1214 q 467 1214 490 1214 q 419 1214 443 1214 l 499 1233 q 367 1151 418 1193 q 288 1069 315 1108 l 279 1069 q 227 1074 246 1069 q 199 1085 208 1078 q 190 1100 190 1092 q 199 1126 190 1108 q 229 1165 208 1143 q 269 1206 247 1186 q 317 1244 292 1226 q 369 1276 342 1261 q 424 1303 396 1292 z "},"Ắ":{"ha":903,"x_min":56,"x_max":831,"o":"m 56 386 l 535 386 q 596 381 572 386 q 639 363 619 375 l 692 374 l 692 321 l 692 265 l 110 265 q 76 277 89 265 q 60 311 64 289 q 56 364 56 333 l 56 386 m 236 -6 q 208 -11 222 -8 q 179 -14 194 -14 q 140 -8 158 -14 q 112 10 122 -3 q 101 43 101 22 q 114 199 104 122 q 138 347 124 275 q 172 489 153 419 q 215 624 192 558 q 268 751 239 689 q 330 869 297 813 q 397 979 363 926 q 425 985 410 983 q 461 986 440 986 q 524 975 497 986 q 574 933 550 964 q 626 840 599 901 q 683 707 654 782 q 739 544 713 632 q 787 359 765 457 q 819 158 808 261 q 827 75 824 118 q 831 -6 831 32 q 807 -12 819 -10 q 781 -14 794 -14 q 736 -7 754 -14 q 708 13 718 0 q 694 46 697 26 q 672 231 686 140 q 637 409 657 322 q 590 579 617 496 q 528 741 563 663 q 453 893 494 819 l 514 856 l 422 856 l 485 893 q 407 740 443 817 q 342 581 371 663 q 290 408 313 499 q 254 215 268 317 q 236 -6 240 113 m 631 1304 q 672 1299 654 1304 q 703 1286 689 1294 q 713 1270 711 1279 q 710 1249 715 1261 q 663 1169 694 1203 q 583 1118 631 1136 q 472 1100 536 1100 l 461 1100 q 351 1118 399 1100 q 271 1169 303 1136 q 224 1249 239 1203 q 220 1270 218 1261 q 231 1286 222 1279 q 262 1299 244 1294 q 303 1304 279 1304 q 361 1228 324 1254 q 467 1197 399 1203 q 572 1228 535 1203 q 631 1304 610 1254 m 538 1532 q 566 1531 553 1532 q 592 1527 579 1529 q 615 1522 604 1525 q 637 1501 633 1517 q 632 1463 640 1486 q 609 1417 622 1439 q 578 1376 596 1394 q 540 1339 561 1357 q 506 1319 522 1326 q 471 1313 490 1313 q 447 1315 458 1313 q 425 1321 436 1317 q 401 1331 414 1325 q 461 1388 435 1357 q 507 1456 488 1419 q 538 1532 526 1492 z "},"Ằ":{"ha":903,"x_min":56,"x_max":831,"o":"m 56 386 l 535 386 q 596 381 572 386 q 639 363 619 375 l 692 374 l 692 321 l 692 265 l 110 265 q 76 277 89 265 q 60 311 64 289 q 56 364 56 333 l 56 386 m 236 -6 q 208 -11 222 -8 q 179 -14 194 -14 q 140 -8 158 -14 q 112 10 122 -3 q 101 43 101 22 q 114 199 104 122 q 138 347 124 275 q 172 489 153 419 q 215 624 192 558 q 268 751 239 689 q 330 869 297 813 q 397 979 363 926 q 425 985 410 983 q 461 986 440 986 q 524 975 497 986 q 574 933 550 964 q 626 840 599 901 q 683 707 654 782 q 739 544 713 632 q 787 359 765 457 q 819 158 808 261 q 827 75 824 118 q 831 -6 831 32 q 807 -12 819 -10 q 781 -14 794 -14 q 736 -7 754 -14 q 708 13 718 0 q 694 46 697 26 q 672 231 686 140 q 637 409 657 322 q 590 579 617 496 q 528 741 563 663 q 453 893 494 819 l 514 856 l 422 856 l 485 893 q 407 740 443 817 q 342 581 371 663 q 290 408 313 499 q 254 215 268 317 q 236 -6 240 113 m 631 1304 q 672 1299 654 1304 q 703 1286 689 1294 q 713 1270 711 1279 q 710 1249 715 1261 q 663 1169 694 1203 q 583 1118 631 1136 q 472 1100 536 1100 l 461 1100 q 351 1118 399 1100 q 271 1169 303 1136 q 224 1249 239 1203 q 220 1270 218 1261 q 231 1286 222 1279 q 262 1299 244 1294 q 303 1304 279 1304 q 361 1228 324 1254 q 467 1197 399 1203 q 572 1228 535 1203 q 631 1304 610 1254 m 396 1531 q 426 1456 407 1492 q 472 1388 446 1419 q 532 1331 499 1357 q 508 1321 519 1325 q 487 1315 497 1317 q 464 1313 476 1313 q 427 1319 444 1313 q 392 1339 410 1326 q 354 1376 372 1357 q 323 1417 336 1394 q 301 1463 310 1439 q 297 1501 292 1486 q 322 1522 303 1517 q 343 1527 332 1525 q 367 1530 354 1529 q 396 1531 381 1531 z "},"Ẳ":{"ha":903,"x_min":56,"x_max":831,"o":"m 56 386 l 535 386 q 596 381 572 386 q 639 363 619 375 l 692 374 l 692 321 l 692 265 l 110 265 q 76 277 89 265 q 60 311 64 289 q 56 364 56 333 l 56 386 m 236 -6 q 208 -11 222 -8 q 179 -14 194 -14 q 140 -8 158 -14 q 112 10 122 -3 q 101 43 101 22 q 114 199 104 122 q 138 347 124 275 q 172 489 153 419 q 215 624 192 558 q 268 751 239 689 q 330 869 297 813 q 397 979 363 926 q 425 985 410 983 q 461 986 440 986 q 524 975 497 986 q 574 933 550 964 q 626 840 599 901 q 683 707 654 782 q 739 544 713 632 q 787 359 765 457 q 819 158 808 261 q 827 75 824 118 q 831 -6 831 32 q 807 -12 819 -10 q 781 -14 794 -14 q 736 -7 754 -14 q 708 13 718 0 q 694 46 697 26 q 672 231 686 140 q 637 409 657 322 q 590 579 617 496 q 528 741 563 663 q 453 893 494 819 l 514 856 l 422 856 l 485 893 q 407 740 443 817 q 342 581 371 663 q 290 408 313 499 q 254 215 268 317 q 236 -6 240 113 m 631 1304 q 672 1299 654 1304 q 703 1286 689 1294 q 713 1270 711 1279 q 710 1249 715 1261 q 663 1169 694 1203 q 583 1118 631 1136 q 472 1100 536 1100 l 461 1100 q 351 1118 399 1100 q 271 1169 303 1136 q 224 1249 239 1203 q 220 1270 218 1261 q 231 1286 222 1279 q 262 1299 244 1294 q 303 1304 279 1304 q 361 1228 324 1254 q 467 1197 399 1203 q 572 1228 535 1203 q 631 1304 610 1254 m 397 1333 q 413 1369 397 1353 q 471 1401 429 1386 q 524 1425 510 1415 q 539 1449 539 1435 q 539 1456 539 1453 q 538 1464 539 1460 q 510 1471 525 1469 q 478 1472 496 1472 q 397 1460 431 1472 q 335 1422 363 1449 l 326 1422 q 318 1444 321 1433 q 315 1469 315 1454 q 322 1504 315 1489 q 342 1532 328 1519 q 363 1547 351 1540 q 389 1558 374 1553 q 424 1565 404 1563 q 467 1567 443 1567 q 556 1552 521 1567 q 608 1513 590 1538 q 625 1456 625 1488 l 625 1453 q 610 1406 625 1424 q 560 1368 594 1388 q 512 1335 522 1347 q 499 1304 501 1322 q 485 1301 493 1303 q 468 1298 476 1299 q 451 1297 460 1297 q 410 1308 424 1297 q 397 1333 397 1318 z "},"Ẵ":{"ha":903,"x_min":56,"x_max":831,"o":"m 56 386 l 535 386 q 596 381 572 386 q 639 363 619 375 l 692 374 l 692 321 l 692 265 l 110 265 q 76 277 89 265 q 60 311 64 289 q 56 364 56 333 l 56 386 m 236 -6 q 208 -11 222 -8 q 179 -14 194 -14 q 140 -8 158 -14 q 112 10 122 -3 q 101 43 101 22 q 114 199 104 122 q 138 347 124 275 q 172 489 153 419 q 215 624 192 558 q 268 751 239 689 q 330 869 297 813 q 397 979 363 926 q 425 985 410 983 q 461 986 440 986 q 524 975 497 986 q 574 933 550 964 q 626 840 599 901 q 683 707 654 782 q 739 544 713 632 q 787 359 765 457 q 819 158 808 261 q 827 75 824 118 q 831 -6 831 32 q 807 -12 819 -10 q 781 -14 794 -14 q 736 -7 754 -14 q 708 13 718 0 q 694 46 697 26 q 672 231 686 140 q 637 409 657 322 q 590 579 617 496 q 528 741 563 663 q 453 893 494 819 l 514 856 l 422 856 l 485 893 q 407 740 443 817 q 342 581 371 663 q 290 408 313 499 q 254 215 268 317 q 236 -6 240 113 m 631 1304 q 672 1299 654 1304 q 703 1286 689 1294 q 713 1270 711 1279 q 710 1249 715 1261 q 663 1169 694 1203 q 583 1118 631 1136 q 472 1100 536 1100 l 461 1100 q 351 1118 399 1100 q 271 1169 303 1136 q 224 1249 239 1203 q 220 1270 218 1261 q 231 1286 222 1279 q 262 1299 244 1294 q 303 1304 279 1304 q 361 1228 324 1254 q 467 1197 399 1203 q 572 1228 535 1203 q 631 1304 610 1254 m 578 1444 q 623 1458 606 1444 q 656 1510 640 1471 l 664 1510 q 674 1484 671 1499 q 678 1453 678 1469 q 674 1417 678 1433 q 665 1388 671 1400 q 635 1352 656 1365 q 586 1339 615 1339 q 517 1353 547 1339 q 460 1387 486 1368 q 408 1420 435 1406 q 351 1435 382 1435 q 305 1419 321 1435 q 271 1371 289 1403 l 263 1371 q 253 1394 257 1381 q 250 1424 250 1407 q 253 1460 250 1444 q 264 1492 257 1476 q 296 1528 274 1515 q 351 1542 318 1542 q 413 1526 385 1542 q 466 1492 440 1511 q 519 1459 492 1474 q 578 1444 546 1444 z "},"Ặ":{"ha":903,"x_min":56,"x_max":831,"o":"m 357 -125 q 373 -122 364 -124 q 390 -120 382 -121 q 408 -119 399 -119 q 426 -119 418 -119 q 501 -133 472 -119 q 531 -183 531 -146 l 531 -274 q 513 -276 522 -275 q 496 -278 504 -278 q 478 -279 488 -279 q 461 -279 469 -279 q 386 -265 415 -279 q 357 -215 357 -251 l 357 -125 m 56 386 l 535 386 q 596 381 572 386 q 639 363 619 375 l 692 374 l 692 321 l 692 265 l 110 265 q 76 277 89 265 q 60 311 64 289 q 56 364 56 333 l 56 386 m 236 -6 q 208 -11 222 -8 q 179 -14 194 -14 q 140 -8 158 -14 q 112 10 122 -3 q 101 43 101 22 q 114 199 104 122 q 138 347 124 275 q 172 489 153 419 q 215 624 192 558 q 268 751 239 689 q 330 869 297 813 q 397 979 363 926 q 425 985 410 983 q 461 986 440 986 q 524 975 497 986 q 574 933 550 964 q 626 840 599 901 q 683 707 654 782 q 739 544 713 632 q 787 359 765 457 q 819 158 808 261 q 827 75 824 118 q 831 -6 831 32 q 807 -12 819 -10 q 781 -14 794 -14 q 736 -7 754 -14 q 708 13 718 0 q 694 46 697 26 q 672 231 686 140 q 637 409 657 322 q 590 579 617 496 q 528 741 563 663 q 453 893 494 819 l 514 856 l 422 856 l 485 893 q 407 740 443 817 q 342 581 371 663 q 290 408 313 499 q 254 215 268 317 q 236 -6 240 113 m 631 1306 q 672 1300 654 1304 q 703 1286 689 1296 q 713 1272 711 1281 q 710 1250 714 1263 q 663 1169 694 1203 q 583 1119 631 1136 q 472 1101 536 1101 l 461 1101 q 350 1119 399 1101 q 270 1169 301 1136 q 222 1250 239 1203 q 220 1272 218 1263 q 231 1286 222 1281 q 261 1300 244 1296 q 301 1306 278 1304 q 361 1229 324 1254 q 467 1199 399 1204 q 572 1229 535 1204 q 631 1306 610 1254 z "},"B":{"ha":833,"x_min":49,"x_max":738,"o":"m 382 -14 q 297 -8 335 -14 q 231 8 258 -3 q 183 30 203 18 q 153 53 164 42 q 132 84 139 68 q 125 121 125 100 q 125 314 125 218 q 125 506 125 410 q 125 699 125 601 q 125 897 125 797 l 242 897 l 225 854 q 250 810 243 836 q 257 747 257 783 q 257 595 257 671 q 257 442 257 519 q 257 287 257 365 q 257 128 257 208 q 288 117 271 122 q 326 110 304 113 q 379 108 347 108 q 493 124 442 108 q 574 176 544 140 q 604 271 604 213 l 604 286 q 582 354 604 324 q 515 406 560 385 q 399 439 469 428 l 272 439 l 272 469 l 586 467 l 586 444 q 692 380 654 425 q 731 275 731 335 l 731 254 q 684 106 731 167 q 559 16 638 46 q 382 -14 481 -14 m 53 972 q 243 994 154 989 q 411 1000 332 1000 q 554 978 493 1000 q 657 919 615 957 q 718 832 699 881 q 738 728 738 783 l 738 707 q 706 574 738 632 q 619 475 675 515 q 492 414 564 435 q 339 393 421 393 q 297 399 315 393 q 265 417 278 404 l 235 411 l 235 514 q 272 500 254 504 q 319 496 289 496 q 476 521 411 496 q 576 594 540 546 q 611 710 611 642 l 611 724 q 603 790 611 761 q 579 840 596 818 q 496 866 540 858 q 393 874 451 874 q 257 867 319 874 q 153 853 194 860 q 97 846 111 846 q 60 867 71 846 q 49 931 49 888 q 50 953 49 943 q 53 972 51 963 z "},"C":{"ha":833,"x_min":101,"x_max":747,"o":"m 460 -28 q 308 2 375 -28 q 196 85 242 32 q 126 209 150 139 q 101 361 101 279 l 101 397 q 131 639 101 529 q 216 830 161 749 q 347 956 271 911 q 514 1000 422 1000 q 576 993 549 1000 q 626 973 604 986 q 667 940 649 960 q 701 894 689 919 q 720 840 714 869 q 726 778 726 811 q 726 678 726 728 q 726 582 726 629 q 706 576 718 579 q 678 574 693 574 q 615 589 636 574 q 594 636 594 604 q 596 742 594 699 q 595 823 597 785 q 583 904 593 861 l 619 846 q 565 873 590 867 q 518 879 540 879 q 376 815 440 879 q 274 641 311 751 q 236 389 236 531 l 236 360 q 238 289 236 319 q 246 226 240 258 q 333 135 281 171 q 467 99 385 99 q 619 133 554 99 q 731 235 685 168 l 739 235 q 743 220 742 228 q 745 205 744 213 q 747 190 746 197 q 747 175 747 182 q 734 103 747 132 q 700 53 721 74 q 639 8 674 26 q 560 -19 604 -10 q 460 -28 515 -28 z "},"Ç":{"ha":833,"x_min":101,"x_max":747,"o":"m 460 -28 q 308 2 375 -28 q 196 85 242 32 q 126 209 150 139 q 101 361 101 279 l 101 397 q 131 639 101 529 q 216 830 161 749 q 347 956 271 911 q 514 1000 422 1000 q 576 993 549 1000 q 626 973 604 986 q 667 940 649 960 q 701 894 689 919 q 720 840 714 869 q 726 778 726 811 q 726 678 726 728 q 726 582 726 629 q 706 576 718 579 q 678 574 693 574 q 615 589 636 574 q 594 636 594 604 q 596 742 594 699 q 595 823 597 785 q 583 904 593 861 l 619 846 q 565 873 590 867 q 518 879 540 879 q 376 815 440 879 q 274 641 311 751 q 236 389 236 531 l 236 360 q 238 289 236 319 q 246 226 240 258 q 333 135 281 171 q 467 99 385 99 q 619 133 554 99 q 731 235 685 168 l 739 235 q 743 220 742 228 q 745 205 744 213 q 747 190 746 197 q 747 175 747 182 q 734 103 747 132 q 700 53 721 74 q 639 8 674 26 q 560 -19 604 -10 q 460 -28 515 -28 m 603 -182 q 553 -292 603 -251 q 415 -332 503 -332 q 342 -321 369 -332 q 303 -291 315 -310 q 290 -250 290 -272 q 292 -231 290 -240 q 295 -212 293 -222 q 301 -193 297 -203 l 310 -193 q 351 -222 329 -212 q 410 -231 372 -231 q 471 -215 449 -231 q 493 -168 493 -199 q 475 -131 493 -144 q 421 -118 457 -118 q 401 -112 408 -118 q 393 -96 393 -106 q 394 -69 393 -83 q 399 -40 396 -54 q 406 -12 401 -25 q 417 11 411 1 q 429 22 421 18 q 453 28 438 26 q 494 29 468 31 q 489 9 492 21 q 485 -15 486 -3 q 481 -37 483 -26 q 478 -57 479 -49 l 478 -65 q 568 -99 533 -69 q 603 -182 603 -129 z "},"Ć":{"ha":833,"x_min":101,"x_max":747,"o":"m 460 -28 q 308 2 375 -28 q 196 85 242 32 q 126 209 150 139 q 101 361 101 279 l 101 397 q 131 639 101 529 q 216 830 161 749 q 347 956 271 911 q 514 1000 422 1000 q 576 993 549 1000 q 626 973 604 986 q 667 940 649 960 q 701 894 689 919 q 720 840 714 869 q 726 778 726 811 q 726 678 726 728 q 726 582 726 629 q 706 576 718 579 q 678 574 693 574 q 615 589 636 574 q 594 636 594 604 q 596 742 594 699 q 595 823 597 785 q 583 904 593 861 l 619 846 q 565 873 590 867 q 518 879 540 879 q 376 815 440 879 q 274 641 311 751 q 236 389 236 531 l 236 360 q 238 289 236 319 q 246 226 240 258 q 333 135 281 171 q 467 99 385 99 q 619 133 554 99 q 731 235 685 168 l 739 235 q 743 220 742 228 q 745 205 744 213 q 747 190 746 197 q 747 175 747 182 q 734 103 747 132 q 700 53 721 74 q 639 8 674 26 q 560 -19 604 -10 q 460 -28 515 -28 m 561 1290 q 599 1289 582 1290 q 631 1285 617 1288 q 658 1278 644 1282 q 678 1258 675 1271 q 676 1231 682 1246 q 656 1189 668 1208 q 626 1151 643 1169 q 588 1118 608 1133 q 544 1090 568 1103 q 508 1075 526 1079 q 467 1071 489 1071 q 442 1073 454 1071 q 417 1079 429 1075 q 392 1090 404 1083 q 469 1152 435 1121 q 526 1217 503 1183 q 561 1290 550 1251 z "},"Ĉ":{"ha":833,"x_min":101,"x_max":758,"o":"m 460 -28 q 308 2 375 -28 q 196 85 242 32 q 126 209 150 139 q 101 361 101 279 l 101 397 q 131 639 101 529 q 216 830 161 749 q 347 956 271 911 q 514 1000 422 1000 q 576 993 549 1000 q 626 973 604 986 q 667 940 649 960 q 701 894 689 919 q 720 840 714 869 q 726 778 726 811 q 726 678 726 728 q 726 582 726 629 q 706 576 718 579 q 678 574 693 574 q 615 589 636 574 q 594 636 594 604 q 596 742 594 699 q 595 823 597 785 q 583 904 593 861 l 619 846 q 565 873 590 867 q 518 879 540 879 q 376 815 440 879 q 274 641 311 751 q 236 389 236 531 l 236 360 q 238 289 236 319 q 246 226 240 258 q 333 135 281 171 q 467 99 385 99 q 619 133 554 99 q 731 235 685 168 l 739 235 q 743 220 742 228 q 745 205 744 213 q 747 190 746 197 q 747 175 747 182 q 734 103 747 132 q 700 53 721 74 q 639 8 674 26 q 560 -19 604 -10 q 460 -28 515 -28 m 422 1303 q 437 1303 429 1303 q 452 1303 444 1303 q 467 1303 460 1303 q 515 1297 492 1303 q 576 1267 538 1292 q 624 1234 599 1253 q 672 1193 649 1215 q 717 1144 696 1171 q 758 1088 739 1118 q 724 1076 740 1081 q 683 1072 707 1072 q 647 1080 660 1072 q 617 1106 633 1088 q 543 1171 583 1142 q 431 1232 503 1200 l 510 1215 q 465 1215 488 1215 q 418 1215 442 1215 l 496 1233 q 364 1151 415 1193 q 285 1071 313 1110 l 276 1071 q 225 1074 244 1071 q 197 1085 206 1078 q 189 1101 189 1093 q 197 1126 189 1110 q 226 1167 206 1143 q 267 1207 246 1188 q 314 1244 289 1226 q 366 1277 339 1263 q 422 1303 393 1292 z "},"Ċ":{"ha":833,"x_min":101,"x_max":747,"o":"m 371 1251 q 389 1257 379 1254 q 409 1261 399 1260 q 431 1263 419 1263 q 453 1264 443 1264 q 528 1248 500 1264 q 557 1194 557 1232 l 557 1110 q 540 1105 549 1107 q 522 1101 531 1103 q 502 1099 513 1099 q 481 1099 492 1099 q 401 1120 432 1099 q 371 1178 371 1142 l 371 1251 m 460 -28 q 308 2 375 -28 q 196 85 242 32 q 126 209 150 139 q 101 361 101 279 l 101 397 q 131 639 101 529 q 216 830 161 749 q 347 956 271 911 q 514 1000 422 1000 q 576 993 549 1000 q 626 973 604 986 q 667 940 649 960 q 701 894 689 919 q 720 840 714 869 q 726 778 726 811 q 726 678 726 728 q 726 582 726 629 q 706 576 718 579 q 678 574 693 574 q 615 589 636 574 q 594 636 594 604 q 596 742 594 699 q 595 823 597 785 q 583 904 593 861 l 619 846 q 565 873 590 867 q 518 879 540 879 q 376 815 440 879 q 274 641 311 751 q 236 389 236 531 l 236 360 q 238 289 236 319 q 246 226 240 258 q 333 135 281 171 q 467 99 385 99 q 619 133 554 99 q 731 235 685 168 l 739 235 q 743 220 742 228 q 745 205 744 213 q 747 190 746 197 q 747 175 747 182 q 734 103 747 132 q 700 53 721 74 q 639 8 674 26 q 560 -19 604 -10 q 460 -28 515 -28 z "},"Č":{"ha":833,"x_min":101,"x_max":747,"o":"m 460 -28 q 308 2 375 -28 q 196 85 242 32 q 126 209 150 139 q 101 361 101 279 l 101 397 q 131 639 101 529 q 216 830 161 749 q 347 956 271 911 q 514 1000 422 1000 q 576 993 549 1000 q 626 973 604 986 q 667 940 649 960 q 701 894 689 919 q 720 840 714 869 q 726 778 726 811 q 726 678 726 728 q 726 582 726 629 q 706 576 718 579 q 678 574 693 574 q 615 589 636 574 q 594 636 594 604 q 596 742 594 699 q 595 823 597 785 q 583 904 593 861 l 619 846 q 565 873 590 867 q 518 879 540 879 q 376 815 440 879 q 274 641 311 751 q 236 389 236 531 l 236 360 q 238 289 236 319 q 246 226 240 258 q 333 135 281 171 q 467 99 385 99 q 619 133 554 99 q 731 235 685 168 l 739 235 q 743 220 742 228 q 745 205 744 213 q 747 190 746 197 q 747 175 747 182 q 734 103 747 132 q 700 53 721 74 q 639 8 674 26 q 560 -19 604 -10 q 460 -28 515 -28 m 507 1089 q 494 1089 501 1089 q 478 1089 486 1089 q 463 1089 471 1089 q 415 1095 438 1089 q 353 1125 392 1101 q 306 1159 331 1140 q 257 1199 281 1178 q 212 1248 233 1221 q 171 1306 190 1275 q 206 1317 189 1314 q 246 1319 222 1319 q 283 1312 269 1319 q 313 1286 297 1304 q 386 1222 346 1251 q 499 1160 426 1192 l 419 1178 q 466 1178 443 1178 q 511 1178 489 1178 l 433 1158 q 565 1240 514 1199 q 644 1322 617 1282 l 653 1322 q 705 1318 686 1322 q 732 1307 724 1314 q 740 1292 740 1300 q 733 1266 740 1283 q 703 1226 725 1249 q 662 1185 683 1204 q 615 1148 640 1165 q 563 1116 590 1131 q 507 1089 536 1101 z "},"Ḉ":{"ha":833,"x_min":101,"x_max":747,"o":"m 460 -28 q 308 2 375 -28 q 196 85 242 32 q 126 209 150 139 q 101 361 101 279 l 101 397 q 131 639 101 529 q 216 830 161 749 q 347 956 271 911 q 514 1000 422 1000 q 576 993 549 1000 q 626 973 604 986 q 667 940 649 960 q 701 894 689 919 q 720 840 714 869 q 726 778 726 811 q 726 678 726 728 q 726 582 726 629 q 706 576 718 579 q 678 574 693 574 q 615 589 636 574 q 594 636 594 604 q 596 742 594 699 q 595 823 597 785 q 583 904 593 861 l 619 846 q 565 873 590 867 q 518 879 540 879 q 376 815 440 879 q 274 641 311 751 q 236 389 236 531 l 236 360 q 238 289 236 319 q 246 226 240 258 q 333 135 281 171 q 467 99 385 99 q 619 133 554 99 q 731 235 685 168 l 739 235 q 743 220 742 228 q 745 205 744 213 q 747 190 746 197 q 747 175 747 182 q 734 103 747 132 q 700 53 721 74 q 639 8 674 26 q 560 -19 604 -10 q 460 -28 515 -28 m 603 -182 q 553 -292 603 -251 q 415 -332 503 -332 q 342 -321 369 -332 q 303 -291 315 -310 q 290 -250 290 -272 q 292 -231 290 -240 q 295 -212 293 -222 q 301 -193 297 -203 l 310 -193 q 351 -222 329 -212 q 410 -231 372 -231 q 471 -215 449 -231 q 493 -168 493 -199 q 475 -131 493 -144 q 421 -118 457 -118 q 401 -112 408 -118 q 393 -96 393 -106 q 394 -69 393 -83 q 399 -40 396 -54 q 406 -12 401 -25 q 417 11 411 1 q 429 22 421 18 q 453 28 438 26 q 494 29 468 31 q 489 9 492 21 q 485 -15 486 -3 q 481 -37 483 -26 q 478 -57 479 -49 l 478 -65 q 568 -99 533 -69 q 603 -182 603 -129 m 561 1290 q 599 1289 582 1290 q 631 1285 617 1288 q 658 1278 644 1282 q 678 1258 675 1271 q 676 1231 682 1246 q 656 1189 668 1208 q 626 1151 643 1169 q 588 1118 608 1133 q 544 1090 568 1103 q 508 1075 526 1079 q 467 1071 489 1071 q 442 1073 454 1071 q 417 1079 429 1075 q 392 1090 404 1083 q 469 1152 435 1121 q 526 1217 503 1183 q 561 1290 550 1251 z "},"D":{"ha":903,"x_min":53,"x_max":813,"o":"m 813 533 q 778 309 813 410 q 681 136 743 208 q 535 25 618 64 q 356 -14 451 -14 q 303 -12 328 -14 q 256 -6 278 -10 q 214 6 233 -1 q 178 22 194 13 q 151 42 163 31 q 130 71 135 58 q 125 106 125 83 q 125 301 125 203 q 125 499 125 400 q 125 697 125 599 q 125 896 125 796 l 240 896 l 222 854 q 249 814 242 838 q 257 758 257 790 q 257 604 257 683 q 257 446 257 525 q 257 287 257 367 q 257 126 257 207 q 281 121 267 124 q 312 117 296 118 q 342 117 328 117 q 514 166 438 117 q 636 309 590 215 q 682 536 682 403 l 682 550 q 677 662 682 614 q 661 747 672 710 q 631 814 650 783 q 569 848 603 835 q 496 867 536 861 q 404 874 456 874 q 292 869 343 874 q 201 860 240 865 q 135 850 161 854 q 100 846 110 846 q 72 856 83 846 q 57 884 61 865 q 53 931 53 903 q 53 953 53 943 q 56 972 54 963 q 153 986 106 981 q 246 994 200 992 q 334 999 292 997 q 415 1000 376 1000 q 587 975 513 1000 q 711 898 661 950 q 787 765 761 846 q 813 574 813 685 l 813 533 z "},"Ď":{"ha":903,"x_min":53,"x_max":813,"o":"m 475 1089 q 462 1089 469 1089 q 447 1089 454 1089 q 432 1089 439 1089 q 383 1094 406 1089 q 322 1125 360 1100 q 274 1158 299 1139 q 226 1199 250 1176 q 180 1247 201 1221 q 139 1304 158 1274 q 174 1316 157 1313 q 214 1319 190 1319 q 251 1312 238 1319 q 282 1286 265 1304 q 354 1221 314 1250 q 467 1158 394 1192 l 388 1176 q 434 1176 411 1176 q 481 1176 457 1176 l 401 1157 q 533 1240 482 1199 q 613 1321 585 1282 l 621 1321 q 673 1317 654 1321 q 701 1307 692 1314 q 710 1290 710 1300 q 701 1265 710 1282 q 671 1225 693 1249 q 630 1185 651 1204 q 583 1147 608 1165 q 531 1115 558 1129 q 475 1089 504 1100 m 813 533 q 778 309 813 410 q 681 136 743 208 q 535 25 618 64 q 356 -14 451 -14 q 303 -12 328 -14 q 256 -6 278 -10 q 214 6 233 -1 q 178 22 194 13 q 151 42 163 31 q 130 71 135 58 q 125 106 125 83 q 125 301 125 203 q 125 499 125 400 q 125 697 125 599 q 125 896 125 796 l 240 896 l 222 854 q 249 814 242 838 q 257 758 257 790 q 257 604 257 683 q 257 446 257 525 q 257 287 257 367 q 257 126 257 207 q 281 121 267 124 q 312 117 296 118 q 342 117 328 117 q 514 166 438 117 q 636 309 590 215 q 682 536 682 403 l 682 550 q 677 662 682 614 q 661 747 672 710 q 631 814 650 783 q 569 848 603 835 q 496 867 536 861 q 404 874 456 874 q 292 869 343 874 q 201 860 240 865 q 135 850 161 854 q 100 846 110 846 q 72 856 83 846 q 57 884 61 865 q 53 931 53 903 q 53 953 53 943 q 56 972 54 963 q 153 986 106 981 q 246 994 200 992 q 334 999 292 997 q 415 1000 376 1000 q 587 975 513 1000 q 711 898 661 950 q 787 765 761 846 q 813 574 813 685 l 813 533 z "},"Ḍ":{"ha":903,"x_min":53,"x_max":813,"o":"m 339 -125 q 355 -122 346 -124 q 373 -120 364 -121 q 391 -119 382 -119 q 408 -119 400 -119 q 483 -133 454 -119 q 513 -183 513 -146 l 513 -274 q 495 -276 504 -275 q 478 -278 486 -278 q 460 -279 469 -279 q 443 -279 451 -279 q 368 -265 397 -279 q 339 -215 339 -251 l 339 -125 m 813 533 q 778 309 813 410 q 681 136 743 208 q 535 25 618 64 q 356 -14 451 -14 q 303 -12 328 -14 q 256 -6 278 -10 q 214 6 233 -1 q 178 22 194 13 q 151 42 163 31 q 130 71 135 58 q 125 106 125 83 q 125 301 125 203 q 125 499 125 400 q 125 697 125 599 q 125 896 125 796 l 240 896 l 222 854 q 249 814 242 838 q 257 758 257 790 q 257 604 257 683 q 257 446 257 525 q 257 287 257 367 q 257 126 257 207 q 281 121 267 124 q 312 117 296 118 q 342 117 328 117 q 514 166 438 117 q 636 309 590 215 q 682 536 682 403 l 682 550 q 677 662 682 614 q 661 747 672 710 q 631 814 650 783 q 569 848 603 835 q 496 867 536 861 q 404 874 456 874 q 292 869 343 874 q 201 860 240 865 q 135 850 161 854 q 100 846 110 846 q 72 856 83 846 q 57 884 61 865 q 53 931 53 903 q 53 953 53 943 q 56 972 54 963 q 153 986 106 981 q 246 994 200 992 q 334 999 292 997 q 415 1000 376 1000 q 587 975 513 1000 q 711 898 661 950 q 787 765 761 846 q 813 574 813 685 l 813 533 z "},"Ḏ":{"ha":903,"x_min":53,"x_max":813,"o":"m 153 -156 l 638 -156 q 685 -174 672 -156 q 699 -226 699 -192 q 698 -240 699 -233 q 696 -253 697 -247 q 694 -265 694 -260 l 256 -265 q 192 -256 214 -265 q 161 -226 169 -246 q 153 -175 153 -206 q 153 -168 153 -171 q 153 -162 153 -165 q 153 -156 153 -158 m 813 533 q 778 309 813 410 q 681 136 743 208 q 535 25 618 64 q 356 -14 451 -14 q 303 -12 328 -14 q 256 -6 278 -10 q 214 6 233 -1 q 178 22 194 13 q 151 42 163 31 q 130 71 135 58 q 125 106 125 83 q 125 301 125 203 q 125 499 125 400 q 125 697 125 599 q 125 896 125 796 l 240 896 l 222 854 q 249 814 242 838 q 257 758 257 790 q 257 604 257 683 q 257 446 257 525 q 257 287 257 367 q 257 126 257 207 q 281 121 267 124 q 312 117 296 118 q 342 117 328 117 q 514 166 438 117 q 636 309 590 215 q 682 536 682 403 l 682 550 q 677 662 682 614 q 661 747 672 710 q 631 814 650 783 q 569 848 603 835 q 496 867 536 861 q 404 874 456 874 q 292 869 343 874 q 201 860 240 865 q 135 850 161 854 q 100 846 110 846 q 72 856 83 846 q 57 884 61 865 q 53 931 53 903 q 53 953 53 943 q 56 972 54 963 q 153 986 106 981 q 246 994 200 992 q 334 999 292 997 q 415 1000 376 1000 q 587 975 513 1000 q 711 898 661 950 q 787 765 761 846 q 813 574 813 685 l 813 533 z "},"E":{"ha":764,"x_min":58,"x_max":700,"o":"m 61 972 l 640 972 q 677 958 664 972 q 695 926 690 944 q 700 892 700 907 q 699 865 700 876 q 693 846 697 854 l 103 846 q 77 858 88 846 q 63 891 67 871 q 58 932 58 911 q 59 952 58 942 q 61 972 60 963 m 207 515 l 542 515 q 578 503 564 515 q 600 470 593 490 q 607 428 607 450 q 606 417 607 422 q 606 408 606 413 q 604 400 606 404 l 207 400 l 207 515 m 217 0 q 183 9 199 0 q 153 34 167 18 q 133 72 140 50 q 125 115 125 93 q 125 269 125 190 q 125 428 125 349 q 125 585 125 507 q 125 737 125 663 q 125 879 125 811 l 242 879 l 224 838 q 249 799 242 822 q 257 742 257 776 q 257 590 257 668 q 257 435 257 513 q 257 279 257 357 q 257 126 257 201 l 613 126 q 680 108 660 126 q 700 46 700 89 q 699 21 700 33 q 694 0 697 8 l 217 0 z "},"È":{"ha":764,"x_min":58,"x_max":700,"o":"m 61 972 l 640 972 q 677 958 664 972 q 695 926 690 944 q 700 892 700 907 q 699 865 700 876 q 693 846 697 854 l 103 846 q 77 858 88 846 q 63 891 67 871 q 58 932 58 911 q 59 952 58 942 q 61 972 60 963 m 207 515 l 542 515 q 578 503 564 515 q 600 470 593 490 q 607 428 607 450 q 606 417 607 422 q 606 408 606 413 q 604 400 606 404 l 207 400 l 207 515 m 217 0 q 183 9 199 0 q 153 34 167 18 q 133 72 140 50 q 125 115 125 93 q 125 269 125 190 q 125 428 125 349 q 125 585 125 507 q 125 737 125 663 q 125 879 125 811 l 242 879 l 224 838 q 249 799 242 822 q 257 742 257 776 q 257 590 257 668 q 257 435 257 513 q 257 279 257 357 q 257 126 257 201 l 613 126 q 680 108 660 126 q 700 46 700 89 q 699 21 700 33 q 694 0 697 8 l 217 0 m 281 1299 q 316 1225 293 1260 q 373 1160 339 1190 q 450 1097 407 1129 q 425 1088 438 1092 q 401 1081 413 1083 q 375 1079 389 1079 q 337 1083 354 1079 q 301 1097 319 1086 q 257 1125 278 1110 q 219 1158 236 1140 q 188 1197 201 1176 q 167 1236 175 1217 q 163 1265 160 1253 q 181 1285 165 1278 q 210 1294 194 1290 q 242 1299 225 1297 q 281 1299 260 1300 z "},"É":{"ha":764,"x_min":58,"x_max":700,"o":"m 61 972 l 640 972 q 677 958 664 972 q 695 926 690 944 q 700 892 700 907 q 699 865 700 876 q 693 846 697 854 l 103 846 q 77 858 88 846 q 63 891 67 871 q 58 932 58 911 q 59 952 58 942 q 61 972 60 963 m 207 515 l 542 515 q 578 503 564 515 q 600 470 593 490 q 607 428 607 450 q 606 417 607 422 q 606 408 606 413 q 604 400 606 404 l 207 400 l 207 515 m 217 0 q 183 9 199 0 q 153 34 167 18 q 133 72 140 50 q 125 115 125 93 q 125 269 125 190 q 125 428 125 349 q 125 585 125 507 q 125 737 125 663 q 125 879 125 811 l 242 879 l 224 838 q 249 799 242 822 q 257 742 257 776 q 257 590 257 668 q 257 435 257 513 q 257 279 257 357 q 257 126 257 201 l 613 126 q 680 108 660 126 q 700 46 700 89 q 699 21 700 33 q 694 0 697 8 l 217 0 m 475 1290 q 513 1289 496 1290 q 544 1285 531 1288 q 572 1278 558 1282 q 592 1258 589 1271 q 590 1231 596 1246 q 569 1189 582 1208 q 540 1151 557 1169 q 502 1118 522 1133 q 458 1090 482 1103 q 422 1075 440 1079 q 381 1071 403 1071 q 356 1073 368 1071 q 331 1079 343 1075 q 306 1090 318 1083 q 383 1152 349 1121 q 440 1217 417 1183 q 475 1290 464 1251 z "},"Ê":{"ha":764,"x_min":58,"x_max":700,"o":"m 61 972 l 640 972 q 677 958 664 972 q 695 926 690 944 q 700 892 700 907 q 699 865 700 876 q 693 846 697 854 l 103 846 q 77 858 88 846 q 63 891 67 871 q 58 932 58 911 q 59 952 58 942 q 61 972 60 963 m 207 515 l 542 515 q 578 503 564 515 q 600 470 593 490 q 607 428 607 450 q 606 417 607 422 q 606 408 606 413 q 604 400 606 404 l 207 400 l 207 515 m 217 0 q 183 9 199 0 q 153 34 167 18 q 133 72 140 50 q 125 115 125 93 q 125 269 125 190 q 125 428 125 349 q 125 585 125 507 q 125 737 125 663 q 125 879 125 811 l 242 879 l 224 838 q 249 799 242 822 q 257 742 257 776 q 257 590 257 668 q 257 435 257 513 q 257 279 257 357 q 257 126 257 201 l 613 126 q 680 108 660 126 q 700 46 700 89 q 699 21 700 33 q 694 0 697 8 l 217 0 m 336 1303 q 351 1303 343 1303 q 366 1303 358 1303 q 381 1303 374 1303 q 428 1297 406 1303 q 490 1267 451 1292 q 538 1234 513 1253 q 586 1193 563 1215 q 631 1144 610 1171 q 672 1088 653 1118 q 638 1076 654 1081 q 597 1072 621 1072 q 560 1080 574 1072 q 531 1106 547 1088 q 457 1171 497 1142 q 344 1232 417 1200 l 424 1215 q 378 1215 401 1215 q 332 1215 356 1215 l 410 1233 q 278 1151 329 1193 q 199 1071 226 1110 l 190 1071 q 139 1074 158 1071 q 111 1085 119 1078 q 103 1101 103 1093 q 111 1126 103 1110 q 140 1167 119 1143 q 181 1207 160 1188 q 228 1244 203 1226 q 280 1277 253 1263 q 336 1303 307 1292 z "},"Ë":{"ha":764,"x_min":58,"x_max":700,"o":"m 61 972 l 640 972 q 677 958 664 972 q 695 926 690 944 q 700 892 700 907 q 699 865 700 876 q 693 846 697 854 l 103 846 q 77 858 88 846 q 63 891 67 871 q 58 932 58 911 q 59 952 58 942 q 61 972 60 963 m 207 515 l 542 515 q 578 503 564 515 q 600 470 593 490 q 607 428 607 450 q 606 417 607 422 q 606 408 606 413 q 604 400 606 404 l 207 400 l 207 515 m 217 0 q 183 9 199 0 q 153 34 167 18 q 133 72 140 50 q 125 115 125 93 q 125 269 125 190 q 125 428 125 349 q 125 585 125 507 q 125 737 125 663 q 125 879 125 811 l 242 879 l 224 838 q 249 799 242 822 q 257 742 257 776 q 257 590 257 668 q 257 435 257 513 q 257 279 257 357 q 257 126 257 201 l 613 126 q 680 108 660 126 q 700 46 700 89 q 699 21 700 33 q 694 0 697 8 l 217 0 m 156 1261 q 186 1265 169 1264 q 217 1265 203 1265 q 264 1260 243 1265 q 298 1243 285 1256 q 311 1208 311 1231 l 311 1110 q 281 1107 297 1108 q 249 1106 264 1106 q 203 1111 225 1106 q 169 1129 182 1117 q 156 1164 156 1142 l 156 1261 m 444 1261 q 475 1265 458 1264 q 506 1265 492 1265 q 553 1260 532 1265 q 587 1243 574 1256 q 600 1208 600 1231 l 600 1110 q 569 1107 586 1108 q 538 1106 553 1106 q 492 1111 514 1106 q 458 1129 471 1117 q 444 1164 444 1142 l 444 1261 z "},"Ē":{"ha":764,"x_min":58,"x_max":700,"o":"m 61 972 l 640 972 q 677 958 664 972 q 695 926 690 944 q 700 892 700 907 q 699 865 700 876 q 693 846 697 854 l 103 846 q 77 858 88 846 q 63 891 67 871 q 58 932 58 911 q 59 952 58 942 q 61 972 60 963 m 207 515 l 542 515 q 578 503 564 515 q 600 470 593 490 q 607 428 607 450 q 606 417 607 422 q 606 408 606 413 q 604 400 606 404 l 207 400 l 207 515 m 217 0 q 183 9 199 0 q 153 34 167 18 q 133 72 140 50 q 125 115 125 93 q 125 269 125 190 q 125 428 125 349 q 125 585 125 507 q 125 737 125 663 q 125 879 125 811 l 242 879 l 224 838 q 249 799 242 822 q 257 742 257 776 q 257 590 257 668 q 257 435 257 513 q 257 279 257 357 q 257 126 257 201 l 613 126 q 680 108 660 126 q 700 46 700 89 q 699 21 700 33 q 694 0 697 8 l 217 0 m 104 1226 l 589 1226 q 638 1209 625 1226 q 650 1156 650 1192 q 649 1135 650 1146 q 646 1117 647 1125 l 207 1117 q 143 1126 165 1117 q 113 1156 121 1136 q 104 1207 104 1176 q 104 1217 104 1213 q 104 1226 104 1222 z "},"Ĕ":{"ha":764,"x_min":58,"x_max":700,"o":"m 61 972 l 640 972 q 677 958 664 972 q 695 926 690 944 q 700 892 700 907 q 699 865 700 876 q 693 846 697 854 l 103 846 q 77 858 88 846 q 63 891 67 871 q 58 932 58 911 q 59 952 58 942 q 61 972 60 963 m 207 515 l 542 515 q 578 503 564 515 q 600 470 593 490 q 607 428 607 450 q 606 417 607 422 q 606 408 606 413 q 604 400 606 404 l 207 400 l 207 515 m 217 0 q 183 9 199 0 q 153 34 167 18 q 133 72 140 50 q 125 115 125 93 q 125 269 125 190 q 125 428 125 349 q 125 585 125 507 q 125 737 125 663 q 125 879 125 811 l 242 879 l 224 838 q 249 799 242 822 q 257 742 257 776 q 257 590 257 668 q 257 435 257 513 q 257 279 257 357 q 257 126 257 201 l 613 126 q 680 108 660 126 q 700 46 700 89 q 699 21 700 33 q 694 0 697 8 l 217 0 m 542 1306 q 583 1301 565 1306 q 614 1288 600 1296 q 624 1272 622 1281 q 621 1250 626 1263 q 574 1171 606 1204 q 494 1119 542 1138 q 383 1101 447 1101 l 372 1101 q 262 1119 310 1101 q 182 1171 214 1138 q 135 1250 150 1204 q 131 1272 129 1263 q 142 1288 133 1281 q 173 1301 156 1296 q 214 1306 190 1306 q 272 1230 235 1256 q 378 1199 310 1204 q 483 1230 446 1204 q 542 1306 521 1256 z "},"Ė":{"ha":764,"x_min":58,"x_max":700,"o":"m 286 1251 q 303 1257 293 1254 q 323 1261 313 1260 q 345 1263 333 1263 q 368 1264 357 1264 q 442 1248 414 1264 q 471 1194 471 1232 l 471 1110 q 453 1105 463 1107 q 435 1101 444 1103 q 416 1099 426 1099 q 396 1099 406 1099 q 317 1120 347 1099 q 286 1178 286 1142 l 286 1251 m 61 972 l 640 972 q 677 958 664 972 q 695 926 690 944 q 700 892 700 907 q 699 865 700 876 q 693 846 697 854 l 103 846 q 77 858 88 846 q 63 891 67 871 q 58 932 58 911 q 59 952 58 942 q 61 972 60 963 m 207 515 l 542 515 q 578 503 564 515 q 600 470 593 490 q 607 428 607 450 q 606 417 607 422 q 606 408 606 413 q 604 400 606 404 l 207 400 l 207 515 m 217 0 q 183 9 199 0 q 153 34 167 18 q 133 72 140 50 q 125 115 125 93 q 125 269 125 190 q 125 428 125 349 q 125 585 125 507 q 125 737 125 663 q 125 879 125 811 l 242 879 l 224 838 q 249 799 242 822 q 257 742 257 776 q 257 590 257 668 q 257 435 257 513 q 257 279 257 357 q 257 126 257 201 l 613 126 q 680 108 660 126 q 700 46 700 89 q 699 21 700 33 q 694 0 697 8 l 217 0 z "},"Ę":{"ha":764,"x_min":58,"x_max":703,"o":"m 61 972 l 640 972 q 677 958 664 972 q 695 926 690 944 q 700 892 700 907 q 699 865 700 876 q 693 846 697 854 l 103 846 q 77 858 88 846 q 63 891 67 871 q 58 932 58 911 q 59 952 58 942 q 61 972 60 963 m 207 515 l 542 515 q 578 503 564 515 q 600 470 593 490 q 607 428 607 450 q 606 417 607 422 q 606 408 606 413 q 604 400 606 404 l 207 400 l 207 515 m 217 0 q 183 9 199 0 q 153 34 167 18 q 133 72 140 50 q 125 115 125 93 q 125 269 125 190 q 125 428 125 349 q 125 585 125 507 q 125 737 125 663 q 125 879 125 811 l 242 879 l 224 838 q 249 799 242 822 q 257 742 257 776 q 257 590 257 668 q 257 435 257 513 q 257 279 257 357 q 257 126 257 201 l 613 126 q 680 108 660 126 q 700 46 700 89 q 699 21 700 33 q 694 0 697 8 l 217 0 m 635 42 q 665 32 650 44 q 696 -4 681 19 q 678 -14 689 -10 q 653 -22 667 -18 q 552 -76 588 -40 q 517 -157 517 -111 q 535 -206 517 -190 q 589 -222 554 -222 q 638 -215 615 -222 q 682 -190 660 -207 l 690 -190 q 699 -209 696 -200 q 702 -226 701 -218 q 703 -247 703 -235 q 666 -321 703 -296 q 568 -346 629 -346 q 444 -306 489 -346 q 400 -190 400 -265 q 428 -82 400 -129 q 510 -3 457 -35 q 635 42 563 28 z "},"Ě":{"ha":764,"x_min":58,"x_max":700,"o":"m 421 1089 q 408 1089 415 1089 q 392 1089 400 1089 q 378 1089 385 1089 q 328 1094 351 1089 q 267 1125 306 1100 q 219 1158 244 1139 q 171 1199 194 1176 q 126 1247 147 1221 q 85 1304 104 1274 q 119 1316 103 1313 q 160 1319 136 1319 q 197 1312 183 1319 q 228 1286 211 1304 q 300 1221 260 1250 q 413 1158 340 1192 l 333 1176 q 380 1176 357 1176 q 426 1176 403 1176 l 347 1157 q 479 1240 428 1199 q 558 1321 531 1282 l 567 1321 q 619 1317 600 1321 q 646 1307 638 1314 q 654 1290 654 1300 q 647 1265 654 1282 q 617 1225 639 1249 q 576 1185 597 1204 q 529 1147 554 1165 q 477 1115 504 1129 q 421 1089 450 1100 m 61 972 l 640 972 q 677 958 664 972 q 695 926 690 944 q 700 892 700 907 q 699 865 700 876 q 693 846 697 854 l 103 846 q 77 858 88 846 q 63 891 67 871 q 58 932 58 911 q 59 952 58 942 q 61 972 60 963 m 207 515 l 542 515 q 578 503 564 515 q 600 470 593 490 q 607 428 607 450 q 606 417 607 422 q 606 408 606 413 q 604 400 606 404 l 207 400 l 207 515 m 215 0 q 183 9 199 0 q 153 34 167 18 q 133 72 140 50 q 125 115 125 93 q 125 269 125 190 q 125 428 125 349 q 125 585 125 507 q 125 737 125 663 q 125 879 125 811 l 242 879 l 224 838 q 249 799 242 822 q 257 742 257 776 q 257 590 257 668 q 257 435 257 513 q 257 279 257 357 q 257 126 257 201 l 613 126 q 680 108 660 126 q 700 46 700 89 q 699 21 700 33 q 694 0 697 8 l 215 0 z "},"Ȅ":{"ha":764,"x_min":46,"x_max":700,"o":"m 167 1299 q 201 1225 179 1260 q 258 1160 224 1190 q 336 1097 292 1129 q 310 1088 322 1092 q 286 1081 299 1083 q 260 1079 274 1079 q 223 1083 240 1079 q 188 1097 206 1086 q 142 1125 163 1110 q 104 1158 122 1140 q 73 1197 86 1176 q 51 1236 60 1217 q 49 1265 46 1253 q 67 1285 51 1278 q 95 1294 81 1290 q 128 1299 110 1297 q 167 1299 146 1300 m 431 1299 q 467 1225 444 1260 q 523 1160 489 1190 q 601 1097 557 1129 q 576 1088 588 1092 q 551 1081 564 1083 q 525 1079 539 1079 q 488 1083 506 1079 q 451 1097 471 1086 q 407 1125 428 1110 q 369 1158 386 1140 q 338 1197 351 1176 q 317 1236 325 1217 q 313 1265 310 1253 q 332 1285 315 1278 q 360 1294 344 1290 q 393 1299 375 1297 q 431 1299 411 1300 m 61 972 l 640 972 q 677 958 664 972 q 695 926 690 944 q 700 892 700 907 q 699 865 700 876 q 693 846 697 854 l 103 846 q 77 858 88 846 q 63 891 67 871 q 58 932 58 911 q 59 952 58 942 q 61 972 60 963 m 207 515 l 542 515 q 578 503 564 515 q 600 470 593 490 q 607 428 607 450 q 606 417 607 422 q 606 408 606 413 q 604 400 606 404 l 207 400 l 207 515 m 215 0 q 183 9 199 0 q 153 34 167 18 q 133 72 140 50 q 125 115 125 93 q 125 269 125 190 q 125 428 125 349 q 125 585 125 507 q 125 737 125 663 q 125 879 125 811 l 242 879 l 224 838 q 249 799 242 822 q 257 742 257 776 q 257 590 257 668 q 257 435 257 513 q 257 279 257 357 q 257 126 257 201 l 613 126 q 680 108 660 126 q 700 46 700 89 q 699 21 700 33 q 694 0 697 8 l 215 0 z "},"Ȇ":{"ha":764,"x_min":58,"x_max":700,"o":"m 214 1093 q 173 1099 190 1094 q 142 1111 156 1103 q 131 1127 133 1118 q 135 1149 129 1136 q 182 1228 150 1194 q 262 1279 214 1261 q 372 1297 310 1297 l 383 1297 q 494 1279 447 1297 q 574 1228 542 1261 q 622 1149 606 1194 q 624 1127 626 1136 q 614 1111 622 1118 q 583 1099 601 1103 q 542 1093 565 1094 q 484 1169 522 1143 q 378 1200 446 1194 q 272 1169 310 1194 q 214 1093 235 1143 m 61 972 l 640 972 q 677 958 664 972 q 695 926 690 944 q 700 892 700 907 q 699 865 700 876 q 693 846 697 854 l 103 846 q 77 858 88 846 q 63 891 67 871 q 58 932 58 911 q 59 952 58 942 q 61 972 60 963 m 207 515 l 542 515 q 578 503 564 515 q 600 470 593 490 q 607 428 607 450 q 606 417 607 422 q 606 408 606 413 q 604 400 606 404 l 207 400 l 207 515 m 215 0 q 183 9 199 0 q 153 34 167 18 q 133 72 140 50 q 125 115 125 93 q 125 269 125 190 q 125 428 125 349 q 125 585 125 507 q 125 737 125 663 q 125 879 125 811 l 242 879 l 224 838 q 249 799 242 822 q 257 742 257 776 q 257 590 257 668 q 257 435 257 513 q 257 279 257 357 q 257 126 257 201 l 613 126 q 680 108 660 126 q 700 46 700 89 q 699 21 700 33 q 694 0 697 8 l 215 0 z "},"Ḕ":{"ha":764,"x_min":58,"x_max":700,"o":"m 61 972 l 640 972 q 677 958 664 972 q 695 926 690 944 q 700 892 700 907 q 699 865 700 876 q 693 846 697 854 l 103 846 q 77 858 88 846 q 63 891 67 871 q 58 932 58 911 q 59 952 58 942 q 61 972 60 963 m 207 515 l 542 515 q 578 503 564 515 q 600 470 593 490 q 607 428 607 450 q 606 417 607 422 q 606 408 606 413 q 604 400 606 404 l 207 400 l 207 515 m 217 0 q 183 9 199 0 q 153 34 167 18 q 133 72 140 50 q 125 115 125 93 q 125 269 125 190 q 125 428 125 349 q 125 585 125 507 q 125 737 125 663 q 125 879 125 811 l 242 879 l 224 838 q 249 799 242 822 q 257 742 257 776 q 257 590 257 668 q 257 435 257 513 q 257 279 257 357 q 257 126 257 201 l 613 126 q 680 108 660 126 q 700 46 700 89 q 699 21 700 33 q 694 0 697 8 l 217 0 m 104 1226 l 589 1226 q 638 1209 625 1226 q 650 1156 650 1192 q 649 1135 650 1146 q 646 1117 647 1125 l 207 1117 q 143 1126 165 1117 q 113 1156 121 1136 q 104 1207 104 1176 q 104 1217 104 1213 q 104 1226 104 1222 m 281 1507 q 316 1433 293 1468 q 373 1368 339 1399 q 450 1306 407 1338 q 425 1296 438 1300 q 401 1290 413 1292 q 375 1288 389 1288 q 337 1291 354 1288 q 301 1306 319 1294 q 257 1333 278 1318 q 219 1367 236 1349 q 188 1405 201 1385 q 167 1444 175 1425 q 163 1474 160 1461 q 181 1493 165 1486 q 210 1502 194 1499 q 242 1507 225 1506 q 281 1507 260 1508 z "},"Ḗ":{"ha":764,"x_min":58,"x_max":700,"o":"m 61 972 l 640 972 q 677 958 664 972 q 695 926 690 944 q 700 892 700 907 q 699 865 700 876 q 693 846 697 854 l 103 846 q 77 858 88 846 q 63 891 67 871 q 58 932 58 911 q 59 952 58 942 q 61 972 60 963 m 207 515 l 542 515 q 578 503 564 515 q 600 470 593 490 q 607 428 607 450 q 606 417 607 422 q 606 408 606 413 q 604 400 606 404 l 207 400 l 207 515 m 217 0 q 183 9 199 0 q 153 34 167 18 q 133 72 140 50 q 125 115 125 93 q 125 269 125 190 q 125 428 125 349 q 125 585 125 507 q 125 737 125 663 q 125 879 125 811 l 242 879 l 224 838 q 249 799 242 822 q 257 742 257 776 q 257 590 257 668 q 257 435 257 513 q 257 279 257 357 q 257 126 257 201 l 613 126 q 680 108 660 126 q 700 46 700 89 q 699 21 700 33 q 694 0 697 8 l 217 0 m 104 1226 l 589 1226 q 638 1209 625 1226 q 650 1156 650 1192 q 649 1135 650 1146 q 646 1117 647 1125 l 207 1117 q 143 1126 165 1117 q 113 1156 121 1136 q 104 1207 104 1176 q 104 1217 104 1213 q 104 1226 104 1222 m 475 1499 q 513 1497 496 1499 q 544 1493 531 1496 q 572 1486 558 1490 q 592 1467 589 1479 q 590 1439 596 1454 q 569 1397 582 1417 q 540 1360 557 1378 q 502 1326 522 1342 q 458 1299 482 1311 q 422 1283 440 1288 q 381 1279 403 1279 q 356 1281 368 1279 q 331 1288 343 1283 q 306 1299 318 1292 q 383 1360 349 1329 q 440 1426 417 1392 q 475 1499 464 1460 z "},"Ḝ":{"ha":764,"x_min":58,"x_max":700,"o":"m 61 972 l 640 972 q 677 958 664 972 q 695 926 690 944 q 700 892 700 907 q 699 865 700 876 q 693 846 697 854 l 103 846 q 77 858 88 846 q 63 891 67 871 q 58 932 58 911 q 59 952 58 942 q 61 972 60 963 m 207 515 l 542 515 q 578 503 564 515 q 600 470 593 490 q 607 428 607 450 q 606 417 607 422 q 606 408 606 413 q 604 400 606 404 l 207 400 l 207 515 m 217 0 q 183 9 199 0 q 153 34 167 18 q 133 72 140 50 q 125 115 125 93 q 125 269 125 190 q 125 428 125 349 q 125 585 125 507 q 125 737 125 663 q 125 879 125 811 l 242 879 l 224 838 q 249 799 242 822 q 257 742 257 776 q 257 590 257 668 q 257 435 257 513 q 257 279 257 357 q 257 126 257 201 l 613 126 q 680 108 660 126 q 700 46 700 89 q 699 21 700 33 q 694 0 697 8 l 217 0 m 554 -175 q 504 -285 554 -244 q 367 -325 454 -325 q 294 -314 321 -325 q 254 -284 267 -303 q 242 -243 242 -265 q 243 -224 242 -233 q 247 -206 244 -215 q 253 -186 249 -196 l 261 -186 q 302 -215 281 -206 q 361 -224 324 -224 q 422 -208 400 -224 q 444 -161 444 -192 q 426 -124 444 -137 q 372 -111 408 -111 q 352 -105 360 -111 q 344 -89 344 -99 q 346 -62 344 -76 q 350 -33 347 -47 q 358 -5 353 -18 q 368 18 363 8 q 381 29 372 25 q 404 35 389 33 q 446 36 419 38 q 440 16 443 28 q 436 -8 438 4 q 433 -31 435 -19 q 429 -50 431 -42 l 429 -58 q 519 -92 485 -62 q 554 -175 554 -122 m 542 1306 q 583 1301 565 1306 q 614 1288 600 1296 q 624 1272 622 1281 q 621 1250 626 1263 q 574 1171 606 1204 q 494 1119 542 1138 q 383 1101 447 1101 l 372 1101 q 262 1119 310 1101 q 182 1171 214 1138 q 135 1250 150 1204 q 131 1272 129 1263 q 142 1288 133 1281 q 173 1301 156 1296 q 214 1306 190 1306 q 272 1230 235 1256 q 378 1199 310 1204 q 483 1230 446 1204 q 542 1306 521 1256 z "},"Ẹ":{"ha":764,"x_min":58,"x_max":700,"o":"m 61 972 l 640 972 q 677 958 664 972 q 695 926 690 944 q 700 892 700 907 q 699 865 700 876 q 693 846 697 854 l 103 846 q 77 858 88 846 q 63 891 67 871 q 58 932 58 911 q 59 952 58 942 q 61 972 60 963 m 207 515 l 542 515 q 578 503 564 515 q 600 470 593 490 q 607 428 607 450 q 606 417 607 422 q 606 408 606 413 q 604 400 606 404 l 207 400 l 207 515 m 217 0 q 183 9 199 0 q 153 34 167 18 q 133 72 140 50 q 125 115 125 93 q 125 269 125 190 q 125 428 125 349 q 125 585 125 507 q 125 737 125 663 q 125 879 125 811 l 242 879 l 224 838 q 249 799 242 822 q 257 742 257 776 q 257 590 257 668 q 257 435 257 513 q 257 279 257 357 q 257 126 257 201 l 613 126 q 680 108 660 126 q 700 46 700 89 q 699 21 700 33 q 694 0 697 8 l 217 0 m 322 -125 q 338 -122 329 -124 q 356 -120 347 -121 q 373 -119 364 -119 q 392 -119 382 -119 q 466 -133 438 -119 q 494 -183 494 -146 l 494 -274 q 478 -276 488 -275 q 461 -278 469 -278 q 444 -279 453 -279 q 425 -279 435 -279 q 351 -265 381 -279 q 322 -215 322 -251 l 322 -125 z "},"Ẻ":{"ha":764,"x_min":58,"x_max":700,"o":"m 61 972 l 640 972 q 677 958 664 972 q 695 926 690 944 q 700 892 700 907 q 699 865 700 876 q 693 846 697 854 l 103 846 q 77 858 88 846 q 63 891 67 871 q 58 932 58 911 q 59 952 58 942 q 61 972 60 963 m 207 515 l 542 515 q 578 503 564 515 q 600 470 593 490 q 607 428 607 450 q 606 417 607 422 q 606 408 606 413 q 604 400 606 404 l 207 400 l 207 515 m 217 0 q 183 9 199 0 q 153 34 167 18 q 133 72 140 50 q 125 115 125 93 q 125 269 125 190 q 125 428 125 349 q 125 585 125 507 q 125 737 125 663 q 125 879 125 811 l 242 879 l 224 838 q 249 799 242 822 q 257 742 257 776 q 257 590 257 668 q 257 435 257 513 q 257 279 257 357 q 257 126 257 201 l 613 126 q 680 108 660 126 q 700 46 700 89 q 699 21 700 33 q 694 0 697 8 l 217 0 m 308 1078 q 324 1114 308 1097 q 382 1146 340 1131 q 435 1169 421 1160 q 450 1193 450 1179 q 450 1201 450 1197 q 449 1208 450 1204 q 422 1215 436 1214 q 389 1217 407 1217 q 308 1205 342 1217 q 246 1167 274 1193 l 238 1167 q 229 1188 232 1178 q 226 1214 226 1199 q 233 1249 226 1233 q 253 1276 239 1264 q 274 1291 263 1285 q 300 1302 285 1297 q 335 1309 315 1307 q 378 1311 354 1311 q 467 1297 432 1311 q 519 1257 501 1282 q 536 1200 536 1232 l 536 1197 q 521 1150 536 1168 q 471 1113 506 1132 q 423 1079 433 1092 q 410 1049 413 1067 q 396 1045 404 1047 q 379 1042 388 1043 q 363 1042 371 1042 q 322 1052 335 1042 q 308 1078 308 1063 z "},"Ẽ":{"ha":764,"x_min":58,"x_max":700,"o":"m 61 972 l 640 972 q 677 958 664 972 q 695 926 690 944 q 700 892 700 907 q 699 865 700 876 q 693 846 697 854 l 103 846 q 77 858 88 846 q 63 891 67 871 q 58 932 58 911 q 59 952 58 942 q 61 972 60 963 m 207 515 l 542 515 q 578 503 564 515 q 600 470 593 490 q 607 428 607 450 q 606 417 607 422 q 606 408 606 413 q 604 400 606 404 l 207 400 l 207 515 m 217 0 q 183 9 199 0 q 153 34 167 18 q 133 72 140 50 q 125 115 125 93 q 125 269 125 190 q 125 428 125 349 q 125 585 125 507 q 125 737 125 663 q 125 879 125 811 l 242 879 l 224 838 q 249 799 242 822 q 257 742 257 776 q 257 590 257 668 q 257 435 257 513 q 257 279 257 357 q 257 126 257 201 l 613 126 q 680 108 660 126 q 700 46 700 89 q 699 21 700 33 q 694 0 697 8 l 217 0 m 515 1194 q 580 1210 551 1194 q 636 1258 608 1226 l 644 1258 q 651 1235 649 1250 q 653 1208 653 1221 q 649 1172 653 1186 q 640 1147 646 1158 q 598 1104 626 1119 q 526 1089 569 1089 q 453 1104 489 1089 q 382 1140 417 1119 q 311 1175 347 1160 q 238 1190 275 1190 q 174 1175 201 1190 q 117 1126 146 1160 l 108 1126 q 102 1151 104 1138 q 100 1176 100 1164 q 103 1212 100 1199 q 113 1236 107 1225 q 155 1280 126 1264 q 226 1296 183 1296 q 300 1281 264 1296 q 372 1245 336 1265 q 442 1210 407 1225 q 515 1194 478 1194 z "},"Ế":{"ha":764,"x_min":58,"x_max":786,"o":"m 61 972 l 640 972 q 677 958 664 972 q 695 926 690 944 q 700 892 700 907 q 699 865 700 876 q 693 846 697 854 l 103 846 q 77 858 88 846 q 63 891 67 871 q 58 932 58 911 q 59 952 58 942 q 61 972 60 963 m 207 515 l 542 515 q 578 503 564 515 q 600 470 593 490 q 607 428 607 450 q 606 417 607 422 q 606 408 606 413 q 604 400 606 404 l 207 400 l 207 515 m 217 0 q 183 9 199 0 q 153 34 167 18 q 133 72 140 50 q 125 115 125 93 q 125 269 125 190 q 125 428 125 349 q 125 585 125 507 q 125 737 125 663 q 125 879 125 811 l 242 879 l 224 838 q 249 799 242 822 q 257 742 257 776 q 257 590 257 668 q 257 435 257 513 q 257 279 257 357 q 257 126 257 201 l 613 126 q 680 108 660 126 q 700 46 700 89 q 699 21 700 33 q 694 0 697 8 l 217 0 m 336 1303 q 351 1303 343 1303 q 366 1303 358 1303 q 381 1303 374 1303 q 428 1297 406 1303 q 490 1267 451 1292 q 538 1234 513 1253 q 586 1193 563 1215 q 631 1144 610 1171 q 672 1088 653 1118 q 638 1076 654 1081 q 597 1072 621 1072 q 560 1080 574 1072 q 531 1106 547 1088 q 457 1171 497 1142 q 344 1232 417 1200 l 424 1215 q 378 1215 401 1215 q 332 1215 356 1215 l 410 1233 q 278 1151 329 1193 q 199 1071 226 1110 l 190 1071 q 139 1074 158 1071 q 111 1085 119 1078 q 103 1101 103 1093 q 111 1126 103 1110 q 140 1167 119 1143 q 181 1207 160 1188 q 228 1244 203 1226 q 280 1277 253 1263 q 336 1303 307 1292 m 682 1492 q 710 1490 697 1492 q 736 1487 724 1489 q 760 1482 749 1485 q 781 1461 778 1476 q 776 1422 785 1446 q 753 1376 767 1399 q 723 1335 740 1354 q 685 1299 706 1317 q 651 1279 667 1286 q 615 1272 635 1272 q 592 1274 603 1272 q 569 1281 581 1276 q 546 1290 558 1285 q 606 1348 579 1317 q 651 1415 632 1379 q 682 1492 671 1451 z "},"Ề":{"ha":764,"x_min":58,"x_max":700,"o":"m 61 972 l 640 972 q 677 958 664 972 q 695 926 690 944 q 700 892 700 907 q 699 865 700 876 q 693 846 697 854 l 103 846 q 77 858 88 846 q 63 891 67 871 q 58 932 58 911 q 59 952 58 942 q 61 972 60 963 m 207 515 l 542 515 q 578 503 564 515 q 600 470 593 490 q 607 428 607 450 q 606 417 607 422 q 606 408 606 413 q 604 400 606 404 l 207 400 l 207 515 m 217 0 q 183 9 199 0 q 153 34 167 18 q 133 72 140 50 q 125 115 125 93 q 125 269 125 190 q 125 428 125 349 q 125 585 125 507 q 125 737 125 663 q 125 879 125 811 l 242 879 l 224 838 q 249 799 242 822 q 257 742 257 776 q 257 590 257 668 q 257 435 257 513 q 257 279 257 357 q 257 126 257 201 l 613 126 q 680 108 660 126 q 700 46 700 89 q 699 21 700 33 q 694 0 697 8 l 217 0 m 336 1303 q 351 1303 343 1303 q 366 1303 358 1303 q 381 1303 374 1303 q 428 1297 406 1303 q 490 1267 451 1292 q 538 1234 513 1253 q 586 1193 563 1215 q 631 1144 610 1171 q 672 1088 653 1118 q 638 1076 654 1081 q 597 1072 621 1072 q 560 1080 574 1072 q 531 1106 547 1088 q 457 1171 497 1142 q 344 1232 417 1200 l 424 1215 q 378 1215 401 1215 q 332 1215 356 1215 l 410 1233 q 278 1151 329 1193 q 199 1071 226 1110 l 190 1071 q 139 1074 158 1071 q 111 1085 119 1078 q 103 1101 103 1093 q 111 1126 103 1110 q 140 1167 119 1143 q 181 1207 160 1188 q 228 1244 203 1226 q 280 1277 253 1263 q 336 1303 307 1292 m 540 1490 q 571 1415 551 1451 q 617 1348 590 1379 q 676 1290 643 1317 q 653 1281 664 1285 q 631 1274 642 1276 q 608 1272 621 1272 q 572 1279 589 1272 q 536 1299 554 1286 q 499 1335 517 1317 q 467 1376 481 1354 q 446 1422 454 1399 q 442 1461 436 1446 q 467 1482 447 1476 q 488 1487 476 1485 q 512 1490 499 1489 q 540 1490 525 1490 z "},"Ể":{"ha":764,"x_min":58,"x_max":771,"o":"m 61 972 l 640 972 q 677 958 664 972 q 695 926 690 944 q 700 892 700 907 q 699 865 700 876 q 693 846 697 854 l 103 846 q 77 858 88 846 q 63 891 67 871 q 58 932 58 911 q 59 952 58 942 q 61 972 60 963 m 207 515 l 542 515 q 578 503 564 515 q 600 470 593 490 q 607 428 607 450 q 606 417 607 422 q 606 408 606 413 q 604 400 606 404 l 207 400 l 207 515 m 217 0 q 183 9 199 0 q 153 34 167 18 q 133 72 140 50 q 125 115 125 93 q 125 269 125 190 q 125 428 125 349 q 125 585 125 507 q 125 737 125 663 q 125 879 125 811 l 242 879 l 224 838 q 249 799 242 822 q 257 742 257 776 q 257 590 257 668 q 257 435 257 513 q 257 279 257 357 q 257 126 257 201 l 613 126 q 680 108 660 126 q 700 46 700 89 q 699 21 700 33 q 694 0 697 8 l 217 0 m 336 1303 q 351 1303 343 1303 q 366 1303 358 1303 q 381 1303 374 1303 q 428 1297 406 1303 q 490 1267 451 1292 q 538 1234 513 1253 q 586 1193 563 1215 q 631 1144 610 1171 q 672 1088 653 1118 q 638 1076 654 1081 q 597 1072 621 1072 q 560 1080 574 1072 q 531 1106 547 1088 q 457 1171 497 1142 q 344 1232 417 1200 l 424 1215 q 378 1215 401 1215 q 332 1215 356 1215 l 410 1233 q 278 1151 329 1193 q 199 1071 226 1110 l 190 1071 q 139 1074 158 1071 q 111 1085 119 1078 q 103 1101 103 1093 q 111 1126 103 1110 q 140 1167 119 1143 q 181 1207 160 1188 q 228 1244 203 1226 q 280 1277 253 1263 q 336 1303 307 1292 m 542 1299 q 558 1335 542 1318 q 615 1367 574 1351 q 669 1390 654 1381 q 683 1414 683 1400 q 683 1422 683 1418 q 682 1429 683 1425 q 655 1436 669 1435 q 622 1438 640 1438 q 541 1426 575 1438 q 479 1388 507 1414 l 471 1388 q 463 1409 465 1399 q 460 1435 460 1419 q 466 1469 460 1454 q 486 1497 472 1485 q 507 1512 496 1506 q 533 1523 518 1518 q 568 1530 549 1528 q 611 1532 588 1532 q 700 1517 665 1532 q 752 1478 735 1503 q 769 1421 769 1453 l 769 1418 q 754 1371 769 1389 q 704 1333 739 1353 q 656 1300 667 1313 q 643 1269 646 1288 q 629 1266 638 1268 q 613 1263 621 1264 q 596 1263 604 1263 q 555 1273 568 1263 q 542 1299 542 1283 z "},"Ễ":{"ha":764,"x_min":58,"x_max":700,"o":"m 61 972 l 640 972 q 677 958 664 972 q 695 926 690 944 q 700 892 700 907 q 699 865 700 876 q 693 846 697 854 l 103 846 q 77 858 88 846 q 63 891 67 871 q 58 932 58 911 q 59 952 58 942 q 61 972 60 963 m 207 515 l 542 515 q 578 503 564 515 q 600 470 593 490 q 607 428 607 450 q 606 417 607 422 q 606 408 606 413 q 604 400 606 404 l 207 400 l 207 515 m 217 0 q 183 9 199 0 q 153 34 167 18 q 133 72 140 50 q 125 115 125 93 q 125 269 125 190 q 125 428 125 349 q 125 585 125 507 q 125 737 125 663 q 125 879 125 811 l 242 879 l 224 838 q 249 799 242 822 q 257 742 257 776 q 257 590 257 668 q 257 435 257 513 q 257 279 257 357 q 257 126 257 201 l 613 126 q 680 108 660 126 q 700 46 700 89 q 699 21 700 33 q 694 0 697 8 l 217 0 m 336 1303 q 351 1303 343 1303 q 366 1303 358 1303 q 381 1303 374 1303 q 428 1297 406 1303 q 490 1267 451 1292 q 538 1234 513 1253 q 586 1193 563 1215 q 631 1144 610 1171 q 672 1088 653 1118 q 638 1076 654 1081 q 597 1072 621 1072 q 560 1080 574 1072 q 531 1106 547 1088 q 457 1171 497 1142 q 344 1232 417 1200 l 424 1215 q 378 1215 401 1215 q 332 1215 356 1215 l 410 1233 q 278 1151 329 1193 q 199 1071 226 1110 l 190 1071 q 139 1074 158 1071 q 111 1085 119 1078 q 103 1101 103 1093 q 111 1126 103 1110 q 140 1167 119 1143 q 181 1207 160 1188 q 228 1244 203 1226 q 280 1277 253 1263 q 336 1303 307 1292 m 489 1438 q 534 1451 517 1438 q 567 1503 551 1464 l 575 1503 q 585 1477 582 1492 q 589 1446 589 1463 q 585 1410 589 1426 q 576 1381 582 1393 q 547 1345 567 1358 q 497 1332 526 1332 q 428 1347 458 1332 q 372 1380 397 1361 q 319 1413 346 1399 q 263 1428 293 1428 q 216 1412 232 1428 q 182 1364 200 1396 l 174 1364 q 165 1387 168 1374 q 161 1417 161 1400 q 165 1453 161 1438 q 175 1485 168 1469 q 207 1522 185 1508 q 263 1535 229 1535 q 324 1519 296 1535 q 377 1485 351 1504 q 430 1452 403 1467 q 489 1438 457 1438 z "},"Ệ":{"ha":764,"x_min":58,"x_max":700,"o":"m 321 -125 q 338 -122 329 -124 q 356 -120 347 -121 q 373 -119 364 -119 q 390 -119 382 -119 q 465 -133 436 -119 q 494 -183 494 -146 l 494 -274 q 478 -276 488 -275 q 461 -278 469 -278 q 444 -279 453 -279 q 425 -279 435 -279 q 351 -265 381 -279 q 321 -215 321 -251 l 321 -125 m 61 972 l 640 972 q 677 958 664 972 q 695 926 690 944 q 700 892 700 907 q 699 865 700 876 q 693 846 697 854 l 103 846 q 77 858 88 846 q 63 891 67 871 q 58 932 58 911 q 59 952 58 942 q 61 972 60 963 m 207 515 l 542 515 q 578 503 564 515 q 600 470 593 490 q 607 428 607 450 q 606 417 607 422 q 606 408 606 413 q 604 400 606 404 l 207 400 l 207 515 m 217 0 q 183 9 199 0 q 153 34 167 18 q 133 72 140 50 q 125 115 125 93 q 125 269 125 190 q 125 428 125 349 q 125 585 125 507 q 125 737 125 663 q 125 879 125 811 l 242 879 l 224 838 q 249 799 242 822 q 257 742 257 776 q 257 590 257 668 q 257 435 257 513 q 257 279 257 357 q 257 126 257 201 l 613 126 q 680 108 660 126 q 700 46 700 89 q 699 21 700 33 q 694 0 697 8 l 217 0 m 336 1303 q 351 1303 344 1303 q 366 1303 358 1303 q 381 1303 374 1303 q 429 1297 406 1303 q 490 1267 453 1292 q 538 1233 513 1251 q 586 1192 563 1214 q 631 1144 610 1171 q 672 1086 653 1117 q 638 1076 654 1079 q 597 1072 621 1072 q 560 1080 574 1072 q 531 1106 547 1088 q 457 1170 497 1140 q 344 1232 417 1200 l 425 1214 q 378 1214 401 1214 q 332 1214 356 1214 l 410 1233 q 278 1151 329 1193 q 199 1069 226 1108 l 190 1069 q 139 1074 158 1069 q 111 1085 119 1078 q 103 1100 103 1092 q 111 1126 103 1108 q 140 1165 119 1143 q 182 1207 160 1188 q 228 1244 204 1226 q 280 1276 253 1261 q 336 1303 307 1292 z "},"F":{"ha":764,"x_min":56,"x_max":706,"o":"m 285 -3 q 261 -8 272 -6 q 236 -10 250 -10 q 182 1 204 -10 q 148 35 160 13 q 136 92 136 58 q 136 289 136 190 q 136 485 136 388 q 136 682 136 583 q 136 879 136 781 l 253 879 l 236 838 q 262 799 254 822 q 269 740 269 775 q 269 538 269 642 q 269 330 269 435 q 269 121 269 225 q 272 52 269 78 q 285 -3 275 26 m 58 972 l 647 972 q 683 958 671 972 q 701 924 696 943 q 706 890 706 906 q 705 874 706 882 q 703 858 704 865 q 700 846 701 851 l 104 846 q 75 858 86 846 q 60 891 64 871 q 56 932 56 911 q 56 952 56 942 q 58 972 57 963 m 213 446 l 569 446 q 626 419 607 446 q 644 354 644 392 q 644 343 644 350 q 644 330 644 336 q 642 318 643 324 l 213 318 l 213 446 z "},"G":{"ha":903,"x_min":90,"x_max":842,"o":"m 463 449 l 785 449 q 818 438 806 449 q 836 406 831 428 q 842 347 842 385 l 842 333 l 569 333 q 518 340 539 333 q 484 356 497 346 q 465 383 471 367 q 458 421 458 400 q 460 437 458 429 q 463 449 461 444 m 529 1000 q 582 997 557 1000 q 629 986 607 993 q 671 968 651 979 q 706 942 690 957 q 753 874 738 911 q 768 786 768 838 q 768 742 768 764 q 768 697 768 719 q 768 654 768 675 q 747 649 760 650 q 721 647 735 647 q 661 660 681 647 q 642 703 642 672 q 642 789 642 756 q 638 848 642 822 q 624 901 635 874 l 660 847 q 606 873 635 867 q 542 879 576 879 q 412 842 471 879 q 309 736 353 804 q 242 577 265 668 q 218 381 218 486 l 218 363 q 219 319 218 340 q 221 276 219 297 q 308 145 247 192 q 465 99 369 99 q 583 122 533 99 q 659 187 632 146 q 686 282 686 228 q 685 315 686 300 q 682 342 683 329 q 676 368 681 356 l 779 368 l 758 326 q 781 290 775 311 q 788 236 788 268 q 765 132 788 176 q 704 53 742 88 q 640 10 679 28 q 557 -18 601 -8 q 467 -28 513 -28 q 308 0 378 -28 q 189 77 238 28 q 115 195 140 126 q 90 343 90 264 l 90 381 q 122 631 90 517 q 213 827 154 744 q 352 955 272 910 q 529 1000 432 1000 z "},"Ĝ":{"ha":903,"x_min":90,"x_max":842,"o":"m 463 449 l 785 449 q 818 438 806 449 q 836 406 831 428 q 842 347 842 385 l 842 333 l 569 333 q 518 340 539 333 q 484 356 497 346 q 465 383 471 367 q 458 421 458 400 q 460 437 458 429 q 463 449 461 444 m 529 1000 q 582 997 557 1000 q 629 986 607 993 q 671 968 651 979 q 706 942 690 957 q 753 874 738 911 q 768 786 768 838 q 768 742 768 764 q 768 697 768 719 q 768 654 768 675 q 747 649 760 650 q 721 647 735 647 q 661 660 681 647 q 642 703 642 672 q 642 789 642 756 q 638 848 642 822 q 624 901 635 874 l 660 847 q 606 873 635 867 q 542 879 576 879 q 412 842 471 879 q 309 736 353 804 q 242 577 265 668 q 218 381 218 486 l 218 363 q 219 319 218 340 q 221 276 219 297 q 308 145 247 192 q 465 99 369 99 q 583 122 533 99 q 659 187 632 146 q 686 282 686 228 q 685 315 686 300 q 682 342 683 329 q 676 368 681 356 l 779 368 l 758 326 q 781 290 775 311 q 788 236 788 268 q 765 132 788 176 q 704 53 742 88 q 640 10 679 28 q 557 -18 601 -8 q 467 -28 513 -28 q 308 0 378 -28 q 189 77 238 28 q 115 195 140 126 q 90 343 90 264 l 90 381 q 122 631 90 517 q 213 827 154 744 q 352 955 272 910 q 529 1000 432 1000 m 424 1303 q 438 1303 431 1303 q 453 1303 446 1303 q 468 1303 461 1303 q 516 1297 493 1303 q 578 1267 539 1292 q 625 1234 600 1253 q 674 1193 650 1215 q 719 1144 697 1171 q 760 1088 740 1118 q 725 1076 742 1081 q 685 1072 708 1072 q 648 1080 661 1072 q 618 1106 635 1088 q 544 1171 585 1142 q 432 1232 504 1200 l 511 1215 q 466 1215 489 1215 q 419 1215 443 1215 l 497 1233 q 365 1151 417 1193 q 286 1071 314 1110 l 278 1071 q 226 1074 246 1071 q 199 1085 207 1078 q 190 1101 190 1093 q 199 1126 190 1110 q 228 1167 207 1143 q 269 1207 247 1188 q 315 1244 290 1226 q 367 1277 340 1263 q 424 1303 394 1292 z "},"Ğ":{"ha":903,"x_min":90,"x_max":842,"o":"m 463 449 l 785 449 q 818 438 806 449 q 836 406 831 428 q 842 347 842 385 l 842 333 l 569 333 q 518 340 539 333 q 484 356 497 346 q 465 383 471 367 q 458 421 458 400 q 460 437 458 429 q 463 449 461 444 m 529 1000 q 582 997 557 1000 q 629 986 607 993 q 671 968 651 979 q 706 942 690 957 q 753 874 738 911 q 768 786 768 838 q 768 742 768 764 q 768 697 768 719 q 768 654 768 675 q 747 649 760 650 q 721 647 735 647 q 661 660 681 647 q 642 703 642 672 q 642 789 642 756 q 638 848 642 822 q 624 901 635 874 l 660 847 q 606 873 635 867 q 542 879 576 879 q 412 842 471 879 q 309 736 353 804 q 242 577 265 668 q 218 381 218 486 l 218 363 q 219 319 218 340 q 221 276 219 297 q 308 145 247 192 q 465 99 369 99 q 583 122 533 99 q 659 187 632 146 q 686 282 686 228 q 685 315 686 300 q 682 342 683 329 q 676 368 681 356 l 779 368 l 758 326 q 781 290 775 311 q 788 236 788 268 q 765 132 788 176 q 704 53 742 88 q 640 10 679 28 q 557 -18 601 -8 q 467 -28 513 -28 q 308 0 378 -28 q 189 77 238 28 q 115 195 140 126 q 90 343 90 264 l 90 381 q 122 631 90 517 q 213 827 154 744 q 352 955 272 910 q 529 1000 432 1000 m 629 1306 q 670 1301 653 1306 q 701 1288 688 1296 q 712 1272 710 1281 q 708 1250 714 1263 q 661 1171 693 1204 q 582 1119 629 1138 q 471 1101 535 1101 l 460 1101 q 349 1119 397 1101 q 269 1171 301 1138 q 222 1250 238 1204 q 219 1272 217 1263 q 229 1288 221 1281 q 260 1301 243 1296 q 301 1306 278 1306 q 360 1230 322 1256 q 465 1199 397 1204 q 571 1230 533 1204 q 629 1306 608 1256 z "},"Ġ":{"ha":903,"x_min":90,"x_max":842,"o":"m 372 1251 q 390 1257 381 1254 q 410 1261 400 1260 q 433 1263 421 1263 q 454 1264 444 1264 q 529 1248 501 1264 q 557 1194 557 1232 l 557 1110 q 541 1105 550 1107 q 523 1101 532 1103 q 503 1099 514 1099 q 482 1099 493 1099 q 403 1120 433 1099 q 372 1178 372 1142 l 372 1251 m 463 449 l 785 449 q 818 438 806 449 q 836 406 831 428 q 842 347 842 385 l 842 333 l 569 333 q 518 340 539 333 q 484 356 497 346 q 465 383 471 367 q 458 421 458 400 q 460 437 458 429 q 463 449 461 444 m 529 1000 q 582 997 557 1000 q 629 986 607 993 q 671 968 651 979 q 706 942 690 957 q 753 874 738 911 q 768 786 768 838 q 768 742 768 764 q 768 697 768 719 q 768 654 768 675 q 747 649 760 650 q 721 647 735 647 q 661 660 681 647 q 642 703 642 672 q 642 789 642 756 q 638 848 642 822 q 624 901 635 874 l 660 847 q 606 873 635 867 q 542 879 576 879 q 412 842 471 879 q 309 736 353 804 q 242 577 265 668 q 218 381 218 486 l 218 363 q 219 319 218 340 q 221 276 219 297 q 308 145 247 192 q 465 99 369 99 q 583 122 533 99 q 659 187 632 146 q 686 282 686 228 q 685 315 686 300 q 682 342 683 329 q 676 368 681 356 l 779 368 l 758 326 q 781 290 775 311 q 788 236 788 268 q 765 132 788 176 q 704 53 742 88 q 640 10 679 28 q 557 -18 601 -8 q 467 -28 513 -28 q 308 0 378 -28 q 189 77 238 28 q 115 195 140 126 q 90 343 90 264 l 90 381 q 122 631 90 517 q 213 827 154 744 q 352 955 272 910 q 529 1000 432 1000 z "},"Ģ":{"ha":903,"x_min":90,"x_max":842,"o":"m 463 449 l 785 449 q 818 438 806 449 q 836 406 831 428 q 842 347 842 385 l 842 333 l 569 333 q 518 340 539 333 q 484 356 497 346 q 465 383 471 367 q 458 421 458 400 q 460 437 458 429 q 463 449 461 444 m 529 1000 q 582 997 557 1000 q 629 986 607 993 q 671 968 651 979 q 706 942 690 957 q 753 874 738 911 q 768 786 768 838 q 768 742 768 764 q 768 697 768 719 q 768 654 768 675 q 747 649 760 650 q 721 647 735 647 q 661 660 681 647 q 642 703 642 672 q 642 789 642 756 q 638 848 642 822 q 624 901 635 874 l 660 847 q 606 873 635 867 q 542 879 576 879 q 412 842 471 879 q 309 736 353 804 q 242 577 265 668 q 218 381 218 486 l 218 363 q 219 319 218 340 q 221 276 219 297 q 308 145 247 192 q 465 99 369 99 q 583 122 533 99 q 659 187 632 146 q 686 282 686 228 q 685 315 686 300 q 682 342 683 329 q 676 368 681 356 l 779 368 l 758 326 q 781 290 775 311 q 788 236 788 268 q 765 132 788 176 q 704 53 742 88 q 640 10 679 28 q 557 -18 601 -8 q 467 -28 513 -28 q 308 0 378 -28 q 189 77 238 28 q 115 195 140 126 q 90 343 90 264 l 90 381 q 122 631 90 517 q 213 827 154 744 q 352 955 272 910 q 529 1000 432 1000 m 424 -97 q 441 -92 433 -93 q 458 -90 449 -90 q 476 -89 467 -89 q 528 -101 511 -89 q 546 -140 546 -112 q 538 -213 546 -176 q 518 -281 531 -250 q 490 -337 506 -312 q 467 -363 479 -357 q 440 -369 456 -369 q 403 -366 421 -369 q 371 -354 386 -362 q 403 -278 392 -317 q 419 -195 414 -239 q 424 -97 424 -151 z "},"Ǧ":{"ha":903,"x_min":90,"x_max":842,"o":"m 508 1089 q 494 1089 501 1089 q 480 1089 488 1089 q 464 1089 472 1089 q 416 1094 439 1089 q 354 1125 393 1100 q 307 1158 332 1139 q 258 1199 282 1176 q 213 1247 235 1221 q 172 1304 192 1274 q 207 1316 190 1313 q 247 1319 224 1319 q 285 1312 271 1319 q 314 1286 299 1304 q 388 1221 347 1250 q 500 1158 428 1192 l 421 1176 q 467 1176 444 1176 q 513 1176 490 1176 l 435 1157 q 567 1240 515 1199 q 646 1321 618 1282 l 654 1321 q 706 1317 688 1321 q 733 1307 725 1314 q 742 1290 742 1300 q 734 1265 742 1282 q 704 1225 726 1249 q 663 1185 685 1204 q 616 1147 640 1165 q 565 1115 592 1129 q 508 1089 538 1100 m 463 449 l 785 449 q 818 438 806 449 q 836 406 831 428 q 842 347 842 385 l 842 333 l 569 333 q 518 340 539 333 q 484 356 497 346 q 465 383 471 367 q 458 421 458 400 q 460 437 458 429 q 463 449 461 444 m 529 1000 q 582 997 557 1000 q 629 986 607 993 q 671 968 651 979 q 706 942 690 957 q 753 874 738 911 q 768 786 768 838 q 768 742 768 764 q 768 697 768 719 q 768 654 768 675 q 747 649 760 650 q 721 647 735 647 q 661 660 681 647 q 642 703 642 672 q 642 789 642 756 q 638 848 642 822 q 624 901 635 874 l 660 847 q 606 873 635 867 q 542 879 576 879 q 412 842 471 879 q 309 736 353 804 q 242 577 265 668 q 218 381 218 486 l 218 363 q 219 319 218 340 q 221 276 219 297 q 308 145 247 192 q 465 99 369 99 q 583 122 533 99 q 659 187 632 146 q 686 282 686 228 q 685 315 686 300 q 682 342 683 329 q 676 368 681 356 l 779 368 l 758 326 q 781 290 775 311 q 788 236 788 268 q 765 132 788 176 q 704 53 742 88 q 640 10 679 28 q 557 -18 601 -8 q 467 -28 513 -28 q 308 0 378 -28 q 189 77 238 28 q 115 195 140 126 q 90 343 90 264 l 90 381 q 122 631 90 517 q 213 827 154 744 q 352 955 272 910 q 529 1000 432 1000 z "},"Ḡ":{"ha":903,"x_min":90,"x_max":842,"o":"m 463 449 l 785 449 q 818 438 806 449 q 836 406 831 428 q 842 347 842 385 l 842 333 l 569 333 q 518 340 539 333 q 484 356 497 346 q 465 383 471 367 q 458 421 458 400 q 460 437 458 429 q 463 449 461 444 m 529 1000 q 582 997 557 1000 q 629 986 607 993 q 671 968 651 979 q 706 942 690 957 q 753 874 738 911 q 768 786 768 838 q 768 742 768 764 q 768 697 768 719 q 768 654 768 675 q 747 649 760 650 q 721 647 735 647 q 661 660 681 647 q 642 703 642 672 q 642 789 642 756 q 638 848 642 822 q 624 901 635 874 l 660 847 q 606 873 635 867 q 542 879 576 879 q 412 842 471 879 q 309 736 353 804 q 242 577 265 668 q 218 381 218 486 l 218 363 q 219 319 218 340 q 221 276 219 297 q 308 145 247 192 q 465 99 369 99 q 583 122 533 99 q 659 187 632 146 q 686 282 686 228 q 685 315 686 300 q 682 342 683 329 q 676 368 681 356 l 779 368 l 758 326 q 781 290 775 311 q 788 236 788 268 q 765 132 788 176 q 704 53 742 88 q 640 10 679 28 q 557 -18 601 -8 q 467 -28 513 -28 q 308 0 378 -28 q 189 77 238 28 q 115 195 140 126 q 90 343 90 264 l 90 381 q 122 631 90 517 q 213 827 154 744 q 352 955 272 910 q 529 1000 432 1000 m 193 1257 l 676 1257 q 725 1240 713 1257 q 738 1186 738 1222 q 737 1173 738 1179 q 735 1160 736 1167 q 733 1147 735 1153 l 296 1147 q 231 1157 253 1147 q 201 1187 208 1167 q 193 1239 193 1207 q 193 1245 193 1242 q 193 1251 193 1249 q 193 1257 193 1254 z "},"H":{"ha":903,"x_min":56,"x_max":794,"o":"m 119 978 q 146 983 133 982 q 172 985 158 985 q 244 956 222 985 q 265 878 265 928 q 265 657 265 768 q 265 435 265 546 q 265 214 265 325 q 265 -8 265 103 q 243 -12 254 -11 q 219 -12 232 -12 q 174 -5 193 -12 q 143 23 154 3 q 132 79 132 43 q 132 329 132 204 q 132 578 132 454 q 132 828 132 703 q 130 906 132 868 q 119 978 128 943 m 56 474 l 542 474 q 600 467 575 474 q 644 446 625 461 l 689 467 l 689 347 l 108 347 q 83 355 93 347 q 66 376 72 363 q 58 410 60 390 q 56 451 56 429 l 56 474 m 794 -6 q 769 -10 782 -8 q 743 -12 757 -12 q 694 0 714 -12 q 663 38 674 13 q 651 104 651 64 q 651 323 651 214 q 651 541 651 432 q 651 760 651 650 q 651 981 651 869 q 672 984 661 983 q 694 985 683 985 q 732 981 715 985 q 760 969 749 978 q 778 945 772 960 q 785 906 785 931 q 785 724 785 817 q 785 535 785 631 q 785 341 785 439 q 785 146 785 243 q 786 69 785 107 q 794 -6 788 31 z "},"Ĥ":{"ha":903,"x_min":56,"x_max":794,"o":"m 119 978 q 146 983 133 982 q 172 985 158 985 q 244 956 222 985 q 265 878 265 928 q 265 657 265 768 q 265 435 265 546 q 265 214 265 325 q 265 -8 265 103 q 243 -12 254 -11 q 219 -12 232 -12 q 174 -5 193 -12 q 143 23 154 3 q 132 79 132 43 q 132 329 132 204 q 132 578 132 454 q 132 828 132 703 q 130 906 132 868 q 119 978 128 943 m 56 474 l 542 474 q 600 467 575 474 q 644 446 625 461 l 689 467 l 689 347 l 108 347 q 83 355 93 347 q 66 376 72 363 q 58 410 60 390 q 56 451 56 429 l 56 474 m 794 -6 q 769 -10 782 -8 q 743 -12 757 -12 q 694 0 714 -12 q 663 38 674 13 q 651 104 651 64 q 651 323 651 214 q 651 541 651 432 q 651 760 651 650 q 651 981 651 869 q 672 984 661 983 q 694 985 683 985 q 732 981 715 985 q 760 969 749 978 q 778 945 772 960 q 785 906 785 931 q 785 724 785 817 q 785 535 785 631 q 785 341 785 439 q 785 146 785 243 q 786 69 785 107 q 794 -6 788 31 m 383 1303 q 398 1303 390 1303 q 413 1303 406 1303 q 428 1303 421 1303 q 476 1297 453 1303 q 538 1267 499 1292 q 585 1234 560 1253 q 633 1193 610 1215 q 678 1144 657 1171 q 719 1088 700 1118 q 685 1076 701 1081 q 644 1072 668 1072 q 608 1080 621 1072 q 578 1106 594 1088 q 504 1171 544 1142 q 392 1232 464 1200 l 471 1215 q 426 1215 449 1215 q 379 1215 403 1215 l 457 1233 q 325 1151 376 1193 q 246 1071 274 1110 l 238 1071 q 186 1074 206 1071 q 158 1085 167 1078 q 150 1101 150 1093 q 158 1126 150 1110 q 188 1167 167 1143 q 228 1207 207 1188 q 275 1244 250 1226 q 327 1277 300 1263 q 383 1303 354 1292 z "},"Ḥ":{"ha":903,"x_min":56,"x_max":794,"o":"m 350 -125 q 366 -122 357 -124 q 383 -120 375 -121 q 401 -119 392 -119 q 419 -119 411 -119 q 494 -133 465 -119 q 524 -183 524 -146 l 524 -274 q 506 -276 515 -275 q 489 -278 497 -278 q 472 -279 481 -279 q 454 -279 463 -279 q 379 -265 408 -279 q 350 -215 350 -251 l 350 -125 m 119 978 q 146 983 133 982 q 172 985 158 985 q 244 956 222 985 q 265 878 265 928 q 265 657 265 768 q 265 435 265 546 q 265 214 265 325 q 265 -8 265 103 q 243 -12 254 -11 q 219 -12 232 -12 q 174 -5 193 -12 q 143 23 154 3 q 132 79 132 43 q 132 329 132 204 q 132 578 132 454 q 132 828 132 703 q 130 906 132 868 q 119 978 128 943 m 56 474 l 542 474 q 600 467 575 474 q 644 446 625 461 l 689 467 l 689 347 l 108 347 q 83 355 93 347 q 66 376 72 363 q 58 410 60 390 q 56 451 56 429 l 56 474 m 794 -6 q 769 -10 782 -8 q 743 -12 757 -12 q 694 0 714 -12 q 663 38 674 13 q 651 104 651 64 q 651 323 651 214 q 651 541 651 432 q 651 760 651 650 q 651 981 651 869 q 672 984 661 983 q 694 985 683 985 q 732 981 715 985 q 760 969 749 978 q 778 945 772 960 q 785 906 785 931 q 785 724 785 817 q 785 535 785 631 q 785 341 785 439 q 785 146 785 243 q 786 69 785 107 q 794 -6 788 31 z "},"Ḫ":{"ha":903,"x_min":56,"x_max":794,"o":"m 436 -192 q 544 -158 506 -187 q 601 -68 583 -129 q 638 -75 621 -69 q 668 -90 654 -81 q 678 -106 676 -96 q 674 -132 679 -117 q 623 -217 656 -182 q 545 -271 590 -253 q 442 -289 500 -289 l 431 -289 q 328 -271 374 -289 q 251 -217 283 -253 q 200 -132 219 -182 q 196 -106 194 -117 q 206 -90 197 -96 q 235 -75 218 -81 q 271 -68 251 -69 q 328 -158 290 -129 q 436 -192 367 -187 m 119 978 q 146 983 133 982 q 172 985 158 985 q 244 956 222 985 q 265 878 265 928 q 265 657 265 768 q 265 435 265 546 q 265 214 265 325 q 265 -8 265 103 q 243 -12 254 -11 q 219 -12 232 -12 q 174 -5 193 -12 q 143 23 154 3 q 132 79 132 43 q 132 329 132 204 q 132 578 132 454 q 132 828 132 703 q 130 906 132 868 q 119 978 128 943 m 56 474 l 542 474 q 600 467 575 474 q 644 446 625 461 l 689 467 l 689 347 l 108 347 q 83 355 93 347 q 66 376 72 363 q 58 410 60 390 q 56 451 56 429 l 56 474 m 794 -6 q 769 -10 782 -8 q 743 -12 757 -12 q 694 0 714 -12 q 663 38 674 13 q 651 104 651 64 q 651 323 651 214 q 651 541 651 432 q 651 760 651 650 q 651 981 651 869 q 672 984 661 983 q 694 985 683 985 q 732 981 715 985 q 760 969 749 978 q 778 945 772 960 q 785 906 785 931 q 785 724 785 817 q 785 535 785 631 q 785 341 785 439 q 785 146 785 243 q 786 69 785 107 q 794 -6 788 31 z "},"I":{"ha":694,"x_min":81,"x_max":614,"o":"m 414 90 l 296 90 l 314 133 q 290 175 299 149 q 281 236 281 201 q 281 394 281 314 q 281 555 281 474 q 281 717 281 636 q 281 882 281 799 l 399 882 l 381 839 q 406 797 397 824 q 414 736 414 771 q 414 578 414 658 q 414 417 414 499 q 414 254 414 336 q 414 90 414 172 m 611 0 l 136 0 q 110 6 121 0 q 93 22 100 11 q 83 47 86 32 q 81 78 81 61 q 81 97 81 88 q 83 113 82 106 q 86 126 85 121 l 507 126 q 572 115 549 126 q 605 83 596 104 q 614 35 614 63 q 614 23 614 29 q 613 11 614 17 q 611 0 611 6 m 86 972 l 560 972 q 603 949 593 972 q 614 890 614 926 q 614 879 614 885 q 613 868 614 874 q 611 857 613 863 q 608 846 610 851 l 189 846 q 108 868 135 846 q 81 935 81 890 q 81 946 81 940 q 81 956 81 951 q 83 965 82 961 q 86 972 85 969 z "},"Ì":{"ha":694,"x_min":81,"x_max":614,"o":"m 414 90 l 296 90 l 314 133 q 290 175 299 149 q 281 236 281 201 q 281 394 281 314 q 281 555 281 474 q 281 717 281 636 q 281 882 281 799 l 399 882 l 381 839 q 406 797 397 824 q 414 736 414 771 q 414 578 414 658 q 414 417 414 499 q 414 254 414 336 q 414 90 414 172 m 611 0 l 136 0 q 110 6 121 0 q 93 22 100 11 q 83 47 86 32 q 81 78 81 61 q 81 97 81 88 q 83 113 82 106 q 86 126 85 121 l 507 126 q 572 115 549 126 q 605 83 596 104 q 614 35 614 63 q 614 23 614 29 q 613 11 614 17 q 611 0 611 6 m 86 972 l 560 972 q 603 949 593 972 q 614 890 614 926 q 614 879 614 885 q 613 868 614 874 q 611 857 613 863 q 608 846 610 851 l 189 846 q 108 868 135 846 q 81 935 81 890 q 81 946 81 940 q 81 956 81 951 q 83 965 82 961 q 86 972 85 969 m 250 1299 q 285 1225 263 1260 q 342 1160 308 1190 q 419 1097 376 1129 q 394 1088 407 1092 q 370 1081 382 1083 q 344 1079 358 1079 q 306 1083 324 1079 q 271 1097 289 1086 q 226 1125 247 1110 q 188 1158 206 1140 q 158 1197 171 1176 q 136 1236 144 1217 q 132 1265 129 1253 q 150 1285 135 1278 q 179 1294 164 1290 q 212 1299 194 1297 q 250 1299 229 1300 z "},"Í":{"ha":694,"x_min":81,"x_max":614,"o":"m 414 90 l 296 90 l 314 133 q 290 175 299 149 q 281 236 281 201 q 281 394 281 314 q 281 555 281 474 q 281 717 281 636 q 281 882 281 799 l 399 882 l 381 839 q 406 797 397 824 q 414 736 414 771 q 414 578 414 658 q 414 417 414 499 q 414 254 414 336 q 414 90 414 172 m 611 0 l 136 0 q 110 6 121 0 q 93 22 100 11 q 83 47 86 32 q 81 78 81 61 q 81 97 81 88 q 83 113 82 106 q 86 126 85 121 l 507 126 q 572 115 549 126 q 605 83 596 104 q 614 35 614 63 q 614 23 614 29 q 613 11 614 17 q 611 0 611 6 m 86 972 l 560 972 q 603 949 593 972 q 614 890 614 926 q 614 879 614 885 q 613 868 614 874 q 611 857 613 863 q 608 846 610 851 l 189 846 q 108 868 135 846 q 81 935 81 890 q 81 946 81 940 q 81 956 81 951 q 83 965 82 961 q 86 972 85 969 m 444 1290 q 483 1289 465 1290 q 514 1285 500 1288 q 542 1278 528 1282 q 562 1258 558 1271 q 560 1231 565 1246 q 539 1189 551 1208 q 509 1151 526 1169 q 472 1118 492 1133 q 428 1090 451 1103 q 391 1075 410 1079 q 350 1071 372 1071 q 325 1073 338 1071 q 300 1079 313 1075 q 275 1090 288 1083 q 352 1152 318 1121 q 410 1217 386 1183 q 444 1290 433 1251 z "},"Î":{"ha":694,"x_min":72,"x_max":642,"o":"m 414 90 l 296 90 l 314 133 q 290 175 299 149 q 281 236 281 201 q 281 394 281 314 q 281 555 281 474 q 281 717 281 636 q 281 882 281 799 l 399 882 l 381 839 q 406 797 397 824 q 414 736 414 771 q 414 578 414 658 q 414 417 414 499 q 414 254 414 336 q 414 90 414 172 m 611 0 l 136 0 q 110 6 121 0 q 93 22 100 11 q 83 47 86 32 q 81 78 81 61 q 81 97 81 88 q 83 113 82 106 q 86 126 85 121 l 507 126 q 572 115 549 126 q 605 83 596 104 q 614 35 614 63 q 614 23 614 29 q 613 11 614 17 q 611 0 611 6 m 86 972 l 560 972 q 603 949 593 972 q 614 890 614 926 q 614 879 614 885 q 613 868 614 874 q 611 857 613 863 q 608 846 610 851 l 189 846 q 108 868 135 846 q 81 935 81 890 q 81 946 81 940 q 81 956 81 951 q 83 965 82 961 q 86 972 85 969 m 306 1303 q 320 1303 313 1303 q 335 1303 328 1303 q 350 1303 343 1303 q 398 1297 375 1303 q 460 1267 421 1292 q 507 1234 482 1253 q 556 1193 532 1215 q 601 1144 579 1171 q 642 1088 622 1118 q 607 1076 624 1081 q 567 1072 590 1072 q 530 1080 543 1072 q 500 1106 517 1088 q 426 1171 467 1142 q 314 1232 386 1200 l 393 1215 q 348 1215 371 1215 q 301 1215 325 1215 l 379 1233 q 247 1151 299 1193 q 168 1071 196 1110 l 160 1071 q 108 1074 128 1071 q 81 1085 89 1078 q 72 1101 72 1093 q 81 1126 72 1110 q 110 1167 89 1143 q 151 1207 129 1188 q 197 1244 172 1226 q 249 1277 222 1263 q 306 1303 276 1292 z "},"Ï":{"ha":694,"x_min":81,"x_max":614,"o":"m 414 90 l 296 90 l 314 133 q 290 175 299 149 q 281 236 281 201 q 281 394 281 314 q 281 555 281 474 q 281 717 281 636 q 281 882 281 799 l 399 882 l 381 839 q 406 797 397 824 q 414 736 414 771 q 414 578 414 658 q 414 417 414 499 q 414 254 414 336 q 414 90 414 172 m 611 0 l 136 0 q 110 6 121 0 q 93 22 100 11 q 83 47 86 32 q 81 78 81 61 q 81 97 81 88 q 83 113 82 106 q 86 126 85 121 l 507 126 q 572 115 549 126 q 605 83 596 104 q 614 35 614 63 q 614 23 614 29 q 613 11 614 17 q 611 0 611 6 m 86 972 l 560 972 q 603 949 593 972 q 614 890 614 926 q 614 879 614 885 q 613 868 614 874 q 611 857 613 863 q 608 846 610 851 l 189 846 q 108 868 135 846 q 81 935 81 890 q 81 946 81 940 q 81 956 81 951 q 83 965 82 961 q 86 972 85 969 m 125 1261 q 156 1265 139 1264 q 186 1265 172 1265 q 233 1260 213 1265 q 267 1243 254 1256 q 281 1208 281 1231 l 281 1110 q 250 1107 267 1108 q 218 1106 233 1106 q 173 1111 194 1106 q 138 1129 151 1117 q 125 1164 125 1142 l 125 1261 m 414 1261 q 444 1265 428 1264 q 475 1265 461 1265 q 522 1260 501 1265 q 556 1243 543 1256 q 569 1208 569 1231 l 569 1110 q 539 1107 556 1108 q 507 1106 522 1106 q 462 1111 483 1106 q 427 1129 440 1117 q 414 1164 414 1142 l 414 1261 z "},"Ĩ":{"ha":694,"x_min":69,"x_max":624,"o":"m 414 90 l 296 90 l 314 133 q 290 175 299 149 q 281 236 281 201 q 281 394 281 314 q 281 555 281 474 q 281 717 281 636 q 281 882 281 799 l 399 882 l 381 839 q 406 797 397 824 q 414 736 414 771 q 414 578 414 658 q 414 417 414 499 q 414 254 414 336 q 414 90 414 172 m 611 0 l 136 0 q 110 6 121 0 q 93 22 100 11 q 83 47 86 32 q 81 78 81 61 q 81 97 81 88 q 83 113 82 106 q 86 126 85 121 l 507 126 q 572 115 549 126 q 605 83 596 104 q 614 35 614 63 q 614 23 614 29 q 613 11 614 17 q 611 0 611 6 m 86 972 l 560 972 q 603 949 593 972 q 614 890 614 926 q 614 879 614 885 q 613 868 614 874 q 611 857 613 863 q 608 846 610 851 l 189 846 q 108 868 135 846 q 81 935 81 890 q 81 946 81 940 q 81 956 81 951 q 83 965 82 961 q 86 972 85 969 m 485 1194 q 549 1210 521 1194 q 606 1258 578 1226 l 614 1258 q 620 1235 618 1250 q 622 1208 622 1221 q 619 1172 622 1186 q 610 1147 615 1158 q 567 1104 596 1119 q 496 1089 539 1089 q 422 1104 458 1089 q 351 1140 386 1119 q 281 1175 317 1160 q 207 1190 244 1190 q 143 1175 171 1190 q 86 1126 115 1160 l 78 1126 q 72 1151 74 1138 q 69 1176 69 1164 q 73 1212 69 1199 q 82 1236 76 1225 q 124 1280 96 1264 q 196 1296 153 1296 q 269 1281 233 1296 q 341 1245 306 1265 q 412 1210 376 1225 q 485 1194 447 1194 z "},"Ī":{"ha":694,"x_min":75,"x_max":619,"o":"m 414 90 l 296 90 l 314 133 q 290 175 299 149 q 281 236 281 201 q 281 394 281 314 q 281 555 281 474 q 281 717 281 636 q 281 882 281 799 l 399 882 l 381 839 q 406 797 397 824 q 414 736 414 771 q 414 578 414 658 q 414 417 414 499 q 414 254 414 336 q 414 90 414 172 m 611 0 l 136 0 q 110 6 121 0 q 93 22 100 11 q 83 47 86 32 q 81 78 81 61 q 81 97 81 88 q 83 113 82 106 q 86 126 85 121 l 507 126 q 572 115 549 126 q 605 83 596 104 q 614 35 614 63 q 614 23 614 29 q 613 11 614 17 q 611 0 611 6 m 86 972 l 560 972 q 603 949 593 972 q 614 890 614 926 q 614 879 614 885 q 613 868 614 874 q 611 857 613 863 q 608 846 610 851 l 189 846 q 108 868 135 846 q 81 935 81 890 q 81 946 81 940 q 81 956 81 951 q 83 965 82 961 q 86 972 85 969 m 74 1226 l 558 1226 q 607 1209 594 1226 q 619 1156 619 1192 q 618 1135 619 1146 q 615 1117 617 1125 l 176 1117 q 113 1126 135 1117 q 82 1156 90 1136 q 74 1207 74 1176 q 74 1217 74 1213 q 74 1226 74 1222 z "},"Ĭ":{"ha":694,"x_min":81,"x_max":614,"o":"m 414 90 l 296 90 l 314 133 q 290 175 299 149 q 281 236 281 201 q 281 394 281 314 q 281 555 281 474 q 281 717 281 636 q 281 882 281 799 l 399 882 l 381 839 q 406 797 397 824 q 414 736 414 771 q 414 578 414 658 q 414 417 414 499 q 414 254 414 336 q 414 90 414 172 m 611 0 l 136 0 q 110 6 121 0 q 93 22 100 11 q 83 47 86 32 q 81 78 81 61 q 81 97 81 88 q 83 113 82 106 q 86 126 85 121 l 507 126 q 572 115 549 126 q 605 83 596 104 q 614 35 614 63 q 614 23 614 29 q 613 11 614 17 q 611 0 611 6 m 86 972 l 560 972 q 603 949 593 972 q 614 890 614 926 q 614 879 614 885 q 613 868 614 874 q 611 857 613 863 q 608 846 610 851 l 189 846 q 108 868 135 846 q 81 935 81 890 q 81 946 81 940 q 81 956 81 951 q 83 965 82 961 q 86 972 85 969 m 511 1306 q 552 1301 535 1306 q 583 1288 569 1296 q 594 1272 592 1281 q 590 1250 596 1263 q 543 1171 575 1204 q 464 1119 511 1138 q 353 1101 417 1101 l 342 1101 q 231 1119 279 1101 q 151 1171 183 1138 q 104 1250 119 1204 q 101 1272 99 1263 q 111 1288 103 1281 q 142 1301 125 1296 q 183 1306 160 1306 q 242 1230 204 1256 q 347 1199 279 1204 q 453 1230 415 1204 q 511 1306 490 1256 z "},"Į":{"ha":694,"x_min":81,"x_max":618,"o":"m 414 90 l 296 90 l 314 133 q 290 175 299 149 q 281 236 281 201 q 281 394 281 314 q 281 555 281 474 q 281 717 281 636 q 281 882 281 799 l 399 882 l 381 839 q 406 797 397 824 q 414 736 414 771 q 414 578 414 658 q 414 417 414 499 q 414 254 414 336 q 414 90 414 172 m 611 0 l 136 0 q 110 6 121 0 q 93 22 100 11 q 83 47 86 32 q 81 78 81 61 q 81 97 81 88 q 83 113 82 106 q 86 126 85 121 l 507 126 q 572 115 549 126 q 605 83 596 104 q 614 35 614 63 q 614 23 614 29 q 613 11 614 17 q 611 0 611 6 m 86 972 l 560 972 q 603 949 593 972 q 614 890 614 926 q 614 879 614 885 q 613 868 614 874 q 611 857 613 863 q 608 846 610 851 l 189 846 q 108 868 135 846 q 81 935 81 890 q 81 946 81 940 q 81 956 81 951 q 83 965 82 961 q 86 972 85 969 m 550 40 q 581 31 565 43 q 611 -6 596 18 q 593 -15 604 -11 q 568 -24 582 -19 q 467 -77 503 -42 q 432 -158 432 -112 q 451 -208 432 -192 q 504 -224 469 -224 q 553 -216 531 -224 q 597 -192 575 -208 l 606 -192 q 614 -210 611 -201 q 617 -228 617 -219 q 618 -249 618 -236 q 581 -322 618 -297 q 483 -347 544 -347 q 360 -307 404 -347 q 315 -192 315 -267 q 344 -83 315 -131 q 425 -5 372 -36 q 550 40 478 26 z "},"İ":{"ha":694,"x_min":81,"x_max":614,"o":"m 256 1251 q 272 1257 263 1254 q 292 1261 282 1260 q 315 1263 303 1263 q 338 1264 326 1264 q 412 1248 383 1264 q 440 1194 440 1232 l 440 1110 q 424 1105 432 1107 q 406 1101 415 1103 q 386 1099 396 1099 q 365 1099 376 1099 q 286 1120 317 1099 q 256 1178 256 1142 l 256 1251 m 414 90 l 296 90 l 314 133 q 290 175 299 149 q 281 236 281 201 q 281 394 281 314 q 281 555 281 474 q 281 717 281 636 q 281 882 281 799 l 399 882 l 381 839 q 406 797 397 824 q 414 736 414 771 q 414 578 414 658 q 414 417 414 499 q 414 254 414 336 q 414 90 414 172 m 611 0 l 136 0 q 110 6 121 0 q 93 22 100 11 q 83 47 86 32 q 81 78 81 61 q 81 97 81 88 q 83 113 82 106 q 86 126 85 121 l 507 126 q 572 115 549 126 q 605 83 596 104 q 614 35 614 63 q 614 23 614 29 q 613 11 614 17 q 611 0 611 6 m 86 972 l 560 972 q 603 949 593 972 q 614 890 614 926 q 614 879 614 885 q 613 868 614 874 q 611 857 613 863 q 608 846 610 851 l 189 846 q 108 868 135 846 q 81 935 81 890 q 81 946 81 940 q 81 956 81 951 q 83 965 82 961 q 86 972 85 969 z "},"Ȉ":{"ha":694,"x_min":15,"x_max":614,"o":"m 136 1299 q 172 1225 149 1260 q 228 1160 194 1190 q 306 1097 263 1129 q 281 1088 293 1092 q 256 1081 268 1083 q 231 1079 244 1079 q 192 1083 210 1079 q 157 1097 175 1086 q 113 1125 133 1110 q 74 1158 92 1140 q 44 1197 57 1176 q 22 1236 31 1217 q 18 1265 15 1253 q 36 1285 21 1278 q 65 1294 50 1290 q 98 1299 81 1297 q 136 1299 115 1300 m 401 1299 q 437 1225 414 1260 q 493 1160 460 1190 q 571 1097 526 1129 q 545 1088 557 1092 q 522 1081 533 1083 q 496 1079 510 1079 q 458 1083 475 1079 q 422 1097 440 1086 q 377 1125 397 1110 q 339 1158 357 1140 q 308 1197 321 1176 q 286 1236 294 1217 q 283 1265 281 1253 q 301 1285 286 1278 q 330 1294 315 1290 q 363 1299 344 1297 q 401 1299 381 1300 m 414 90 l 296 90 l 314 133 q 290 175 299 149 q 281 236 281 201 q 281 394 281 314 q 281 555 281 474 q 281 718 281 636 q 281 882 281 800 l 399 882 l 381 839 q 406 797 397 824 q 414 736 414 771 q 414 578 414 658 q 414 417 414 499 q 414 254 414 336 q 414 90 414 172 m 611 0 l 136 0 q 110 6 121 0 q 93 22 100 11 q 83 47 86 32 q 81 78 81 61 q 81 97 81 88 q 83 113 82 106 q 86 126 85 121 l 508 126 q 572 115 549 126 q 605 83 596 104 q 614 35 614 63 q 614 23 614 29 q 613 11 614 17 q 611 0 611 6 m 86 972 l 560 972 q 603 949 593 972 q 614 890 614 926 q 614 879 614 885 q 613 868 614 874 q 611 857 613 863 q 608 846 610 851 l 189 846 q 108 868 135 846 q 81 935 81 890 q 81 946 81 940 q 81 956 81 951 q 83 965 82 961 q 86 972 85 969 z "},"Ȋ":{"ha":694,"x_min":81,"x_max":614,"o":"m 183 1093 q 142 1099 160 1094 q 111 1111 125 1103 q 101 1127 103 1118 q 104 1149 100 1136 q 152 1228 121 1194 q 231 1279 183 1261 q 342 1297 279 1297 l 353 1297 q 465 1279 417 1297 q 544 1228 513 1261 q 592 1149 576 1194 q 594 1127 596 1136 q 583 1111 593 1118 q 553 1099 571 1103 q 513 1093 536 1094 q 453 1169 492 1143 q 347 1200 415 1194 q 242 1169 279 1194 q 183 1093 204 1143 m 414 90 l 296 90 l 314 133 q 290 175 299 149 q 281 236 281 201 q 281 394 281 314 q 281 555 281 474 q 281 718 281 636 q 281 882 281 800 l 399 882 l 381 839 q 406 797 397 824 q 414 736 414 771 q 414 578 414 658 q 414 417 414 499 q 414 254 414 336 q 414 90 414 172 m 611 0 l 136 0 q 110 6 121 0 q 93 22 100 11 q 83 47 86 32 q 81 78 81 61 q 81 97 81 88 q 83 113 82 106 q 86 126 85 121 l 508 126 q 572 115 549 126 q 605 83 596 104 q 614 35 614 63 q 614 23 614 29 q 613 11 614 17 q 611 0 611 6 m 86 972 l 560 972 q 603 949 593 972 q 614 890 614 926 q 614 879 614 885 q 613 868 614 874 q 611 857 613 863 q 608 846 610 851 l 189 846 q 108 868 135 846 q 81 935 81 890 q 81 946 81 940 q 81 956 81 951 q 83 965 82 961 q 86 972 85 969 z "},"Ḯ":{"ha":694,"x_min":81,"x_max":614,"o":"m 414 90 l 296 90 l 314 133 q 290 175 299 149 q 281 236 281 201 q 281 394 281 314 q 281 555 281 474 q 281 717 281 636 q 281 882 281 799 l 399 882 l 381 839 q 406 797 397 824 q 414 736 414 771 q 414 578 414 658 q 414 417 414 499 q 414 254 414 336 q 414 90 414 172 m 611 0 l 136 0 q 110 6 121 0 q 93 22 100 11 q 83 47 86 32 q 81 78 81 61 q 81 97 81 88 q 83 113 82 106 q 86 126 85 121 l 507 126 q 572 115 549 126 q 605 83 596 104 q 614 35 614 63 q 614 23 614 29 q 613 11 614 17 q 611 0 611 6 m 86 972 l 560 972 q 603 949 593 972 q 614 890 614 926 q 614 879 614 885 q 613 868 614 874 q 611 857 613 863 q 608 846 610 851 l 189 846 q 108 868 135 846 q 81 935 81 890 q 81 946 81 940 q 81 956 81 951 q 83 965 82 961 q 86 972 85 969 m 125 1261 q 156 1265 139 1264 q 186 1265 172 1265 q 233 1260 213 1265 q 267 1243 254 1256 q 281 1208 281 1231 l 281 1110 q 250 1107 267 1108 q 218 1106 233 1106 q 173 1111 194 1106 q 138 1129 151 1117 q 125 1164 125 1142 l 125 1261 m 414 1261 q 444 1265 428 1264 q 475 1265 461 1265 q 522 1260 501 1265 q 556 1243 543 1256 q 569 1208 569 1231 l 569 1110 q 539 1107 556 1108 q 507 1106 522 1106 q 462 1111 483 1106 q 427 1129 440 1117 q 414 1164 414 1142 l 414 1261 m 444 1536 q 483 1535 465 1536 q 514 1531 500 1533 q 542 1524 528 1528 q 562 1504 558 1517 q 560 1476 565 1492 q 539 1435 551 1454 q 509 1397 526 1415 q 472 1364 492 1379 q 428 1336 451 1349 q 391 1321 410 1325 q 350 1317 372 1317 q 325 1319 338 1317 q 300 1325 313 1321 q 275 1336 288 1329 q 352 1398 318 1367 q 410 1463 386 1429 q 444 1536 433 1497 z "},"Ỉ":{"ha":694,"x_min":81,"x_max":614,"o":"m 414 90 l 296 90 l 314 133 q 290 175 299 149 q 281 236 281 201 q 281 394 281 314 q 281 555 281 474 q 281 717 281 636 q 281 882 281 799 l 399 882 l 381 839 q 406 797 397 824 q 414 736 414 771 q 414 578 414 658 q 414 417 414 499 q 414 254 414 336 q 414 90 414 172 m 611 0 l 136 0 q 110 6 121 0 q 93 22 100 11 q 83 47 86 32 q 81 78 81 61 q 81 97 81 88 q 83 113 82 106 q 86 126 85 121 l 507 126 q 572 115 549 126 q 605 83 596 104 q 614 35 614 63 q 614 23 614 29 q 613 11 614 17 q 611 0 611 6 m 86 972 l 560 972 q 603 949 593 972 q 614 890 614 926 q 614 879 614 885 q 613 868 614 874 q 611 857 613 863 q 608 846 610 851 l 189 846 q 108 868 135 846 q 81 935 81 890 q 81 946 81 940 q 81 956 81 951 q 83 965 82 961 q 86 972 85 969 m 278 1078 q 294 1114 278 1097 q 351 1146 310 1131 q 405 1169 390 1160 q 419 1193 419 1179 q 419 1201 419 1197 q 418 1208 419 1204 q 391 1215 406 1214 q 358 1217 376 1217 q 277 1205 311 1217 q 215 1167 243 1193 l 207 1167 q 199 1188 201 1178 q 196 1214 196 1199 q 202 1249 196 1233 q 222 1276 208 1264 q 243 1291 232 1285 q 269 1302 254 1297 q 304 1309 285 1307 q 347 1311 324 1311 q 436 1297 401 1311 q 488 1257 471 1282 q 506 1200 506 1232 l 506 1197 q 490 1150 506 1168 q 440 1113 475 1132 q 392 1079 403 1092 q 379 1049 382 1067 q 365 1045 374 1047 q 349 1042 357 1043 q 332 1042 340 1042 q 291 1052 304 1042 q 278 1078 278 1063 z "},"Ị":{"ha":694,"x_min":81,"x_max":614,"o":"m 414 90 l 296 90 l 314 133 q 290 175 299 149 q 281 236 281 201 q 281 394 281 314 q 281 555 281 474 q 281 717 281 636 q 281 882 281 799 l 399 882 l 381 839 q 406 797 397 824 q 414 736 414 771 q 414 578 414 658 q 414 417 414 499 q 414 254 414 336 q 414 90 414 172 m 611 0 l 136 0 q 110 6 121 0 q 93 22 100 11 q 83 47 86 32 q 81 78 81 61 q 81 97 81 88 q 83 113 82 106 q 86 126 85 121 l 507 126 q 572 115 549 126 q 605 83 596 104 q 614 35 614 63 q 614 23 614 29 q 613 11 614 17 q 611 0 611 6 m 86 972 l 560 972 q 603 949 593 972 q 614 890 614 926 q 614 879 614 885 q 613 868 614 874 q 611 857 613 863 q 608 846 610 851 l 189 846 q 108 868 135 846 q 81 935 81 890 q 81 946 81 940 q 81 956 81 951 q 83 965 82 961 q 86 972 85 969 m 261 -125 q 277 -122 268 -124 q 294 -120 286 -121 q 312 -119 303 -119 q 331 -119 321 -119 q 405 -133 376 -119 q 433 -183 433 -146 l 433 -274 q 417 -276 426 -275 q 400 -278 408 -278 q 383 -279 392 -279 q 364 -279 374 -279 q 290 -265 319 -279 q 261 -215 261 -251 l 261 -125 z "},"J":{"ha":694,"x_min":53,"x_max":588,"o":"m 281 99 q 350 105 321 99 q 407 126 379 111 q 434 176 424 149 q 450 237 444 203 q 456 313 456 271 q 456 456 456 385 q 456 600 456 528 q 456 747 456 672 q 456 900 456 822 l 482 842 l 429 878 l 493 867 q 402 855 446 860 q 317 847 358 850 q 233 841 275 843 q 150 839 192 839 q 117 849 131 839 q 97 878 104 858 q 90 926 90 899 q 91 952 90 940 q 93 972 92 964 q 188 974 140 974 q 282 976 235 975 q 376 978 329 978 q 472 978 424 978 q 538 970 513 978 q 576 946 564 963 q 588 904 588 929 q 588 761 588 835 q 588 610 588 688 q 588 453 588 533 q 588 289 588 374 q 568 174 588 231 q 510 71 549 117 q 411 -1 471 25 q 272 -28 351 -28 q 181 -22 219 -28 q 119 -3 143 -15 q 79 24 94 8 q 64 47 69 33 q 56 76 58 60 q 53 114 53 93 q 53 142 53 131 q 56 163 54 153 l 64 163 q 132 127 100 142 q 199 106 164 113 q 281 99 235 99 z "},"Ĵ":{"ha":694,"x_min":53,"x_max":646,"o":"m 281 99 q 350 105 321 99 q 407 126 379 111 q 434 176 424 149 q 450 237 444 203 q 456 313 456 271 q 456 456 456 385 q 456 600 456 528 q 456 747 456 672 q 456 900 456 822 l 482 842 l 429 878 l 493 867 q 402 855 446 860 q 317 847 358 850 q 233 841 275 843 q 150 839 192 839 q 117 849 131 839 q 97 878 104 858 q 90 926 90 899 q 91 952 90 940 q 93 972 92 964 q 188 974 140 974 q 282 976 235 975 q 376 978 329 978 q 472 978 424 978 q 538 970 513 978 q 576 946 564 963 q 588 904 588 929 q 588 761 588 835 q 588 610 588 688 q 588 453 588 533 q 588 289 588 374 q 568 174 588 231 q 510 71 549 117 q 411 -1 471 25 q 272 -28 351 -28 q 181 -22 219 -28 q 119 -3 143 -15 q 79 24 94 8 q 64 47 69 33 q 56 76 58 60 q 53 114 53 93 q 53 142 53 131 q 56 163 54 153 l 64 163 q 132 127 100 142 q 199 106 164 113 q 281 99 235 99 m 310 1303 q 324 1303 317 1303 q 340 1303 332 1303 q 354 1303 347 1303 q 402 1297 379 1303 q 464 1267 425 1292 q 511 1234 486 1253 q 560 1193 536 1215 q 605 1144 583 1171 q 646 1088 626 1118 q 611 1076 628 1081 q 571 1072 594 1072 q 534 1080 547 1072 q 504 1106 521 1088 q 431 1171 471 1142 q 318 1232 390 1200 l 397 1215 q 352 1215 375 1215 q 306 1215 329 1215 l 383 1233 q 251 1151 303 1193 q 172 1071 200 1110 l 164 1071 q 113 1074 132 1071 q 85 1085 93 1078 q 76 1101 76 1093 q 85 1126 76 1110 q 114 1167 93 1143 q 155 1207 133 1188 q 201 1244 176 1226 q 253 1277 226 1263 q 310 1303 281 1292 z "},"K":{"ha":833,"x_min":97,"x_max":790,"o":"m 417 508 q 524 343 469 426 q 631 176 578 260 q 674 125 653 140 q 718 110 696 110 q 752 115 738 110 q 776 132 767 121 l 783 132 q 786 117 785 125 q 788 101 788 108 q 790 83 789 93 q 790 64 790 74 q 784 24 790 42 q 767 -6 778 6 q 750 -18 760 -12 q 728 -26 740 -24 q 700 -28 715 -28 q 644 -17 669 -28 q 594 17 618 -7 q 543 79 569 42 q 489 159 515 118 q 439 242 463 200 q 394 322 415 283 q 360 396 374 361 l 325 396 l 417 508 m 644 986 q 705 977 682 986 q 739 956 728 968 q 750 929 750 943 q 746 892 750 913 q 731 841 742 872 q 694 761 719 810 q 642 667 672 713 q 574 579 611 621 q 494 500 538 538 q 405 430 451 463 q 310 371 358 397 q 210 325 261 344 l 210 447 l 250 447 q 299 482 275 464 q 345 522 322 500 q 391 567 368 543 q 435 617 414 590 q 509 715 475 661 q 572 837 543 769 q 625 986 601 904 l 644 986 m 97 978 q 124 983 111 982 q 150 985 136 985 q 223 954 204 985 q 242 878 242 924 q 242 657 242 768 q 242 435 242 546 q 242 214 242 325 q 242 -8 242 103 q 220 -12 231 -11 q 197 -12 210 -12 q 134 7 157 -12 q 111 79 111 26 q 111 330 111 206 q 111 578 111 454 q 111 828 111 703 q 108 906 111 868 q 97 978 106 943 z "},"Ķ":{"ha":833,"x_min":97,"x_max":790,"o":"m 417 508 q 524 343 469 426 q 631 176 578 260 q 674 125 653 140 q 718 110 696 110 q 752 115 738 110 q 776 132 767 121 l 783 132 q 786 117 785 125 q 788 101 788 108 q 790 83 789 93 q 790 64 790 74 q 784 24 790 42 q 767 -6 778 6 q 750 -18 760 -12 q 728 -26 740 -24 q 700 -28 715 -28 q 644 -17 669 -28 q 594 17 618 -7 q 543 79 569 42 q 489 159 515 118 q 439 242 463 200 q 394 322 415 283 q 360 396 374 361 l 325 396 l 417 508 m 644 986 q 705 977 682 986 q 739 956 728 968 q 750 929 750 943 q 746 892 750 913 q 731 841 742 872 q 694 761 719 810 q 642 667 672 713 q 574 579 611 621 q 494 500 538 538 q 405 430 451 463 q 310 371 358 397 q 210 325 261 344 l 210 447 l 250 447 q 299 482 275 464 q 345 522 322 500 q 391 567 368 543 q 435 617 414 590 q 509 715 475 661 q 572 837 543 769 q 625 986 601 904 l 644 986 m 97 978 q 124 983 111 982 q 150 985 136 985 q 223 954 204 985 q 242 878 242 924 q 242 657 242 768 q 242 435 242 546 q 242 214 242 325 q 242 -8 242 103 q 220 -12 231 -11 q 197 -12 210 -12 q 134 7 157 -12 q 111 79 111 26 q 111 330 111 206 q 111 578 111 454 q 111 828 111 703 q 108 906 111 868 q 97 978 106 943 m 410 -97 q 427 -92 419 -93 q 444 -90 435 -90 q 463 -89 453 -89 q 515 -101 497 -89 q 532 -140 532 -112 q 524 -213 532 -176 q 504 -281 517 -250 q 476 -337 492 -312 q 453 -363 465 -357 q 426 -369 442 -369 q 390 -366 407 -369 q 357 -354 372 -362 q 389 -278 378 -317 q 405 -195 400 -239 q 410 -97 410 -151 z "},"L":{"ha":764,"x_min":106,"x_max":717,"o":"m 204 0 q 167 12 183 0 q 140 43 150 24 q 124 86 129 63 q 118 135 118 110 q 118 305 118 218 q 118 479 118 392 q 118 655 118 567 q 118 831 118 743 q 116 910 118 878 q 106 978 114 943 q 134 984 119 982 q 165 986 149 986 q 219 974 201 986 q 244 940 238 961 q 251 886 251 918 q 251 701 251 794 q 251 511 251 607 q 251 319 251 415 q 251 126 251 222 l 599 126 q 628 119 615 126 q 649 95 642 111 q 658 55 656 79 q 657 0 660 31 l 204 0 m 597 278 q 610 279 603 278 q 624 281 617 281 q 639 281 632 281 q 683 276 665 281 q 708 259 700 271 q 717 226 717 247 q 713 155 717 190 q 700 85 708 119 q 680 17 692 50 q 654 -47 668 -17 q 601 -43 622 -47 q 569 -29 579 -39 q 560 -6 560 -19 q 570 61 561 22 q 588 153 579 100 q 597 278 597 207 z "},"Ĺ":{"ha":764,"x_min":106,"x_max":717,"o":"m 204 0 q 167 12 183 0 q 140 43 150 24 q 124 86 129 63 q 118 135 118 110 q 118 305 118 218 q 118 479 118 392 q 118 655 118 567 q 118 831 118 743 q 116 910 118 878 q 106 978 114 943 q 134 984 119 982 q 165 986 149 986 q 219 974 201 986 q 244 940 238 961 q 251 886 251 918 q 251 701 251 794 q 251 511 251 607 q 251 319 251 415 q 251 126 251 222 l 599 126 q 628 119 615 126 q 649 95 642 111 q 658 55 656 79 q 657 0 660 31 l 204 0 m 597 278 q 610 279 603 278 q 624 281 617 281 q 639 281 632 281 q 683 276 665 281 q 708 259 700 271 q 717 226 717 247 q 713 155 717 190 q 700 85 708 119 q 680 17 692 50 q 654 -47 668 -17 q 601 -43 622 -47 q 569 -29 579 -39 q 560 -6 560 -19 q 570 61 561 22 q 588 153 579 100 q 597 278 597 207 m 283 1290 q 322 1289 304 1290 q 353 1285 339 1288 q 381 1278 367 1282 q 401 1258 397 1271 q 399 1231 404 1246 q 378 1189 390 1208 q 348 1151 365 1169 q 310 1118 331 1133 q 267 1090 290 1103 q 230 1075 249 1079 q 189 1071 211 1071 q 164 1073 176 1071 q 139 1079 151 1075 q 114 1090 126 1083 q 191 1152 157 1121 q 249 1217 225 1183 q 283 1290 272 1251 z "},"Ļ":{"ha":764,"x_min":106,"x_max":717,"o":"m 204 0 q 167 12 183 0 q 140 43 150 24 q 124 86 129 63 q 118 135 118 110 q 118 305 118 218 q 118 479 118 392 q 118 655 118 567 q 118 831 118 743 q 116 910 118 878 q 106 978 114 943 q 134 984 119 982 q 165 986 149 986 q 219 974 201 986 q 244 940 238 961 q 251 886 251 918 q 251 701 251 794 q 251 511 251 607 q 251 319 251 415 q 251 126 251 222 l 599 126 q 628 119 615 126 q 649 95 642 111 q 658 55 656 79 q 657 0 660 31 l 204 0 m 597 278 q 610 279 603 278 q 624 281 617 281 q 639 281 632 281 q 683 276 665 281 q 708 259 700 271 q 717 226 717 247 q 713 155 717 190 q 700 85 708 119 q 680 17 692 50 q 654 -47 668 -17 q 601 -43 622 -47 q 569 -29 579 -39 q 560 -6 560 -19 q 570 61 561 22 q 588 153 579 100 q 597 278 597 207 m 360 -97 q 377 -92 369 -93 q 394 -90 385 -90 q 413 -89 403 -89 q 465 -101 447 -89 q 482 -140 482 -112 q 474 -213 482 -176 q 454 -281 467 -250 q 426 -337 442 -312 q 403 -363 415 -357 q 376 -369 392 -369 q 340 -366 357 -369 q 307 -354 322 -362 q 339 -278 328 -317 q 355 -195 350 -239 q 360 -97 360 -151 z "},"Ľ":{"ha":764,"x_min":106,"x_max":717,"o":"m 204 0 q 167 12 183 0 q 140 43 150 24 q 124 86 129 63 q 118 135 118 110 q 118 305 118 218 q 118 479 118 392 q 118 655 118 567 q 118 831 118 743 q 116 910 118 878 q 106 978 114 943 q 134 984 119 982 q 165 986 149 986 q 219 974 201 986 q 244 940 238 961 q 251 886 251 918 q 251 701 251 794 q 251 511 251 607 q 251 319 251 415 q 251 126 251 222 l 599 126 q 628 119 615 126 q 649 95 642 111 q 658 55 656 79 q 657 0 660 31 l 204 0 m 597 278 q 610 279 603 278 q 624 281 617 281 q 639 281 632 281 q 683 276 665 281 q 708 259 700 271 q 717 226 717 247 q 713 155 717 190 q 700 85 708 119 q 680 17 692 50 q 654 -47 668 -17 q 601 -43 622 -47 q 569 -29 579 -39 q 560 -6 560 -19 q 570 61 561 22 q 588 153 579 100 q 597 278 597 207 m 599 1003 q 648 990 631 1003 q 665 953 665 978 q 658 880 665 917 q 638 812 651 843 q 606 760 624 781 q 586 745 596 749 q 561 742 576 742 q 535 744 546 742 q 511 753 524 747 q 533 833 526 800 q 544 902 540 865 q 547 993 547 939 q 573 1000 561 997 q 599 1003 585 1003 z "},"Ḷ":{"ha":764,"x_min":106,"x_max":717,"o":"m 315 -125 q 331 -122 322 -124 q 349 -120 340 -121 q 366 -119 357 -119 q 383 -119 375 -119 q 459 -133 431 -119 q 488 -183 488 -146 l 488 -274 q 472 -276 481 -275 q 454 -278 463 -278 q 437 -279 446 -279 q 418 -279 428 -279 q 344 -265 374 -279 q 315 -215 315 -251 l 315 -125 m 204 0 q 167 12 183 0 q 140 43 150 24 q 124 86 129 63 q 118 135 118 110 q 118 305 118 218 q 118 479 118 392 q 118 655 118 567 q 118 831 118 743 q 116 910 118 878 q 106 978 114 943 q 134 984 119 982 q 165 986 149 986 q 219 974 201 986 q 244 940 238 961 q 251 886 251 918 q 251 701 251 794 q 251 511 251 607 q 251 319 251 415 q 251 126 251 222 l 599 126 q 628 119 615 126 q 649 95 642 111 q 658 55 656 79 q 657 0 660 31 l 204 0 m 597 278 q 610 279 603 278 q 624 281 617 281 q 639 281 632 281 q 683 276 665 281 q 708 259 700 271 q 717 226 717 247 q 713 155 717 190 q 700 85 708 119 q 680 17 692 50 q 654 -47 668 -17 q 601 -43 622 -47 q 569 -29 579 -39 q 560 -6 560 -19 q 570 61 561 22 q 588 153 579 100 q 597 278 597 207 z "},"Ḻ":{"ha":764,"x_min":106,"x_max":717,"o":"m 129 -157 l 613 -157 q 661 -175 649 -157 q 674 -228 674 -193 q 673 -242 674 -235 q 672 -255 672 -249 q 669 -267 671 -261 l 232 -267 q 167 -257 189 -267 q 137 -227 144 -247 q 129 -176 129 -207 q 129 -169 129 -172 q 129 -163 129 -167 q 129 -157 129 -160 m 204 0 q 167 12 183 0 q 140 43 150 24 q 124 86 129 63 q 118 135 118 110 q 118 305 118 218 q 118 479 118 392 q 118 655 118 567 q 118 831 118 743 q 116 910 118 878 q 106 978 114 943 q 134 984 119 982 q 165 986 149 986 q 219 974 201 986 q 244 940 238 961 q 251 886 251 918 q 251 701 251 794 q 251 511 251 607 q 251 319 251 415 q 251 126 251 222 l 599 126 q 628 119 615 126 q 649 95 642 111 q 658 55 656 79 q 657 0 660 31 l 204 0 m 597 278 q 610 279 603 278 q 624 281 617 281 q 639 281 632 281 q 683 276 665 281 q 708 259 700 271 q 717 226 717 247 q 713 155 717 190 q 700 85 708 119 q 680 17 692 50 q 654 -47 668 -17 q 601 -43 622 -47 q 569 -29 579 -39 q 560 -6 560 -19 q 570 61 561 22 q 588 153 579 100 q 597 278 597 207 z "},"M":{"ha":1111,"x_min":90,"x_max":1029,"o":"m 224 -8 q 201 -12 218 -11 q 175 -12 185 -12 q 133 -6 153 -12 q 102 15 114 0 q 90 56 90 31 q 97 318 90 196 q 113 542 104 440 q 130 723 121 643 q 144 858 139 803 q 148 933 149 904 q 143 979 147 961 q 162 983 151 982 q 185 984 172 983 q 215 985 199 985 q 296 977 265 985 q 340 953 326 969 q 358 910 354 936 q 385 776 369 844 q 424 640 401 708 q 470 506 446 571 q 520 382 494 440 q 572 275 546 324 l 518 317 l 596 317 l 539 278 q 595 393 568 329 q 647 528 622 457 q 692 674 671 599 q 729 826 713 750 q 758 979 746 903 q 776 983 767 982 q 799 984 786 983 q 828 985 811 985 q 901 976 876 985 q 937 943 926 967 q 953 874 947 919 q 968 757 961 815 q 980 642 975 699 q 989 530 985 586 q 997 419 993 474 q 1003 307 1001 364 q 1007 192 1006 250 q 1013 106 1010 142 q 1019 44 1015 71 q 1029 -6 1024 18 q 1003 -10 1018 -8 q 971 -12 988 -12 q 917 -5 936 -12 q 889 22 897 3 q 881 72 881 42 q 881 101 881 85 q 881 136 881 117 q 882 174 882 156 q 881 258 882 213 q 876 356 879 304 q 867 463 872 407 q 857 576 863 518 q 844 694 851 635 q 831 811 838 753 l 857 765 l 801 765 l 836 818 q 806 665 826 744 q 760 510 786 586 q 707 365 735 433 q 651 245 679 297 q 601 163 624 193 q 581 158 592 160 q 558 157 571 157 q 531 160 542 157 q 510 174 519 164 q 459 244 486 200 q 404 349 432 289 q 350 481 376 408 q 301 635 324 553 q 263 810 279 718 l 301 772 l 240 772 l 264 810 q 253 699 258 754 q 242 590 247 643 q 233 483 238 536 q 226 376 229 429 q 221 270 222 324 q 219 163 219 217 q 220 69 219 108 q 224 -8 221 31 z "},"Ṃ":{"ha":1111,"x_min":90,"x_max":1029,"o":"m 469 -125 q 487 -122 478 -124 q 504 -120 496 -121 q 522 -119 513 -119 q 539 -119 531 -119 q 614 -133 585 -119 q 643 -183 643 -146 l 643 -274 q 627 -276 636 -275 q 609 -278 618 -278 q 592 -279 600 -279 q 574 -279 583 -279 q 499 -265 529 -279 q 469 -215 469 -251 l 469 -125 m 224 -8 q 201 -12 218 -11 q 175 -12 185 -12 q 133 -6 153 -12 q 102 15 114 0 q 90 56 90 31 q 97 318 90 196 q 113 542 104 440 q 130 723 121 643 q 144 858 139 803 q 148 933 149 904 q 143 979 147 961 q 162 983 151 982 q 185 984 172 983 q 215 985 199 985 q 296 977 265 985 q 340 953 326 969 q 358 910 354 936 q 385 776 369 844 q 424 640 401 708 q 470 506 446 571 q 520 382 494 440 q 572 275 546 324 l 518 317 l 596 317 l 539 278 q 595 393 568 329 q 647 528 622 457 q 692 674 671 599 q 729 826 713 750 q 758 979 746 903 q 776 983 767 982 q 799 984 786 983 q 828 985 811 985 q 901 976 876 985 q 937 943 926 967 q 953 874 947 919 q 968 757 961 815 q 980 642 975 699 q 989 530 985 586 q 997 419 993 474 q 1003 307 1001 364 q 1007 192 1006 250 q 1013 106 1010 142 q 1019 44 1015 71 q 1029 -6 1024 18 q 1003 -10 1018 -8 q 971 -12 988 -12 q 917 -5 936 -12 q 889 22 897 3 q 881 72 881 42 q 881 101 881 85 q 881 136 881 117 q 882 174 882 156 q 881 258 882 213 q 876 356 879 304 q 867 463 872 407 q 857 576 863 518 q 844 694 851 635 q 831 811 838 753 l 857 765 l 801 765 l 836 818 q 806 665 826 744 q 760 510 786 586 q 707 365 735 433 q 651 245 679 297 q 601 163 624 193 q 581 158 592 160 q 558 157 571 157 q 531 160 542 157 q 510 174 519 164 q 459 244 486 200 q 404 349 432 289 q 350 481 376 408 q 301 635 324 553 q 263 810 279 718 l 301 772 l 240 772 l 264 810 q 253 699 258 754 q 242 590 247 643 q 233 483 238 536 q 226 376 229 429 q 221 270 222 324 q 219 163 219 217 q 220 69 219 108 q 224 -8 221 31 z "},"N":{"ha":903,"x_min":92,"x_max":806,"o":"m 232 -7 q 211 -11 224 -10 q 185 -12 199 -12 q 142 -3 161 -12 q 114 24 124 6 q 104 72 104 43 q 104 261 104 167 q 104 450 104 356 q 104 639 104 544 q 104 828 104 733 q 102 900 104 858 q 92 978 100 942 q 122 982 107 981 q 151 984 136 983 q 181 985 165 985 q 240 976 218 985 q 278 948 263 968 q 306 889 293 928 q 352 760 328 824 q 403 636 376 697 q 461 515 431 575 q 528 395 492 454 q 605 276 564 336 q 693 156 646 217 l 640 185 l 711 185 l 681 151 q 677 265 679 208 q 674 378 675 322 q 673 492 674 435 q 672 610 672 550 q 671 736 671 671 q 671 859 671 799 q 671 981 671 919 q 690 984 679 983 q 715 985 700 985 q 779 967 760 985 q 799 908 799 950 q 799 721 799 815 q 799 532 799 626 q 799 342 799 438 q 799 151 799 247 q 800 73 799 113 q 806 -6 801 33 q 789 -10 797 -8 q 772 -12 781 -11 q 751 -14 763 -14 q 697 -6 717 -14 q 654 24 676 1 q 542 159 603 76 q 419 347 481 242 q 303 575 358 451 q 207 833 249 699 l 251 783 l 189 783 l 213 826 q 220 685 217 757 q 226 539 224 613 q 229 392 228 465 q 231 249 231 319 q 232 111 232 178 q 232 51 232 81 q 232 -7 232 22 z "},"Ñ":{"ha":903,"x_min":92,"x_max":806,"o":"m 232 -7 q 211 -11 224 -10 q 185 -12 199 -12 q 142 -3 161 -12 q 114 24 124 6 q 104 72 104 43 q 104 261 104 167 q 104 450 104 356 q 104 639 104 544 q 104 828 104 733 q 102 900 104 858 q 92 978 100 942 q 122 982 107 981 q 151 984 136 983 q 181 985 165 985 q 240 976 218 985 q 278 948 263 968 q 306 889 293 928 q 352 760 328 824 q 403 636 376 697 q 461 515 431 575 q 528 395 492 454 q 605 276 564 336 q 693 156 646 217 l 640 185 l 711 185 l 681 151 q 677 265 679 208 q 674 378 675 322 q 673 492 674 435 q 672 610 672 550 q 671 736 671 671 q 671 859 671 799 q 671 981 671 919 q 690 984 679 983 q 715 985 700 985 q 779 967 760 985 q 799 908 799 950 q 799 721 799 815 q 799 532 799 626 q 799 342 799 438 q 799 151 799 247 q 800 73 799 113 q 806 -6 801 33 q 789 -10 797 -8 q 772 -12 781 -11 q 751 -14 763 -14 q 697 -6 717 -14 q 654 24 676 1 q 542 159 603 76 q 419 347 481 242 q 303 575 358 451 q 207 833 249 699 l 251 783 l 189 783 l 213 826 q 220 685 217 757 q 226 539 224 613 q 229 392 228 465 q 231 249 231 319 q 232 111 232 178 q 232 51 232 81 q 232 -7 232 22 m 619 1194 q 684 1210 656 1194 q 740 1258 713 1226 l 749 1258 q 755 1235 753 1250 q 757 1208 757 1221 q 753 1172 757 1186 q 744 1147 750 1158 q 702 1104 731 1119 q 631 1089 674 1089 q 557 1104 593 1089 q 486 1140 521 1119 q 415 1175 451 1160 q 342 1190 379 1190 q 278 1175 306 1190 q 221 1126 250 1160 l 213 1126 q 206 1151 208 1138 q 204 1176 204 1164 q 208 1212 204 1199 q 217 1236 211 1225 q 259 1280 231 1264 q 331 1296 288 1296 q 404 1281 368 1296 q 476 1245 440 1265 q 547 1210 511 1225 q 619 1194 582 1194 z "},"Ń":{"ha":903,"x_min":92,"x_max":806,"o":"m 232 -7 q 211 -11 224 -10 q 185 -12 199 -12 q 142 -3 161 -12 q 114 24 124 6 q 104 72 104 43 q 104 261 104 167 q 104 450 104 356 q 104 639 104 544 q 104 828 104 733 q 102 900 104 858 q 92 978 100 942 q 122 982 107 981 q 151 984 136 983 q 181 985 165 985 q 240 976 218 985 q 278 948 263 968 q 306 889 293 928 q 352 760 328 824 q 403 636 376 697 q 461 515 431 575 q 528 395 492 454 q 605 276 564 336 q 693 156 646 217 l 640 185 l 711 185 l 681 151 q 677 265 679 208 q 674 378 675 322 q 673 492 674 435 q 672 610 672 550 q 671 736 671 671 q 671 859 671 799 q 671 981 671 919 q 690 984 679 983 q 715 985 700 985 q 779 967 760 985 q 799 908 799 950 q 799 721 799 815 q 799 532 799 626 q 799 342 799 438 q 799 151 799 247 q 800 73 799 113 q 806 -6 801 33 q 789 -10 797 -8 q 772 -12 781 -11 q 751 -14 763 -14 q 697 -6 717 -14 q 654 24 676 1 q 542 159 603 76 q 419 347 481 242 q 303 575 358 451 q 207 833 249 699 l 251 783 l 189 783 l 213 826 q 220 685 217 757 q 226 539 224 613 q 229 392 228 465 q 231 249 231 319 q 232 111 232 178 q 232 51 232 81 q 232 -7 232 22 m 579 1290 q 617 1289 600 1290 q 649 1285 635 1288 q 676 1278 663 1282 q 697 1258 693 1271 q 694 1231 700 1246 q 674 1189 686 1208 q 644 1151 661 1169 q 606 1118 626 1133 q 563 1090 586 1103 q 526 1075 544 1079 q 485 1071 507 1071 q 460 1073 472 1071 q 435 1079 447 1075 q 410 1090 422 1083 q 487 1152 453 1121 q 544 1217 521 1183 q 579 1290 568 1251 z "},"Ņ":{"ha":903,"x_min":92,"x_max":806,"o":"m 232 -7 q 211 -11 224 -10 q 185 -12 199 -12 q 142 -3 161 -12 q 114 24 124 6 q 104 72 104 43 q 104 261 104 167 q 104 450 104 356 q 104 639 104 544 q 104 828 104 733 q 102 900 104 858 q 92 978 100 942 q 122 982 107 981 q 151 984 136 983 q 181 985 165 985 q 240 976 218 985 q 278 948 263 968 q 306 889 293 928 q 352 760 328 824 q 403 636 376 697 q 461 515 431 575 q 528 395 492 454 q 605 276 564 336 q 693 156 646 217 l 640 185 l 711 185 l 681 151 q 677 265 679 208 q 674 378 675 322 q 673 492 674 435 q 672 610 672 550 q 671 736 671 671 q 671 859 671 799 q 671 981 671 919 q 690 984 679 983 q 715 985 700 985 q 779 967 760 985 q 799 908 799 950 q 799 721 799 815 q 799 532 799 626 q 799 342 799 438 q 799 151 799 247 q 800 73 799 113 q 806 -6 801 33 q 789 -10 797 -8 q 772 -12 781 -11 q 751 -14 763 -14 q 697 -6 717 -14 q 654 24 676 1 q 542 159 603 76 q 419 347 481 242 q 303 575 358 451 q 207 833 249 699 l 251 783 l 189 783 l 213 826 q 220 685 217 757 q 226 539 224 613 q 229 392 228 465 q 231 249 231 319 q 232 111 232 178 q 232 51 232 81 q 232 -7 232 22 m 440 -97 q 458 -92 450 -93 q 474 -90 465 -90 q 493 -89 483 -89 q 545 -101 528 -89 q 563 -140 563 -112 q 555 -213 563 -176 q 535 -281 547 -250 q 507 -337 522 -312 q 484 -363 496 -357 q 457 -369 472 -369 q 420 -366 438 -369 q 388 -354 403 -362 q 419 -278 408 -317 q 435 -195 431 -239 q 440 -97 440 -151 z "},"Ň":{"ha":903,"x_min":92,"x_max":806,"o":"m 525 1089 q 510 1089 518 1089 q 496 1089 503 1089 q 481 1089 489 1089 q 432 1094 456 1089 q 371 1125 408 1100 q 324 1158 349 1139 q 275 1199 299 1176 q 230 1247 251 1221 q 189 1304 208 1274 q 223 1316 206 1313 q 264 1319 240 1319 q 300 1312 286 1319 q 331 1286 314 1304 q 404 1221 364 1250 q 517 1158 444 1192 l 436 1176 q 483 1176 460 1176 q 529 1176 507 1176 l 450 1157 q 583 1240 532 1199 q 663 1321 635 1282 l 671 1321 q 723 1317 704 1321 q 750 1307 742 1314 q 758 1290 758 1300 q 751 1265 758 1282 q 721 1225 743 1249 q 679 1185 701 1204 q 633 1147 657 1165 q 581 1115 608 1129 q 525 1089 554 1100 m 232 -7 q 211 -11 224 -10 q 185 -12 199 -12 q 142 -3 161 -12 q 114 24 124 6 q 104 72 104 43 q 104 261 104 167 q 104 450 104 356 q 104 639 104 544 q 104 828 104 733 q 102 900 104 858 q 92 978 100 942 q 122 982 107 981 q 151 984 136 983 q 181 985 165 985 q 240 976 218 985 q 278 948 263 968 q 306 889 293 928 q 352 760 328 824 q 403 636 376 697 q 461 515 431 575 q 528 395 492 454 q 605 276 564 336 q 693 156 646 217 l 640 185 l 711 185 l 681 151 q 677 265 679 208 q 674 378 675 322 q 673 492 674 435 q 672 610 672 550 q 671 736 671 671 q 671 859 671 799 q 671 981 671 919 q 690 984 679 983 q 715 985 700 985 q 779 967 760 985 q 799 908 799 950 q 799 721 799 815 q 799 532 799 626 q 799 342 799 438 q 799 151 799 247 q 800 73 799 113 q 806 -6 801 33 q 789 -10 797 -8 q 772 -12 781 -11 q 751 -14 763 -14 q 697 -6 717 -14 q 654 24 676 1 q 542 159 603 76 q 419 347 481 242 q 303 575 358 451 q 207 833 249 699 l 251 783 l 189 783 l 213 826 q 220 685 217 757 q 226 539 224 613 q 229 392 228 465 q 231 249 231 319 q 232 111 232 178 q 232 51 232 81 q 232 -7 232 22 z "},"Ṅ":{"ha":903,"x_min":92,"x_max":806,"o":"m 389 1251 q 407 1257 397 1254 q 427 1261 417 1260 q 449 1263 438 1263 q 471 1264 461 1264 q 546 1248 518 1264 q 574 1194 574 1232 l 574 1110 q 558 1105 567 1107 q 539 1101 549 1103 q 519 1099 529 1099 q 499 1099 510 1099 q 419 1120 450 1099 q 389 1178 389 1142 l 389 1251 m 232 -7 q 211 -11 224 -10 q 185 -12 199 -12 q 142 -3 161 -12 q 114 24 124 6 q 104 72 104 43 q 104 261 104 167 q 104 450 104 356 q 104 639 104 544 q 104 828 104 733 q 102 900 104 858 q 92 978 100 942 q 122 982 107 981 q 151 984 136 983 q 181 985 165 985 q 240 976 218 985 q 278 948 263 968 q 306 889 293 928 q 352 760 328 824 q 403 636 376 697 q 461 515 431 575 q 528 395 492 454 q 605 276 564 336 q 693 156 646 217 l 640 185 l 711 185 l 681 151 q 677 265 679 208 q 674 378 675 322 q 673 492 674 435 q 672 610 672 550 q 671 736 671 671 q 671 859 671 799 q 671 981 671 919 q 690 984 679 983 q 715 985 700 985 q 779 967 760 985 q 799 908 799 950 q 799 721 799 815 q 799 532 799 626 q 799 342 799 438 q 799 151 799 247 q 800 73 799 113 q 806 -6 801 33 q 789 -10 797 -8 q 772 -12 781 -11 q 751 -14 763 -14 q 697 -6 717 -14 q 654 24 676 1 q 542 159 603 76 q 419 347 481 242 q 303 575 358 451 q 207 833 249 699 l 251 783 l 189 783 l 213 826 q 220 685 217 757 q 226 539 224 613 q 229 392 228 465 q 231 249 231 319 q 232 111 232 178 q 232 51 232 81 q 232 -7 232 22 z "},"Ṇ":{"ha":903,"x_min":92,"x_max":806,"o":"m 394 -125 q 412 -122 403 -124 q 429 -120 421 -121 q 447 -119 438 -119 q 464 -119 456 -119 q 539 -133 510 -119 q 568 -183 568 -146 l 568 -274 q 552 -276 561 -275 q 535 -278 543 -278 q 517 -279 526 -279 q 499 -279 508 -279 q 424 -265 454 -279 q 394 -215 394 -251 l 394 -125 m 232 -7 q 211 -11 224 -10 q 185 -12 199 -12 q 142 -3 161 -12 q 114 24 124 6 q 104 72 104 43 q 104 261 104 167 q 104 450 104 356 q 104 639 104 544 q 104 828 104 733 q 102 900 104 858 q 92 978 100 942 q 122 982 107 981 q 151 984 136 983 q 181 985 165 985 q 240 976 218 985 q 278 948 263 968 q 306 889 293 928 q 352 760 328 824 q 403 636 376 697 q 461 515 431 575 q 528 395 492 454 q 605 276 564 336 q 693 156 646 217 l 640 185 l 711 185 l 681 151 q 677 265 679 208 q 674 378 675 322 q 673 492 674 435 q 672 610 672 550 q 671 736 671 671 q 671 859 671 799 q 671 981 671 919 q 690 984 679 983 q 715 985 700 985 q 779 967 760 985 q 799 908 799 950 q 799 721 799 815 q 799 532 799 626 q 799 342 799 438 q 799 151 799 247 q 800 73 799 113 q 806 -6 801 33 q 789 -10 797 -8 q 772 -12 781 -11 q 751 -14 763 -14 q 697 -6 717 -14 q 654 24 676 1 q 542 159 603 76 q 419 347 481 242 q 303 575 358 451 q 207 833 249 699 l 251 783 l 189 783 l 213 826 q 220 685 217 757 q 226 539 224 613 q 229 392 228 465 q 231 249 231 319 q 232 111 232 178 q 232 51 232 81 q 232 -7 232 22 z "},"Ṉ":{"ha":903,"x_min":92,"x_max":806,"o":"m 210 -157 l 693 -157 q 742 -175 729 -157 q 754 -228 754 -193 q 753 -242 754 -235 q 752 -255 753 -249 q 750 -267 751 -261 l 313 -267 q 247 -257 269 -267 q 217 -227 225 -247 q 210 -176 210 -207 q 210 -169 210 -172 q 210 -163 210 -167 q 210 -157 210 -160 m 232 -7 q 211 -11 224 -10 q 185 -12 199 -12 q 142 -3 161 -12 q 114 24 124 6 q 104 72 104 43 q 104 261 104 167 q 104 450 104 356 q 104 639 104 544 q 104 828 104 733 q 102 900 104 858 q 92 978 100 942 q 122 982 107 981 q 151 984 136 983 q 181 985 165 985 q 240 976 218 985 q 278 948 263 968 q 306 889 293 928 q 352 760 328 824 q 403 636 376 697 q 461 515 431 575 q 528 395 492 454 q 605 276 564 336 q 693 156 646 217 l 640 185 l 711 185 l 681 151 q 677 265 679 208 q 674 378 675 322 q 673 492 674 435 q 672 610 672 550 q 671 736 671 671 q 671 859 671 799 q 671 981 671 919 q 690 984 679 983 q 715 985 700 985 q 779 967 760 985 q 799 908 799 950 q 799 721 799 815 q 799 532 799 626 q 799 342 799 438 q 799 151 799 247 q 800 73 799 113 q 806 -6 801 33 q 789 -10 797 -8 q 772 -12 781 -11 q 751 -14 763 -14 q 697 -6 717 -14 q 654 24 676 1 q 542 159 603 76 q 419 347 481 242 q 303 575 358 451 q 207 833 249 699 l 251 783 l 189 783 l 213 826 q 220 685 217 757 q 226 539 224 613 q 229 392 228 465 q 231 249 231 319 q 232 111 232 178 q 232 51 232 81 q 232 -7 232 22 z "},"O":{"ha":903,"x_min":90,"x_max":813,"o":"m 454 1000 q 649 947 569 1000 q 771 790 729 894 q 813 531 813 686 l 813 475 q 768 199 813 311 q 643 29 724 86 q 451 -28 563 -28 q 251 26 332 -28 q 131 183 171 79 q 90 436 90 286 l 90 492 q 131 761 90 647 q 251 938 171 875 q 454 1000 332 1000 m 217 433 q 242 240 217 317 q 313 124 268 163 q 369 105 340 111 q 435 99 399 99 q 570 138 514 99 q 656 262 626 176 q 686 488 686 347 l 686 511 q 677 660 686 599 q 647 768 668 722 q 588 850 625 814 q 526 868 556 863 q 461 874 497 874 q 326 832 381 874 q 244 703 272 790 q 217 478 217 615 l 217 433 z "},"Ò":{"ha":903,"x_min":90,"x_max":813,"o":"m 454 1000 q 649 947 569 1000 q 771 790 729 894 q 813 531 813 686 l 813 475 q 768 199 813 311 q 643 29 724 86 q 451 -28 563 -28 q 251 26 332 -28 q 131 183 171 79 q 90 436 90 286 l 90 492 q 131 761 90 647 q 251 938 171 875 q 454 1000 332 1000 m 217 433 q 242 240 217 317 q 313 124 268 163 q 369 105 340 111 q 435 99 399 99 q 570 138 514 99 q 656 262 626 176 q 686 488 686 347 l 686 511 q 677 660 686 599 q 647 768 668 722 q 588 850 625 814 q 526 868 556 863 q 461 874 497 874 q 326 832 381 874 q 244 703 272 790 q 217 478 217 615 l 217 433 m 354 1299 q 390 1225 367 1260 q 447 1160 413 1190 q 524 1097 481 1129 q 499 1088 511 1092 q 474 1081 486 1083 q 449 1079 463 1079 q 410 1083 428 1079 q 375 1097 393 1086 q 331 1125 351 1110 q 292 1158 310 1140 q 262 1197 275 1176 q 240 1236 249 1217 q 236 1265 233 1253 q 254 1285 239 1278 q 283 1294 268 1290 q 316 1299 299 1297 q 354 1299 333 1300 z "},"Ó":{"ha":903,"x_min":90,"x_max":813,"o":"m 454 1000 q 649 947 569 1000 q 771 790 729 894 q 813 531 813 686 l 813 475 q 768 199 813 311 q 643 29 724 86 q 451 -28 563 -28 q 251 26 332 -28 q 131 183 171 79 q 90 436 90 286 l 90 492 q 131 761 90 647 q 251 938 171 875 q 454 1000 332 1000 m 217 433 q 242 240 217 317 q 313 124 268 163 q 369 105 340 111 q 435 99 399 99 q 570 138 514 99 q 656 262 626 176 q 686 488 686 347 l 686 511 q 677 660 686 599 q 647 768 668 722 q 588 850 625 814 q 526 868 556 863 q 461 874 497 874 q 326 832 381 874 q 244 703 272 790 q 217 478 217 615 l 217 433 m 549 1290 q 587 1289 569 1290 q 618 1285 604 1288 q 646 1278 632 1282 q 666 1258 663 1271 q 664 1231 669 1246 q 643 1189 656 1208 q 613 1151 631 1169 q 576 1118 596 1133 q 532 1090 556 1103 q 495 1075 514 1079 q 454 1071 476 1071 q 429 1073 442 1071 q 404 1079 417 1075 q 379 1090 392 1083 q 456 1152 422 1121 q 514 1217 490 1183 q 549 1290 538 1251 z "},"Ô":{"ha":903,"x_min":90,"x_max":813,"o":"m 454 1000 q 649 947 569 1000 q 771 790 729 894 q 813 531 813 686 l 813 475 q 768 199 813 311 q 643 29 724 86 q 451 -28 563 -28 q 251 26 332 -28 q 131 183 171 79 q 90 436 90 286 l 90 492 q 131 761 90 647 q 251 938 171 875 q 454 1000 332 1000 m 217 433 q 242 240 217 317 q 313 124 268 163 q 369 105 340 111 q 435 99 399 99 q 570 138 514 99 q 656 262 626 176 q 686 488 686 347 l 686 511 q 677 660 686 599 q 647 768 668 722 q 588 850 625 814 q 526 868 556 863 q 461 874 497 874 q 326 832 381 874 q 244 703 272 790 q 217 478 217 615 l 217 433 m 410 1303 q 424 1303 417 1303 q 440 1303 432 1303 q 454 1303 447 1303 q 502 1297 479 1303 q 564 1267 525 1292 q 611 1234 586 1253 q 660 1193 636 1215 q 705 1144 683 1171 q 746 1088 726 1118 q 711 1076 728 1081 q 671 1072 694 1072 q 634 1080 647 1072 q 604 1106 621 1088 q 531 1171 571 1142 q 418 1232 490 1200 l 497 1215 q 452 1215 475 1215 q 406 1215 429 1215 l 483 1233 q 351 1151 403 1193 q 272 1071 300 1110 l 264 1071 q 213 1074 232 1071 q 185 1085 193 1078 q 176 1101 176 1093 q 185 1126 176 1110 q 214 1167 193 1143 q 255 1207 233 1188 q 301 1244 276 1226 q 353 1277 326 1263 q 410 1303 381 1292 z "},"Õ":{"ha":903,"x_min":90,"x_max":813,"o":"m 454 1000 q 649 947 569 1000 q 771 790 729 894 q 813 531 813 686 l 813 475 q 768 199 813 311 q 643 29 724 86 q 451 -28 563 -28 q 251 26 332 -28 q 131 183 171 79 q 90 436 90 286 l 90 492 q 131 761 90 647 q 251 938 171 875 q 454 1000 332 1000 m 217 433 q 242 240 217 317 q 313 124 268 163 q 369 105 340 111 q 435 99 399 99 q 570 138 514 99 q 656 262 626 176 q 686 488 686 347 l 686 511 q 677 660 686 599 q 647 768 668 722 q 588 850 625 814 q 526 868 556 863 q 461 874 497 874 q 326 832 381 874 q 244 703 272 790 q 217 478 217 615 l 217 433 m 589 1194 q 653 1210 625 1194 q 710 1258 682 1226 l 718 1258 q 724 1235 722 1250 q 726 1208 726 1221 q 723 1172 726 1186 q 714 1147 719 1158 q 672 1104 700 1119 q 600 1089 643 1089 q 526 1104 563 1089 q 456 1140 490 1119 q 385 1175 421 1160 q 311 1190 349 1190 q 247 1175 275 1190 q 190 1126 219 1160 l 182 1126 q 176 1151 178 1138 q 174 1176 174 1164 q 177 1212 174 1199 q 186 1236 181 1225 q 228 1280 200 1264 q 300 1296 257 1296 q 374 1281 338 1296 q 445 1245 410 1265 q 516 1210 481 1225 q 589 1194 551 1194 z "},"Ö":{"ha":903,"x_min":90,"x_max":813,"o":"m 454 1000 q 649 947 569 1000 q 771 790 729 894 q 813 531 813 686 l 813 475 q 768 199 813 311 q 643 29 724 86 q 451 -28 563 -28 q 251 26 332 -28 q 131 183 171 79 q 90 436 90 286 l 90 492 q 131 761 90 647 q 251 938 171 875 q 454 1000 332 1000 m 217 433 q 242 240 217 317 q 313 124 268 163 q 369 105 340 111 q 435 99 399 99 q 570 138 514 99 q 656 262 626 176 q 686 488 686 347 l 686 511 q 677 660 686 599 q 647 768 668 722 q 588 850 625 814 q 526 868 556 863 q 461 874 497 874 q 326 832 381 874 q 244 703 272 790 q 217 478 217 615 l 217 433 m 229 1261 q 260 1265 243 1264 q 290 1265 276 1265 q 338 1260 317 1265 q 372 1243 358 1256 q 385 1208 385 1231 l 385 1110 q 354 1107 371 1108 q 322 1106 338 1106 q 277 1111 299 1106 q 242 1129 256 1117 q 229 1164 229 1142 l 229 1261 m 518 1261 q 549 1265 532 1264 q 579 1265 565 1265 q 626 1260 606 1265 q 660 1243 647 1256 q 674 1208 674 1231 l 674 1110 q 643 1107 660 1108 q 611 1106 626 1106 q 566 1111 588 1106 q 531 1129 544 1117 q 518 1164 518 1142 l 518 1261 z "},"Ō":{"ha":903,"x_min":90,"x_max":813,"o":"m 454 1000 q 649 947 569 1000 q 771 790 729 894 q 813 531 813 686 l 813 475 q 768 199 813 311 q 643 29 724 86 q 451 -28 563 -28 q 251 26 332 -28 q 131 183 171 79 q 90 436 90 286 l 90 492 q 131 761 90 647 q 251 938 171 875 q 454 1000 332 1000 m 217 433 q 242 240 217 317 q 313 124 268 163 q 369 105 340 111 q 435 99 399 99 q 570 138 514 99 q 656 262 626 176 q 686 488 686 347 l 686 511 q 677 660 686 599 q 647 768 668 722 q 588 850 625 814 q 526 868 556 863 q 461 874 497 874 q 326 832 381 874 q 244 703 272 790 q 217 478 217 615 l 217 433 m 178 1226 l 663 1226 q 711 1209 699 1226 q 724 1156 724 1192 q 722 1135 724 1146 q 719 1117 721 1125 l 281 1117 q 217 1126 239 1117 q 186 1156 194 1136 q 178 1207 178 1176 q 178 1217 178 1213 q 178 1226 178 1222 z "},"Ŏ":{"ha":903,"x_min":90,"x_max":813,"o":"m 454 1000 q 649 947 569 1000 q 771 790 729 894 q 813 531 813 686 l 813 475 q 768 199 813 311 q 643 29 724 86 q 451 -28 563 -28 q 251 26 332 -28 q 131 183 171 79 q 90 436 90 286 l 90 492 q 131 761 90 647 q 251 938 171 875 q 454 1000 332 1000 m 217 433 q 242 240 217 317 q 313 124 268 163 q 369 105 340 111 q 435 99 399 99 q 570 138 514 99 q 656 262 626 176 q 686 488 686 347 l 686 511 q 677 660 686 599 q 647 768 668 722 q 588 850 625 814 q 526 868 556 863 q 461 874 497 874 q 326 832 381 874 q 244 703 272 790 q 217 478 217 615 l 217 433 m 615 1306 q 656 1301 639 1306 q 688 1288 674 1296 q 698 1272 696 1281 q 694 1250 700 1263 q 647 1171 679 1204 q 568 1119 615 1138 q 457 1101 521 1101 l 446 1101 q 335 1119 383 1101 q 256 1171 288 1138 q 208 1250 224 1204 q 205 1272 203 1263 q 215 1288 207 1281 q 247 1301 229 1296 q 288 1306 264 1306 q 346 1230 308 1256 q 451 1199 383 1204 q 557 1230 519 1204 q 615 1306 594 1256 z "},"Ő":{"ha":903,"x_min":90,"x_max":813,"o":"m 378 1290 q 415 1289 399 1290 q 447 1285 432 1288 q 475 1276 461 1282 q 495 1258 492 1271 q 493 1229 499 1244 q 472 1188 485 1208 q 442 1151 460 1168 q 405 1117 425 1133 q 361 1089 385 1101 q 324 1075 343 1079 q 283 1071 306 1071 q 258 1072 271 1071 q 233 1078 246 1074 q 208 1089 221 1082 q 285 1151 251 1119 q 343 1217 319 1182 q 378 1290 367 1251 m 676 1290 q 714 1289 697 1290 q 745 1285 731 1288 q 774 1276 760 1282 q 793 1258 790 1271 q 792 1229 796 1244 q 770 1188 783 1208 q 740 1151 757 1168 q 703 1117 724 1133 q 660 1089 683 1101 q 622 1075 640 1079 q 582 1071 604 1071 q 557 1072 569 1071 q 532 1078 544 1074 q 507 1089 519 1082 q 584 1151 550 1119 q 642 1217 618 1182 q 676 1290 665 1251 m 454 1000 q 649 947 569 1000 q 771 790 729 894 q 813 531 813 686 l 813 475 q 768 199 813 311 q 643 29 724 86 q 451 -28 563 -28 q 251 26 332 -28 q 131 183 171 79 q 90 436 90 286 l 90 492 q 131 761 90 647 q 251 938 171 875 q 454 1000 332 1000 m 217 433 q 242 240 217 317 q 313 124 268 163 q 369 105 340 111 q 435 99 399 99 q 570 138 514 99 q 656 262 626 176 q 686 488 686 347 l 686 511 q 677 660 686 599 q 647 768 668 722 q 588 850 625 814 q 526 868 556 863 q 461 874 497 874 q 326 832 381 874 q 244 703 272 790 q 217 478 217 615 l 217 433 z "},"Ơ":{"ha":903,"x_min":90,"x_max":850,"o":"m 454 1000 q 649 947 569 1000 q 771 790 729 894 q 813 531 813 686 l 813 475 q 768 199 813 311 q 643 29 724 86 q 451 -28 563 -28 q 251 26 332 -28 q 131 183 171 79 q 90 436 90 286 l 90 492 q 131 761 90 647 q 251 938 171 875 q 454 1000 332 1000 m 217 433 q 242 240 217 317 q 313 124 268 163 q 369 105 340 111 q 435 99 399 99 q 570 138 514 99 q 656 262 626 176 q 686 488 686 347 l 686 511 q 677 660 686 599 q 647 768 668 722 q 588 850 625 814 q 526 868 556 863 q 461 874 497 874 q 326 832 381 874 q 244 703 272 790 q 217 478 217 615 l 217 433 m 717 1133 q 742 1144 728 1140 q 776 1147 757 1147 q 831 1128 813 1147 q 850 1067 850 1108 q 832 978 850 1014 q 785 921 814 943 q 747 900 765 908 q 712 888 729 892 q 676 885 694 885 q 665 885 671 885 q 651 885 658 885 q 651 898 651 892 q 651 910 651 904 q 651 923 651 915 q 651 940 651 931 q 678 943 664 940 q 704 956 692 946 q 728 985 719 965 q 736 1039 736 1006 q 731 1087 736 1064 q 717 1133 726 1110 z "},"Ǫ":{"ha":903,"x_min":90,"x_max":813,"o":"m 454 1000 q 649 947 569 1000 q 771 790 729 894 q 813 531 813 686 l 813 475 q 768 199 813 311 q 643 29 724 86 q 451 -28 563 -28 q 251 26 332 -28 q 131 183 171 79 q 90 436 90 286 l 90 492 q 131 761 90 647 q 251 938 171 875 q 454 1000 332 1000 m 217 433 q 242 240 217 317 q 313 124 268 163 q 369 105 340 111 q 435 99 399 99 q 570 138 514 99 q 656 262 626 176 q 686 488 686 347 l 686 511 q 677 660 686 599 q 647 768 668 722 q 588 850 625 814 q 526 868 556 863 q 461 874 497 874 q 326 832 381 874 q 244 703 272 790 q 217 478 217 615 l 217 433 m 668 100 q 697 119 681 108 q 729 132 713 131 q 721 113 726 125 q 704 83 715 100 q 659 10 681 49 q 625 -67 638 -29 q 613 -144 613 -106 q 631 -206 613 -187 q 683 -224 650 -224 q 732 -216 710 -224 q 778 -192 754 -208 l 786 -192 q 793 -210 790 -201 q 797 -228 796 -219 q 799 -249 799 -236 q 761 -322 799 -297 q 660 -347 724 -347 q 544 -307 585 -347 q 503 -187 503 -267 q 518 -96 503 -139 q 558 -14 533 -53 q 611 53 582 25 q 668 100 640 82 z "},"Ȍ":{"ha":903,"x_min":90,"x_max":813,"o":"m 240 1299 q 275 1225 253 1260 q 331 1160 297 1190 q 410 1097 365 1129 q 384 1088 396 1092 q 360 1081 372 1083 q 333 1079 347 1079 q 297 1083 314 1079 q 260 1097 279 1086 q 216 1125 236 1110 q 178 1158 196 1140 q 147 1197 160 1176 q 125 1236 133 1217 q 122 1265 119 1253 q 140 1285 125 1278 q 169 1294 154 1290 q 201 1299 183 1297 q 240 1299 219 1300 m 504 1299 q 540 1225 518 1260 q 597 1160 563 1190 q 674 1097 631 1129 q 649 1088 661 1092 q 625 1081 638 1083 q 599 1079 613 1079 q 562 1083 579 1079 q 525 1097 544 1086 q 481 1125 501 1110 q 442 1158 460 1140 q 412 1197 425 1176 q 390 1236 399 1217 q 386 1265 383 1253 q 406 1285 389 1278 q 433 1294 418 1290 q 466 1299 449 1297 q 504 1299 483 1300 m 454 1000 q 649 947 569 1000 q 771 790 729 894 q 813 531 813 686 l 813 475 q 768 199 813 311 q 643 29 724 86 q 451 -28 563 -28 q 251 26 332 -28 q 131 183 171 79 q 90 436 90 286 l 90 492 q 131 761 90 647 q 251 938 171 875 q 454 1000 332 1000 m 217 433 q 242 240 217 317 q 313 124 268 163 q 369 105 340 111 q 435 99 399 99 q 570 138 514 99 q 656 262 626 176 q 686 488 686 347 l 686 511 q 677 660 686 599 q 647 768 668 722 q 588 850 625 814 q 526 868 556 863 q 461 874 497 874 q 326 832 381 874 q 244 703 272 790 q 217 478 217 615 l 217 433 z "},"Ȏ":{"ha":903,"x_min":90,"x_max":813,"o":"m 288 1093 q 247 1099 264 1094 q 215 1111 229 1103 q 205 1127 207 1118 q 208 1149 203 1136 q 256 1228 224 1194 q 335 1279 288 1261 q 446 1297 383 1297 l 457 1297 q 568 1279 521 1297 q 647 1228 615 1261 q 694 1149 679 1194 q 698 1127 700 1136 q 688 1111 696 1118 q 656 1099 674 1103 q 615 1093 639 1094 q 557 1169 594 1143 q 451 1200 519 1194 q 346 1169 383 1194 q 288 1093 308 1143 m 454 1000 q 649 947 569 1000 q 771 790 729 894 q 813 531 813 686 l 813 475 q 768 199 813 311 q 643 29 724 86 q 451 -28 563 -28 q 251 26 332 -28 q 131 183 171 79 q 90 436 90 286 l 90 492 q 131 761 90 647 q 251 938 171 875 q 454 1000 332 1000 m 217 433 q 242 240 217 317 q 313 124 268 163 q 369 105 340 111 q 435 99 399 99 q 570 138 514 99 q 656 262 626 176 q 686 488 686 347 l 686 511 q 677 660 686 599 q 647 768 668 722 q 588 850 625 814 q 526 868 556 863 q 461 874 497 874 q 326 832 381 874 q 244 703 272 790 q 217 478 217 615 l 217 433 z "},"Ȫ":{"ha":903,"x_min":90,"x_max":813,"o":"m 454 1000 q 649 947 569 1000 q 771 790 729 894 q 813 531 813 686 l 813 475 q 768 199 813 311 q 643 29 724 86 q 451 -28 563 -28 q 251 26 332 -28 q 131 183 171 79 q 90 436 90 286 l 90 492 q 131 761 90 647 q 251 938 171 875 q 454 1000 332 1000 m 217 433 q 242 240 217 317 q 313 124 268 163 q 369 105 340 111 q 435 99 399 99 q 570 138 514 99 q 656 262 626 176 q 686 488 686 347 l 686 511 q 677 660 686 599 q 647 768 668 722 q 588 850 625 814 q 526 868 556 863 q 461 874 497 874 q 326 832 381 874 q 244 703 272 790 q 217 478 217 615 l 217 433 m 229 1261 q 260 1265 243 1264 q 290 1265 276 1265 q 338 1260 317 1265 q 372 1243 358 1256 q 385 1208 385 1231 l 385 1110 q 354 1107 371 1108 q 322 1106 338 1106 q 277 1111 299 1106 q 242 1129 256 1117 q 229 1164 229 1142 l 229 1261 m 518 1261 q 549 1265 532 1264 q 579 1265 565 1265 q 626 1260 606 1265 q 660 1243 647 1256 q 674 1208 674 1231 l 674 1110 q 643 1107 660 1108 q 611 1106 626 1106 q 566 1111 588 1106 q 531 1129 544 1117 q 518 1164 518 1142 l 518 1261 m 178 1472 l 663 1472 q 711 1455 699 1472 q 724 1401 724 1438 q 722 1381 724 1392 q 719 1363 721 1371 l 281 1363 q 217 1372 239 1363 q 186 1402 194 1382 q 178 1453 178 1422 q 178 1463 178 1458 q 178 1472 178 1468 z "},"Ȭ":{"ha":903,"x_min":90,"x_max":813,"o":"m 454 1000 q 649 947 569 1000 q 771 790 729 894 q 813 531 813 686 l 813 475 q 768 199 813 311 q 643 29 724 86 q 451 -28 563 -28 q 251 26 332 -28 q 131 183 171 79 q 90 436 90 286 l 90 492 q 131 761 90 647 q 251 938 171 875 q 454 1000 332 1000 m 217 433 q 242 240 217 317 q 313 124 268 163 q 369 105 340 111 q 435 99 399 99 q 570 138 514 99 q 656 262 626 176 q 686 488 686 347 l 686 511 q 677 660 686 599 q 647 768 668 722 q 588 850 625 814 q 526 868 556 863 q 461 874 497 874 q 326 832 381 874 q 244 703 272 790 q 217 478 217 615 l 217 433 m 589 1194 q 653 1210 625 1194 q 710 1258 682 1226 l 718 1258 q 724 1235 722 1250 q 726 1208 726 1221 q 723 1172 726 1186 q 714 1147 719 1158 q 672 1104 700 1119 q 600 1089 643 1089 q 526 1104 563 1089 q 456 1140 490 1119 q 385 1175 421 1160 q 311 1190 349 1190 q 247 1175 275 1190 q 190 1126 219 1160 l 182 1126 q 176 1151 178 1138 q 174 1176 174 1164 q 177 1212 174 1199 q 186 1236 181 1225 q 228 1280 200 1264 q 300 1296 257 1296 q 374 1281 338 1296 q 445 1245 410 1265 q 516 1210 481 1225 q 589 1194 551 1194 m 178 1481 l 663 1481 q 711 1463 699 1481 q 724 1410 724 1446 q 722 1390 724 1400 q 719 1371 721 1379 l 281 1371 q 217 1381 239 1371 q 186 1410 194 1390 q 178 1461 178 1431 q 178 1472 178 1467 q 178 1481 178 1476 z "},"Ȱ":{"ha":903,"x_min":90,"x_max":813,"o":"m 358 1251 q 376 1257 367 1254 q 397 1261 386 1260 q 419 1263 407 1263 q 440 1264 431 1264 q 516 1248 488 1264 q 544 1194 544 1232 l 544 1110 q 527 1105 536 1107 q 509 1101 518 1103 q 490 1099 500 1099 q 468 1099 479 1099 q 389 1120 419 1099 q 358 1178 358 1142 l 358 1251 m 454 1000 q 649 947 569 1000 q 771 790 729 894 q 813 531 813 686 l 813 475 q 768 199 813 311 q 643 29 724 86 q 451 -28 563 -28 q 251 26 332 -28 q 131 183 171 79 q 90 436 90 286 l 90 492 q 131 761 90 647 q 251 938 171 875 q 454 1000 332 1000 m 217 433 q 242 240 217 317 q 313 124 268 163 q 369 105 340 111 q 435 99 399 99 q 570 138 514 99 q 656 262 626 176 q 686 488 686 347 l 686 511 q 677 660 686 599 q 647 768 668 722 q 588 850 625 814 q 526 868 556 863 q 461 874 497 874 q 326 832 381 874 q 244 703 272 790 q 217 478 217 615 l 217 433 m 178 1444 l 663 1444 q 711 1426 699 1444 q 724 1372 724 1408 q 722 1352 724 1363 q 719 1335 721 1342 l 281 1335 q 217 1344 239 1335 q 186 1374 194 1353 q 178 1425 178 1394 q 178 1435 178 1429 q 178 1444 178 1440 z "},"Ṍ":{"ha":903,"x_min":90,"x_max":813,"o":"m 454 1000 q 649 947 569 1000 q 771 790 729 894 q 813 531 813 686 l 813 475 q 768 199 813 311 q 643 29 724 86 q 451 -28 563 -28 q 251 26 332 -28 q 131 183 171 79 q 90 436 90 286 l 90 492 q 131 761 90 647 q 251 938 171 875 q 454 1000 332 1000 m 217 433 q 242 240 217 317 q 313 124 268 163 q 369 105 340 111 q 435 99 399 99 q 570 138 514 99 q 656 262 626 176 q 686 488 686 347 l 686 511 q 677 660 686 599 q 647 768 668 722 q 588 850 625 814 q 526 868 556 863 q 461 874 497 874 q 326 832 381 874 q 244 703 272 790 q 217 478 217 615 l 217 433 m 589 1194 q 653 1210 625 1194 q 710 1258 682 1226 l 718 1258 q 724 1235 722 1250 q 726 1208 726 1221 q 723 1172 726 1186 q 714 1147 719 1158 q 672 1104 700 1119 q 600 1089 643 1089 q 526 1104 563 1089 q 456 1140 490 1119 q 385 1175 421 1160 q 311 1190 349 1190 q 247 1175 275 1190 q 190 1126 219 1160 l 182 1126 q 176 1151 178 1138 q 174 1176 174 1164 q 177 1212 174 1199 q 186 1236 181 1225 q 228 1280 200 1264 q 300 1296 257 1296 q 374 1281 338 1296 q 445 1245 410 1265 q 516 1210 481 1225 q 589 1194 551 1194 m 549 1544 q 587 1543 569 1544 q 618 1539 604 1542 q 646 1532 632 1536 q 666 1513 663 1525 q 664 1485 669 1500 q 643 1443 656 1463 q 613 1406 631 1424 q 576 1372 596 1388 q 532 1344 556 1357 q 495 1329 514 1333 q 454 1325 476 1325 q 429 1327 442 1325 q 404 1333 417 1329 q 379 1344 392 1338 q 456 1406 422 1375 q 514 1472 490 1438 q 549 1544 538 1506 z "},"Ṏ":{"ha":903,"x_min":90,"x_max":813,"o":"m 454 1000 q 649 947 569 1000 q 771 790 729 894 q 813 531 813 686 l 813 475 q 768 199 813 311 q 643 29 724 86 q 451 -28 563 -28 q 251 26 332 -28 q 131 183 171 79 q 90 436 90 286 l 90 492 q 131 761 90 647 q 251 938 171 875 q 454 1000 332 1000 m 217 433 q 242 240 217 317 q 313 124 268 163 q 369 105 340 111 q 435 99 399 99 q 570 138 514 99 q 656 262 626 176 q 686 488 686 347 l 686 511 q 677 660 686 599 q 647 768 668 722 q 588 850 625 814 q 526 868 556 863 q 461 874 497 874 q 326 832 381 874 q 244 703 272 790 q 217 478 217 615 l 217 433 m 589 1194 q 653 1210 625 1194 q 710 1258 682 1226 l 718 1258 q 724 1235 722 1250 q 726 1208 726 1221 q 723 1172 726 1186 q 714 1147 719 1158 q 672 1104 700 1119 q 600 1089 643 1089 q 526 1104 563 1089 q 456 1140 490 1119 q 385 1175 421 1160 q 311 1190 349 1190 q 247 1175 275 1190 q 190 1126 219 1160 l 182 1126 q 176 1151 178 1138 q 174 1176 174 1164 q 177 1212 174 1199 q 186 1236 181 1225 q 228 1280 200 1264 q 300 1296 257 1296 q 374 1281 338 1296 q 445 1245 410 1265 q 516 1210 481 1225 q 589 1194 551 1194 m 229 1515 q 260 1519 243 1518 q 290 1519 276 1519 q 338 1515 317 1519 q 372 1497 358 1510 q 385 1463 385 1485 l 385 1364 q 354 1361 371 1363 q 322 1360 338 1360 q 277 1365 299 1360 q 242 1383 256 1371 q 229 1418 229 1396 l 229 1515 m 518 1515 q 549 1519 532 1518 q 579 1519 565 1519 q 626 1515 606 1519 q 660 1497 647 1510 q 674 1463 674 1485 l 674 1364 q 643 1361 660 1363 q 611 1360 626 1360 q 566 1365 588 1360 q 531 1383 544 1371 q 518 1418 518 1396 l 518 1515 z "},"Ṑ":{"ha":903,"x_min":90,"x_max":813,"o":"m 454 1000 q 649 947 569 1000 q 771 790 729 894 q 813 531 813 686 l 813 475 q 768 199 813 311 q 643 29 724 86 q 451 -28 563 -28 q 251 26 332 -28 q 131 183 171 79 q 90 436 90 286 l 90 492 q 131 761 90 647 q 251 938 171 875 q 454 1000 332 1000 m 217 433 q 242 240 217 317 q 313 124 268 163 q 369 105 340 111 q 435 99 399 99 q 570 138 514 99 q 656 262 626 176 q 686 488 686 347 l 686 511 q 677 660 686 599 q 647 768 668 722 q 588 850 625 814 q 526 868 556 863 q 461 874 497 874 q 326 832 381 874 q 244 703 272 790 q 217 478 217 615 l 217 433 m 178 1226 l 663 1226 q 711 1209 699 1226 q 724 1156 724 1192 q 722 1135 724 1146 q 719 1117 721 1125 l 281 1117 q 217 1126 239 1117 q 186 1156 194 1136 q 178 1207 178 1176 q 178 1217 178 1213 q 178 1226 178 1222 m 354 1507 q 390 1433 367 1468 q 447 1368 413 1399 q 524 1306 481 1338 q 499 1296 511 1300 q 474 1290 486 1292 q 449 1288 463 1288 q 410 1291 428 1288 q 375 1306 393 1294 q 331 1333 351 1318 q 292 1367 310 1349 q 262 1405 275 1385 q 240 1444 249 1425 q 236 1474 233 1461 q 254 1493 239 1486 q 283 1502 268 1499 q 316 1507 299 1506 q 354 1507 333 1508 z "},"Ṓ":{"ha":903,"x_min":90,"x_max":813,"o":"m 454 1000 q 649 947 569 1000 q 771 790 729 894 q 813 531 813 686 l 813 475 q 768 199 813 311 q 643 29 724 86 q 451 -28 563 -28 q 251 26 332 -28 q 131 183 171 79 q 90 436 90 286 l 90 492 q 131 761 90 647 q 251 938 171 875 q 454 1000 332 1000 m 217 433 q 242 240 217 317 q 313 124 268 163 q 369 105 340 111 q 435 99 399 99 q 570 138 514 99 q 656 262 626 176 q 686 488 686 347 l 686 511 q 677 660 686 599 q 647 768 668 722 q 588 850 625 814 q 526 868 556 863 q 461 874 497 874 q 326 832 381 874 q 244 703 272 790 q 217 478 217 615 l 217 433 m 178 1226 l 663 1226 q 711 1209 699 1226 q 724 1156 724 1192 q 722 1135 724 1146 q 719 1117 721 1125 l 281 1117 q 217 1126 239 1117 q 186 1156 194 1136 q 178 1207 178 1176 q 178 1217 178 1213 q 178 1226 178 1222 m 549 1499 q 587 1497 569 1499 q 618 1493 604 1496 q 646 1486 632 1490 q 666 1467 663 1479 q 664 1439 669 1454 q 643 1397 656 1417 q 613 1360 631 1378 q 576 1326 596 1342 q 532 1299 556 1311 q 495 1283 514 1288 q 454 1279 476 1279 q 429 1281 442 1279 q 404 1288 417 1283 q 379 1299 392 1292 q 456 1360 422 1329 q 514 1426 490 1392 q 549 1499 538 1460 z "},"Ọ":{"ha":903,"x_min":90,"x_max":813,"o":"m 454 1000 q 649 947 569 1000 q 771 790 729 894 q 813 531 813 686 l 813 475 q 768 199 813 311 q 643 29 724 86 q 451 -28 563 -28 q 251 26 332 -28 q 131 183 171 79 q 90 436 90 286 l 90 492 q 131 761 90 647 q 251 938 171 875 q 454 1000 332 1000 m 217 433 q 242 240 217 317 q 313 124 268 163 q 369 105 340 111 q 435 99 399 99 q 570 138 514 99 q 656 262 626 176 q 686 488 686 347 l 686 511 q 677 660 686 599 q 647 768 668 722 q 588 850 625 814 q 526 868 556 863 q 461 874 497 874 q 326 832 381 874 q 244 703 272 790 q 217 478 217 615 l 217 433 m 365 -125 q 381 -122 372 -124 q 399 -120 390 -121 q 416 -119 407 -119 q 435 -119 425 -119 q 509 -133 481 -119 q 538 -183 538 -146 l 538 -274 q 522 -276 531 -275 q 504 -278 513 -278 q 487 -279 496 -279 q 468 -279 478 -279 q 394 -265 424 -279 q 365 -215 365 -251 l 365 -125 z "},"Ỏ":{"ha":903,"x_min":90,"x_max":813,"o":"m 454 1000 q 649 947 569 1000 q 771 790 729 894 q 813 531 813 686 l 813 475 q 768 199 813 311 q 643 29 724 86 q 451 -28 563 -28 q 251 26 332 -28 q 131 183 171 79 q 90 436 90 286 l 90 492 q 131 761 90 647 q 251 938 171 875 q 454 1000 332 1000 m 217 433 q 242 240 217 317 q 313 124 268 163 q 369 105 340 111 q 435 99 399 99 q 570 138 514 99 q 656 262 626 176 q 686 488 686 347 l 686 511 q 677 660 686 599 q 647 768 668 722 q 588 850 625 814 q 526 868 556 863 q 461 874 497 874 q 326 832 381 874 q 244 703 272 790 q 217 478 217 615 l 217 433 m 382 1078 q 398 1114 382 1097 q 456 1146 414 1131 q 509 1169 494 1160 q 524 1193 524 1179 q 524 1201 524 1197 q 522 1208 524 1204 q 495 1215 510 1214 q 463 1217 481 1217 q 381 1205 415 1217 q 319 1167 347 1193 l 311 1167 q 303 1188 306 1178 q 300 1214 300 1199 q 306 1249 300 1233 q 326 1276 313 1264 q 347 1291 336 1285 q 374 1302 358 1297 q 408 1309 389 1307 q 451 1311 428 1311 q 540 1297 506 1311 q 592 1257 575 1282 q 610 1200 610 1232 l 610 1197 q 594 1150 610 1168 q 544 1113 579 1132 q 497 1079 507 1092 q 483 1049 486 1067 q 469 1045 478 1047 q 453 1042 461 1043 q 436 1042 444 1042 q 395 1052 408 1042 q 382 1078 382 1063 z "},"Ố":{"ha":903,"x_min":90,"x_max":858,"o":"m 454 1000 q 649 947 569 1000 q 771 790 729 894 q 813 531 813 686 l 813 475 q 768 199 813 311 q 643 29 724 86 q 451 -28 563 -28 q 251 26 332 -28 q 131 183 171 79 q 90 436 90 286 l 90 492 q 131 761 90 647 q 251 938 171 875 q 454 1000 332 1000 m 217 433 q 242 240 217 317 q 313 124 268 163 q 369 105 340 111 q 435 99 399 99 q 570 138 514 99 q 656 262 626 176 q 686 488 686 347 l 686 511 q 677 660 686 599 q 647 768 668 722 q 588 850 625 814 q 526 868 556 863 q 461 874 497 874 q 326 832 381 874 q 244 703 272 790 q 217 478 217 615 l 217 433 m 410 1303 q 424 1303 417 1303 q 440 1303 432 1303 q 454 1303 447 1303 q 502 1297 479 1303 q 564 1267 525 1292 q 611 1234 586 1253 q 660 1193 636 1215 q 705 1144 683 1171 q 746 1088 726 1118 q 711 1076 728 1081 q 671 1072 694 1072 q 634 1080 647 1072 q 604 1106 621 1088 q 531 1171 571 1142 q 418 1232 490 1200 l 497 1215 q 452 1215 475 1215 q 406 1215 429 1215 l 483 1233 q 351 1151 403 1193 q 272 1071 300 1110 l 264 1071 q 213 1074 232 1071 q 185 1085 193 1078 q 176 1101 176 1093 q 185 1126 176 1110 q 214 1167 193 1143 q 255 1207 233 1188 q 301 1244 276 1226 q 353 1277 326 1263 q 410 1303 381 1292 m 756 1492 q 784 1490 771 1492 q 810 1487 797 1489 q 833 1482 822 1485 q 855 1461 851 1476 q 850 1422 858 1446 q 827 1376 840 1399 q 797 1335 814 1354 q 758 1299 779 1317 q 724 1279 740 1286 q 689 1272 708 1272 q 665 1274 676 1272 q 643 1281 654 1276 q 619 1290 632 1285 q 679 1348 653 1317 q 725 1415 706 1379 q 756 1492 744 1451 z "},"Ồ":{"ha":903,"x_min":90,"x_max":813,"o":"m 454 1000 q 649 947 569 1000 q 771 790 729 894 q 813 531 813 686 l 813 475 q 768 199 813 311 q 643 29 724 86 q 451 -28 563 -28 q 251 26 332 -28 q 131 183 171 79 q 90 436 90 286 l 90 492 q 131 761 90 647 q 251 938 171 875 q 454 1000 332 1000 m 217 433 q 242 240 217 317 q 313 124 268 163 q 369 105 340 111 q 435 99 399 99 q 570 138 514 99 q 656 262 626 176 q 686 488 686 347 l 686 511 q 677 660 686 599 q 647 768 668 722 q 588 850 625 814 q 526 868 556 863 q 461 874 497 874 q 326 832 381 874 q 244 703 272 790 q 217 478 217 615 l 217 433 m 410 1303 q 424 1303 417 1303 q 440 1303 432 1303 q 454 1303 447 1303 q 502 1297 479 1303 q 564 1267 525 1292 q 611 1234 586 1253 q 660 1193 636 1215 q 705 1144 683 1171 q 746 1088 726 1118 q 711 1076 728 1081 q 671 1072 694 1072 q 634 1080 647 1072 q 604 1106 621 1088 q 531 1171 571 1142 q 418 1232 490 1200 l 497 1215 q 452 1215 475 1215 q 406 1215 429 1215 l 483 1233 q 351 1151 403 1193 q 272 1071 300 1110 l 264 1071 q 213 1074 232 1071 q 185 1085 193 1078 q 176 1101 176 1093 q 185 1126 176 1110 q 214 1167 193 1143 q 255 1207 233 1188 q 301 1244 276 1226 q 353 1277 326 1263 q 410 1303 381 1292 m 614 1490 q 644 1415 625 1451 q 690 1348 664 1379 q 750 1290 717 1317 q 726 1281 738 1285 q 705 1274 715 1276 q 682 1272 694 1272 q 645 1279 663 1272 q 610 1299 628 1286 q 572 1335 590 1317 q 541 1376 554 1354 q 519 1422 528 1399 q 515 1461 510 1446 q 540 1482 521 1476 q 561 1487 550 1485 q 585 1490 572 1489 q 614 1490 599 1490 z "},"Ổ":{"ha":903,"x_min":90,"x_max":843,"o":"m 454 1000 q 649 947 569 1000 q 771 790 729 894 q 813 531 813 686 l 813 475 q 768 199 813 311 q 643 29 724 86 q 451 -28 563 -28 q 251 26 332 -28 q 131 183 171 79 q 90 436 90 286 l 90 492 q 131 761 90 647 q 251 938 171 875 q 454 1000 332 1000 m 217 433 q 242 240 217 317 q 313 124 268 163 q 369 105 340 111 q 435 99 399 99 q 570 138 514 99 q 656 262 626 176 q 686 488 686 347 l 686 511 q 677 660 686 599 q 647 768 668 722 q 588 850 625 814 q 526 868 556 863 q 461 874 497 874 q 326 832 381 874 q 244 703 272 790 q 217 478 217 615 l 217 433 m 410 1303 q 424 1303 417 1303 q 440 1303 432 1303 q 454 1303 447 1303 q 502 1297 479 1303 q 564 1267 525 1292 q 611 1234 586 1253 q 660 1193 636 1215 q 705 1144 683 1171 q 746 1088 726 1118 q 711 1076 728 1081 q 671 1072 694 1072 q 634 1080 647 1072 q 604 1106 621 1088 q 531 1171 571 1142 q 418 1232 490 1200 l 497 1215 q 452 1215 475 1215 q 406 1215 429 1215 l 483 1233 q 351 1151 403 1193 q 272 1071 300 1110 l 264 1071 q 213 1074 232 1071 q 185 1085 193 1078 q 176 1101 176 1093 q 185 1126 176 1110 q 214 1167 193 1143 q 255 1207 233 1188 q 301 1244 276 1226 q 353 1277 326 1263 q 410 1303 381 1292 m 615 1299 q 631 1335 615 1318 q 689 1367 647 1351 q 742 1390 728 1381 q 757 1414 757 1400 q 757 1422 757 1418 q 756 1429 757 1425 q 728 1436 743 1435 q 696 1438 714 1438 q 615 1426 649 1438 q 553 1388 581 1414 l 544 1388 q 536 1409 539 1399 q 533 1435 533 1419 q 540 1469 533 1454 q 560 1497 546 1485 q 581 1512 569 1506 q 607 1523 592 1518 q 642 1530 622 1528 q 685 1532 661 1532 q 774 1517 739 1532 q 826 1478 808 1503 q 843 1421 843 1453 l 843 1418 q 828 1371 843 1389 q 778 1333 813 1353 q 730 1300 740 1313 q 717 1269 719 1288 q 703 1266 711 1268 q 686 1263 694 1264 q 669 1263 678 1263 q 628 1273 642 1263 q 615 1299 615 1283 z "},"Ỗ":{"ha":903,"x_min":90,"x_max":813,"o":"m 454 1000 q 649 947 569 1000 q 771 790 729 894 q 813 531 813 686 l 813 475 q 768 199 813 311 q 643 29 724 86 q 451 -28 563 -28 q 251 26 332 -28 q 131 183 171 79 q 90 436 90 286 l 90 492 q 131 761 90 647 q 251 938 171 875 q 454 1000 332 1000 m 217 433 q 242 240 217 317 q 313 124 268 163 q 369 105 340 111 q 435 99 399 99 q 570 138 514 99 q 656 262 626 176 q 686 488 686 347 l 686 511 q 677 660 686 599 q 647 768 668 722 q 588 850 625 814 q 526 868 556 863 q 461 874 497 874 q 326 832 381 874 q 244 703 272 790 q 217 478 217 615 l 217 433 m 410 1303 q 424 1303 417 1303 q 440 1303 432 1303 q 454 1303 447 1303 q 502 1297 479 1303 q 564 1267 525 1292 q 611 1234 586 1253 q 660 1193 636 1215 q 705 1144 683 1171 q 746 1088 726 1118 q 711 1076 728 1081 q 671 1072 694 1072 q 634 1080 647 1072 q 604 1106 621 1088 q 531 1171 571 1142 q 418 1232 490 1200 l 497 1215 q 452 1215 475 1215 q 406 1215 429 1215 l 483 1233 q 351 1151 403 1193 q 272 1071 300 1110 l 264 1071 q 213 1074 232 1071 q 185 1085 193 1078 q 176 1101 176 1093 q 185 1126 176 1110 q 214 1167 193 1143 q 255 1207 233 1188 q 301 1244 276 1226 q 353 1277 326 1263 q 410 1303 381 1292 m 563 1438 q 608 1451 590 1438 q 640 1503 625 1464 l 649 1503 q 659 1477 656 1492 q 663 1446 663 1463 q 659 1410 663 1426 q 650 1381 656 1393 q 620 1345 640 1358 q 571 1332 600 1332 q 501 1347 532 1332 q 445 1380 471 1361 q 393 1413 419 1399 q 336 1428 367 1428 q 290 1412 306 1428 q 256 1364 274 1396 l 247 1364 q 238 1387 242 1374 q 235 1417 235 1400 q 238 1453 235 1438 q 249 1485 242 1469 q 281 1522 258 1508 q 336 1535 303 1535 q 397 1519 369 1535 q 451 1485 425 1504 q 503 1452 476 1467 q 563 1438 531 1438 z "},"Ộ":{"ha":903,"x_min":90,"x_max":813,"o":"m 365 -125 q 381 -122 372 -124 q 399 -120 390 -121 q 416 -119 407 -119 q 435 -119 425 -119 q 509 -133 481 -119 q 538 -183 538 -146 l 538 -274 q 522 -276 531 -275 q 504 -278 513 -278 q 487 -279 496 -279 q 468 -279 478 -279 q 394 -265 424 -279 q 365 -215 365 -251 l 365 -125 m 454 1000 q 649 947 569 1000 q 771 790 729 894 q 813 531 813 686 l 813 475 q 768 199 813 311 q 643 29 724 86 q 451 -28 563 -28 q 251 26 332 -28 q 131 183 171 79 q 90 436 90 286 l 90 492 q 131 761 90 647 q 251 938 171 875 q 454 1000 332 1000 m 217 433 q 242 240 217 317 q 313 124 268 163 q 369 105 340 111 q 435 99 399 99 q 570 138 514 99 q 656 262 626 176 q 686 488 686 347 l 686 511 q 677 660 686 599 q 647 768 668 722 q 588 850 625 814 q 526 868 556 863 q 461 874 497 874 q 326 832 381 874 q 244 703 272 790 q 217 478 217 615 l 217 433 m 410 1303 q 424 1303 417 1303 q 440 1303 432 1303 q 454 1303 447 1303 q 502 1297 479 1303 q 564 1267 525 1292 q 611 1233 586 1251 q 660 1192 636 1214 q 705 1144 683 1171 q 746 1086 726 1117 q 711 1076 728 1079 q 671 1072 694 1072 q 634 1080 647 1072 q 604 1106 621 1088 q 531 1170 571 1140 q 418 1232 490 1200 l 497 1214 q 452 1214 475 1214 q 406 1214 429 1214 l 483 1233 q 351 1151 403 1193 q 272 1069 300 1110 l 264 1069 q 213 1074 232 1069 q 185 1085 193 1078 q 176 1100 176 1092 q 185 1126 176 1108 q 214 1165 193 1143 q 255 1207 233 1188 q 301 1244 276 1226 q 353 1276 326 1261 q 410 1303 381 1292 z "},"Ớ":{"ha":903,"x_min":90,"x_max":850,"o":"m 454 1000 q 649 947 569 1000 q 771 790 729 894 q 813 531 813 686 l 813 475 q 768 199 813 311 q 643 29 724 86 q 451 -28 563 -28 q 251 26 332 -28 q 131 183 171 79 q 90 436 90 286 l 90 492 q 131 761 90 647 q 251 938 171 875 q 454 1000 332 1000 m 217 433 q 242 240 217 317 q 313 124 268 163 q 369 105 340 111 q 435 99 399 99 q 570 138 514 99 q 656 262 626 176 q 686 488 686 347 l 686 511 q 677 660 686 599 q 647 768 668 722 q 588 850 625 814 q 526 868 556 863 q 461 874 497 874 q 326 832 381 874 q 244 703 272 790 q 217 478 217 615 l 217 433 m 717 1133 q 742 1144 728 1140 q 776 1147 757 1147 q 831 1128 813 1147 q 850 1067 850 1108 q 832 978 850 1014 q 785 921 814 943 q 747 900 765 908 q 712 888 729 892 q 676 885 694 885 q 665 885 671 885 q 651 885 658 885 q 651 898 651 892 q 651 910 651 904 q 651 923 651 915 q 651 940 651 931 q 678 943 664 940 q 704 956 692 946 q 728 985 719 965 q 736 1039 736 1006 q 731 1087 736 1064 q 717 1133 726 1110 m 522 1297 q 551 1296 538 1297 q 576 1292 564 1294 q 600 1288 589 1290 q 622 1267 618 1282 q 617 1228 625 1251 q 594 1182 607 1204 q 563 1141 581 1160 q 525 1104 546 1122 q 491 1085 507 1092 q 456 1078 475 1078 q 432 1080 443 1078 q 410 1086 421 1082 q 386 1096 399 1090 q 446 1153 419 1122 q 492 1221 472 1185 q 522 1297 511 1257 z "},"Ờ":{"ha":903,"x_min":90,"x_max":850,"o":"m 454 1000 q 649 947 569 1000 q 771 790 729 894 q 813 531 813 686 l 813 475 q 768 199 813 311 q 643 29 724 86 q 451 -28 563 -28 q 251 26 332 -28 q 131 183 171 79 q 90 436 90 286 l 90 492 q 131 761 90 647 q 251 938 171 875 q 454 1000 332 1000 m 217 433 q 242 240 217 317 q 313 124 268 163 q 369 105 340 111 q 435 99 399 99 q 570 138 514 99 q 656 262 626 176 q 686 488 686 347 l 686 511 q 677 660 686 599 q 647 768 668 722 q 588 850 625 814 q 526 868 556 863 q 461 874 497 874 q 326 832 381 874 q 244 703 272 790 q 217 478 217 615 l 217 433 m 717 1133 q 742 1144 728 1140 q 776 1147 757 1147 q 831 1128 813 1147 q 850 1067 850 1108 q 832 978 850 1014 q 785 921 814 943 q 747 900 765 908 q 712 888 729 892 q 676 885 694 885 q 665 885 671 885 q 651 885 658 885 q 651 898 651 892 q 651 910 651 904 q 651 923 651 915 q 651 940 651 931 q 678 943 664 940 q 704 956 692 946 q 728 985 719 965 q 736 1039 736 1006 q 731 1087 736 1064 q 717 1133 726 1110 m 381 1296 q 411 1221 392 1257 q 457 1153 431 1185 q 517 1096 483 1122 q 493 1086 504 1090 q 472 1080 482 1082 q 449 1078 461 1078 q 412 1085 429 1078 q 376 1104 394 1092 q 339 1141 357 1122 q 308 1182 321 1160 q 286 1228 294 1204 q 282 1267 276 1251 q 307 1288 288 1282 q 328 1292 317 1290 q 352 1295 339 1294 q 381 1296 365 1296 z "},"Ở":{"ha":903,"x_min":90,"x_max":850,"o":"m 454 1000 q 649 947 569 1000 q 771 790 729 894 q 813 531 813 686 l 813 475 q 768 199 813 311 q 643 29 724 86 q 451 -28 563 -28 q 251 26 332 -28 q 131 183 171 79 q 90 436 90 286 l 90 492 q 131 761 90 647 q 251 938 171 875 q 454 1000 332 1000 m 217 433 q 242 240 217 317 q 313 124 268 163 q 369 105 340 111 q 435 99 399 99 q 570 138 514 99 q 656 262 626 176 q 686 488 686 347 l 686 511 q 677 660 686 599 q 647 768 668 722 q 588 850 625 814 q 526 868 556 863 q 461 874 497 874 q 326 832 381 874 q 244 703 272 790 q 217 478 217 615 l 217 433 m 717 1133 q 742 1144 728 1140 q 776 1147 757 1147 q 831 1128 813 1147 q 850 1067 850 1108 q 832 978 850 1014 q 785 921 814 943 q 747 900 765 908 q 712 888 729 892 q 676 885 694 885 q 665 885 671 885 q 651 885 658 885 q 651 898 651 892 q 651 910 651 904 q 651 923 651 915 q 651 940 651 931 q 678 943 664 940 q 704 956 692 946 q 728 985 719 965 q 736 1039 736 1006 q 731 1087 736 1064 q 717 1133 726 1110 m 382 1078 q 398 1114 382 1097 q 456 1146 414 1131 q 509 1169 494 1160 q 524 1193 524 1179 q 524 1201 524 1197 q 522 1208 524 1204 q 495 1215 510 1214 q 463 1217 481 1217 q 381 1205 415 1217 q 319 1167 347 1193 l 311 1167 q 303 1188 306 1178 q 300 1214 300 1199 q 306 1249 300 1233 q 326 1276 313 1264 q 347 1291 336 1285 q 374 1302 358 1297 q 408 1309 389 1307 q 451 1311 428 1311 q 540 1297 506 1311 q 592 1257 575 1282 q 610 1200 610 1232 l 610 1197 q 594 1150 610 1168 q 544 1113 579 1132 q 497 1079 507 1092 q 483 1049 486 1067 q 469 1045 478 1047 q 453 1042 461 1043 q 436 1042 444 1042 q 395 1052 408 1042 q 382 1078 382 1063 z "},"Ỡ":{"ha":903,"x_min":90,"x_max":850,"o":"m 454 1000 q 649 947 569 1000 q 771 790 729 894 q 813 531 813 686 l 813 475 q 768 199 813 311 q 643 29 724 86 q 451 -28 563 -28 q 251 26 332 -28 q 131 183 171 79 q 90 436 90 286 l 90 492 q 131 761 90 647 q 251 938 171 875 q 454 1000 332 1000 m 217 433 q 242 240 217 317 q 313 124 268 163 q 369 105 340 111 q 435 99 399 99 q 570 138 514 99 q 656 262 626 176 q 686 488 686 347 l 686 511 q 677 660 686 599 q 647 768 668 722 q 588 850 625 814 q 526 868 556 863 q 461 874 497 874 q 326 832 381 874 q 244 703 272 790 q 217 478 217 615 l 217 433 m 717 1133 q 742 1144 728 1140 q 776 1147 757 1147 q 831 1128 813 1147 q 850 1067 850 1108 q 832 978 850 1014 q 785 921 814 943 q 747 900 765 908 q 712 888 729 892 q 676 885 694 885 q 665 885 671 885 q 651 885 658 885 q 651 898 651 892 q 651 910 651 904 q 651 923 651 915 q 651 940 651 931 q 678 943 664 940 q 704 956 692 946 q 728 985 719 965 q 736 1039 736 1006 q 731 1087 736 1064 q 717 1133 726 1110 m 517 1210 q 562 1223 544 1210 q 594 1275 579 1236 l 603 1275 q 613 1249 610 1264 q 617 1218 617 1235 q 613 1182 617 1199 q 604 1153 610 1165 q 574 1117 594 1131 q 525 1104 554 1104 q 456 1119 486 1104 q 399 1152 425 1133 q 347 1185 374 1171 q 290 1200 321 1200 q 244 1184 260 1200 q 210 1136 228 1168 l 201 1136 q 192 1159 196 1146 q 189 1189 189 1172 q 192 1226 189 1210 q 203 1257 196 1242 q 235 1294 213 1281 q 290 1307 257 1307 q 351 1292 324 1307 q 405 1258 379 1276 q 458 1224 431 1239 q 517 1210 485 1210 z "},"Ợ":{"ha":903,"x_min":90,"x_max":850,"o":"m 365 -125 q 381 -122 372 -124 q 399 -120 390 -121 q 416 -119 407 -119 q 435 -119 425 -119 q 509 -133 481 -119 q 538 -183 538 -146 l 538 -274 q 522 -276 531 -275 q 504 -278 513 -278 q 487 -279 496 -279 q 468 -279 478 -279 q 394 -265 424 -279 q 365 -215 365 -251 l 365 -125 m 454 1000 q 649 947 569 1000 q 771 790 729 894 q 813 531 813 686 l 813 475 q 768 199 813 311 q 643 29 724 86 q 451 -28 563 -28 q 251 26 332 -28 q 131 183 171 79 q 90 436 90 286 l 90 492 q 131 761 90 647 q 251 938 171 875 q 454 1000 332 1000 m 217 433 q 242 240 217 317 q 313 124 268 163 q 369 105 340 111 q 435 99 399 99 q 570 138 514 99 q 656 262 626 176 q 686 488 686 347 l 686 511 q 677 660 686 599 q 647 768 668 722 q 588 850 625 814 q 526 868 556 863 q 461 874 497 874 q 326 832 381 874 q 244 703 272 790 q 217 478 217 615 l 217 433 m 717 1135 q 744 1145 729 1142 q 778 1149 758 1149 q 831 1128 813 1149 q 850 1067 850 1108 q 832 978 850 1014 q 785 921 814 943 q 747 900 765 908 q 712 889 729 892 q 676 886 694 886 q 665 886 671 886 q 651 886 658 886 q 651 898 651 892 q 651 910 651 904 q 651 924 651 917 q 651 940 651 932 q 678 944 664 940 q 704 956 692 947 q 728 986 719 965 q 736 1039 736 1007 q 731 1087 736 1064 q 717 1135 726 1110 z "},"P":{"ha":833,"x_min":49,"x_max":743,"o":"m 269 -1 q 249 -6 258 -4 q 225 -7 239 -7 q 149 19 172 -7 q 125 104 125 46 q 125 302 125 203 q 125 500 125 401 q 125 698 125 599 q 125 896 125 797 l 242 896 l 224 854 q 250 815 243 839 q 257 757 257 790 q 257 556 257 657 q 257 350 257 454 q 257 140 257 246 q 260 69 257 104 q 269 -1 263 33 m 53 972 q 234 994 149 989 q 393 1000 319 1000 q 520 985 464 1000 q 618 945 576 971 q 688 883 660 919 q 729 799 715 846 q 743 700 743 753 l 743 676 q 711 496 743 576 q 624 358 679 415 q 500 272 569 301 q 357 242 431 242 q 304 254 326 242 q 265 288 282 267 l 233 282 l 233 378 q 277 367 256 371 q 328 364 299 364 q 436 385 385 364 q 527 447 488 407 q 590 546 567 488 q 613 676 613 604 l 613 697 q 606 765 613 733 q 588 822 600 797 q 503 862 549 850 q 389 874 458 874 q 257 867 318 874 q 153 853 196 860 q 97 846 111 846 q 60 867 71 846 q 49 931 49 888 q 50 953 49 943 q 53 972 51 963 z "},"Q":{"ha":903,"x_min":90,"x_max":881,"o":"m 643 104 q 676 42 658 72 q 714 -18 694 13 q 762 -68 738 -54 q 814 -82 786 -82 q 843 -77 831 -82 q 865 -62 856 -72 l 874 -62 q 879 -92 878 -78 q 881 -122 881 -106 q 874 -175 881 -153 q 853 -210 867 -197 q 825 -227 840 -222 q 788 -232 810 -232 q 731 -220 757 -232 q 679 -183 704 -208 q 629 -119 654 -158 q 586 -40 606 -79 q 551 40 567 0 l 643 104 m 454 1000 q 649 947 569 1000 q 771 790 729 894 q 813 531 813 686 l 813 475 q 768 199 813 311 q 643 29 724 86 q 451 -28 563 -28 q 251 26 332 -28 q 131 183 171 79 q 90 436 90 286 l 90 492 q 131 761 90 647 q 251 938 171 875 q 454 1000 332 1000 m 217 433 q 242 240 217 317 q 313 124 268 163 q 369 105 340 111 q 435 99 399 99 q 570 138 514 99 q 656 262 626 176 q 686 488 686 347 l 686 511 q 677 660 686 599 q 647 768 668 722 q 588 850 625 814 q 526 868 556 863 q 461 874 497 874 q 326 832 381 874 q 244 703 272 790 q 217 478 217 615 l 217 433 z "},"R":{"ha":833,"x_min":49,"x_max":781,"o":"m 486 368 q 547 272 517 318 q 614 176 578 225 q 661 126 638 142 q 713 111 685 111 q 742 117 729 111 q 764 133 754 122 l 772 133 q 778 104 776 118 q 781 74 781 90 q 774 26 781 46 q 757 -6 768 6 q 731 -22 746 -17 q 692 -28 715 -28 q 634 -17 661 -28 q 581 16 607 -7 q 531 76 556 39 q 456 194 490 136 q 389 311 421 251 l 486 368 m 53 972 q 230 994 147 988 q 388 1000 313 1000 q 542 978 476 1000 q 651 916 608 956 q 716 824 694 876 q 738 710 738 772 l 738 685 q 705 516 738 592 q 617 385 672 440 q 492 301 561 331 q 349 272 422 272 q 299 278 318 272 q 265 299 281 285 l 229 292 l 229 396 q 264 387 246 389 q 315 385 282 385 q 465 420 400 385 q 568 523 531 456 q 606 683 606 590 l 606 703 q 599 775 606 744 q 576 829 592 806 q 494 864 538 854 q 389 874 451 874 q 256 867 315 874 q 155 853 196 860 q 94 846 114 846 q 60 867 72 846 q 49 931 49 889 q 50 953 49 943 q 53 972 51 963 m 272 -3 q 249 -8 260 -6 q 224 -10 239 -10 q 150 15 175 -10 q 125 92 125 40 q 125 292 125 192 q 125 494 125 393 q 125 695 125 594 q 125 896 125 796 l 242 896 l 224 854 q 249 817 242 840 q 257 757 257 793 q 257 549 257 656 q 257 335 257 443 q 257 121 257 228 q 260 52 257 78 q 272 -3 263 26 z "},"Ŕ":{"ha":833,"x_min":49,"x_max":781,"o":"m 486 368 q 547 272 517 318 q 614 176 578 225 q 661 126 638 142 q 713 111 685 111 q 742 117 729 111 q 764 133 754 122 l 772 133 q 778 104 776 118 q 781 74 781 90 q 774 26 781 46 q 757 -6 768 6 q 731 -22 746 -17 q 692 -28 715 -28 q 634 -17 661 -28 q 581 16 607 -7 q 531 76 556 39 q 456 194 490 136 q 389 311 421 251 l 486 368 m 53 972 q 230 994 147 988 q 388 1000 313 1000 q 542 978 476 1000 q 651 916 608 956 q 716 824 694 876 q 738 710 738 772 l 738 685 q 705 516 738 592 q 617 385 672 440 q 492 301 561 331 q 349 272 422 272 q 299 278 318 272 q 265 299 281 285 l 229 292 l 229 396 q 264 387 246 389 q 315 385 282 385 q 465 420 400 385 q 568 523 531 456 q 606 683 606 590 l 606 703 q 599 775 606 744 q 576 829 592 806 q 494 864 538 854 q 389 874 451 874 q 256 867 315 874 q 155 853 196 860 q 94 846 114 846 q 60 867 72 846 q 49 931 49 889 q 50 953 49 943 q 53 972 51 963 m 272 -3 q 249 -8 260 -6 q 224 -10 239 -10 q 150 15 175 -10 q 125 92 125 40 q 125 292 125 192 q 125 494 125 393 q 125 695 125 594 q 125 896 125 796 l 242 896 l 224 854 q 249 817 242 840 q 257 757 257 793 q 257 549 257 656 q 257 335 257 443 q 257 121 257 228 q 260 52 257 78 q 272 -3 263 26 m 513 1290 q 551 1289 533 1290 q 582 1285 568 1288 q 610 1278 596 1282 q 630 1258 626 1271 q 628 1231 633 1246 q 607 1189 619 1208 q 577 1151 594 1169 q 540 1118 560 1133 q 496 1090 519 1103 q 459 1075 478 1079 q 418 1071 440 1071 q 393 1073 406 1071 q 368 1079 381 1075 q 343 1090 356 1083 q 420 1152 386 1121 q 478 1217 454 1183 q 513 1290 501 1251 z "}}}
